<?xml version="1.0" standalone="no"?>
<!DOCTYPE svg PUBLIC "-//W3C//DTD SVG 20010904//EN"
 "http://www.w3.org/TR/2001/REC-SVG-20010904/DTD/svg10.dtd">
<svg version="1.0" xmlns="http://www.w3.org/2000/svg"
 width="1000.000000pt" height="1000.000000pt" viewBox="0 0 1000.000000 1000.000000"
 preserveAspectRatio="xMidYMid meet">
<metadata>
Created by potrace 1.11, written by Peter Selinger 2001-2013
</metadata>
<g transform="translate(0.000000,1000.000000) scale(0.100000,-0.100000)"
fill="#000000" stroke="none">
<path d="M7238 9544 c-3 -2 -27 -6 -54 -8 -102 -10 -147 -17 -188 -27 -22 -5
-51 -12 -63 -14 -53 -8 -94 -18 -170 -41 -45 -14 -90 -27 -100 -29 -10 -1 -49
-16 -88 -31 -38 -16 -73 -28 -77 -26 -5 1 -8 -2 -8 -6 0 -5 -6 -9 -13 -9 -43
0 -487 -250 -487 -275 0 -4 -7 -8 -15 -8 -8 0 -15 -4 -15 -9 0 -5 -8 -12 -17
-15 -10 -4 -33 -20 -52 -36 -18 -16 -49 -42 -69 -57 -37 -29 -240 -230 -303
-300 -19 -22 -53 -65 -75 -94 -21 -30 -44 -59 -50 -66 -7 -7 -43 -61 -80 -120
-38 -59 -72 -110 -76 -111 -5 -2 -6 -8 -2 -13 3 -5 0 -9 -7 -9 -7 0 -10 -3 -6
-6 3 -3 -8 -28 -24 -55 -56 -95 -144 -301 -185 -431 -10 -32 -20 -58 -23 -58
-3 0 -16 29 -28 64 -13 35 -28 77 -34 93 -7 15 -13 33 -14 38 -4 16 -117 243
-154 309 -66 117 -208 316 -296 415 -78 88 -229 234 -315 304 -114 93 -103 85
-165 127 -27 19 -51 37 -53 42 -2 4 -8 8 -13 8 -5 0 -26 11 -47 24 -20 12 -40
23 -43 22 -4 -1 -15 7 -25 16 -25 22 -219 119 -319 158 -102 41 -256 91 -315
104 -74 16 -179 37 -210 42 -19 3 -46 7 -60 10 -14 3 -53 7 -87 9 -34 1 -65 5
-70 7 -11 7 -365 2 -436 -6 -94 -10 -282 -41 -282 -46 0 -1 -9 -3 -20 -5 -40
-7 -73 -15 -114 -29 -22 -9 -41 -13 -41 -11 0 5 -182 -60 -210 -75 -11 -6 -20
-9 -20 -6 0 8 -281 -134 -325 -164 -23 -16 -45 -26 -49 -23 -3 4 -6 2 -6 -4 0
-6 -13 -16 -30 -23 -16 -7 -30 -16 -30 -21 0 -4 -9 -11 -20 -14 -11 -3 -26
-12 -32 -19 -7 -6 -34 -27 -60 -46 -27 -18 -48 -36 -48 -40 0 -4 -9 -11 -19
-16 -39 -18 -207 -174 -300 -279 -30 -33 -69 -77 -88 -97 -19 -21 -32 -38 -29
-38 3 0 -6 -12 -20 -27 -51 -55 -195 -282 -264 -416 -39 -75 -68 -137 -65
-137 3 0 -2 -11 -11 -25 -9 -14 -12 -25 -8 -25 5 0 4 -4 -1 -8 -30 -21 -154
-424 -170 -552 -2 -14 -6 -43 -10 -65 -3 -22 -8 -51 -10 -65 -23 -139 -26
-710 -4 -710 3 0 6 -15 6 -32 1 -18 4 -45 7 -60 9 -43 14 -70 20 -108 3 -19
17 -80 31 -135 14 -55 27 -104 28 -110 1 -5 6 -15 9 -21 4 -6 9 -21 12 -35 6
-33 57 -172 68 -184 4 -5 8 -15 8 -23 0 -18 89 -200 157 -320 29 -52 53 -97
53 -102 0 -4 7 -10 15 -14 8 -3 15 -12 15 -20 0 -8 3 -16 8 -18 10 -5 52 -66
52 -77 0 -5 4 -11 8 -13 5 -1 47 -51 94 -109 47 -58 96 -117 109 -131 13 -14
35 -40 49 -58 14 -19 30 -38 35 -44 6 -6 21 -27 34 -46 14 -19 32 -44 42 -55
10 -11 62 -70 116 -130 54 -61 126 -142 160 -180 34 -39 70 -80 80 -91 36 -42
149 -168 205 -228 31 -34 67 -73 78 -86 18 -22 84 -96 155 -174 11 -12 43 -47
70 -78 28 -30 82 -91 122 -134 39 -44 80 -88 90 -100 10 -12 56 -63 103 -114
47 -50 96 -104 110 -120 56 -62 219 -237 270 -291 30 -31 107 -112 170 -180
63 -67 140 -148 170 -179 201 -209 526 -544 685 -705 102 -104 220 -224 260
-266 41 -42 77 -74 80 -71 3 3 5 0 5 -6 0 -6 264 -275 586 -597 580 -581 586
-587 606 -568 11 10 48 47 82 82 33 35 105 109 159 164 53 56 97 101 97 102 0
1 58 62 130 136 267 277 317 329 316 329 -1 0 39 42 88 94 142 148 266 279
266 280 0 1 35 39 78 83 42 44 131 138 197 208 66 70 145 153 175 185 30 32
96 101 145 155 50 54 108 116 130 139 22 23 69 73 104 112 95 103 260 279 311
333 25 26 88 94 140 150 52 57 111 120 130 140 19 21 80 86 135 146 55 60 117
126 138 148 20 22 37 41 37 42 0 2 19 24 43 48 39 42 166 179 230 251 16 17
59 64 95 104 37 40 85 92 107 116 22 25 65 72 95 107 30 34 62 70 71 78 14 14
107 121 264 305 28 32 59 69 70 81 11 12 34 40 50 61 37 48 132 142 214 214
87 75 261 252 261 264 0 3 10 16 23 29 50 53 197 258 197 275 0 6 4 12 8 14 8
3 20 24 94 155 84 152 216 500 244 648 6 31 12 58 18 85 10 42 17 83 22 125 2
21 7 51 9 65 26 131 26 598 0 730 -2 13 -6 39 -7 57 -1 18 -5 33 -8 33 -3 0
-6 12 -6 28 0 32 -20 127 -40 197 -9 28 -17 60 -20 73 -8 39 -58 183 -103 297
-7 17 -12 31 -12 32 0 2 -20 43 -44 93 -25 49 -45 92 -45 95 0 3 -5 11 -11 18
-6 7 -29 45 -52 86 -23 40 -47 81 -52 90 -15 24 -49 75 -57 86 -145 191 -199
256 -309 365 -63 63 -142 135 -184 168 -137 108 -325 238 -325 224 0 -4 -4 -2
-8 3 -14 19 -212 119 -327 165 -87 35 -275 96 -340 110 -92 20 -204 41 -245
45 -19 2 -51 7 -70 11 -38 7 -466 15 -472 8z"/>
</g>
</svg>
