<?xml version="1.0" standalone="no"?>
<!DOCTYPE svg PUBLIC "-//W3C//DTD SVG 20010904//EN"
 "http://www.w3.org/TR/2001/REC-SVG-20010904/DTD/svg10.dtd">
<svg version="1.0" xmlns="http://www.w3.org/2000/svg"
 width="928.000000pt" height="928.000000pt" viewBox="0 0 928.000000 928.000000"
 preserveAspectRatio="xMidYMid meet">
<metadata>
Created by potrace 1.11, written by Peter Selinger 2001-2013
</metadata>
<g transform="translate(0.000000,928.000000) scale(0.100000,-0.100000)"
fill="#000000" stroke="none">
<path d="M4219 9042 c-31 -3 -39 -8 -54 -41 l-17 -39 -56 3 c-32 2 -71 8 -89
13 -17 6 -33 8 -35 6 -3 -2 -51 -6 -107 -10 -56 -3 -114 -12 -127 -19 -13 -6
-54 -13 -91 -13 -96 -3 -106 -5 -121 -35 -7 -15 -16 -27 -20 -28 -4 0 -15 -2
-24 -4 -10 -2 -18 0 -18 4 0 4 -16 8 -37 9 -20 2 -40 5 -44 8 -17 10 -89 -17
-107 -41 -16 -20 -30 -25 -83 -29 -35 -2 -71 -7 -79 -10 -8 -3 -26 -7 -40 -10
-47 -8 -109 -35 -162 -69 -38 -24 -62 -32 -83 -30 -21 2 -38 -3 -53 -17 -12
-11 -22 -18 -22 -15 0 3 -8 -3 -18 -12 -43 -41 -62 -48 -144 -48 -75 0 -83 -2
-87 -20 -10 -56 -18 -64 -52 -55 -26 8 -37 6 -51 -7 -26 -24 -47 -25 -60 -3
-11 17 -18 14 -87 -40 -62 -48 -85 -60 -125 -65 -49 -5 -103 -21 -161 -46 -16
-7 -86 -52 -155 -100 -77 -54 -139 -90 -162 -94 -21 -4 -39 -13 -39 -21 -1 -8
-2 -17 -3 -21 -3 -12 -28 -57 -36 -63 -3 -3 -16 -22 -29 -43 -13 -21 -28 -43
-34 -50 -7 -7 -29 -38 -51 -70 -21 -31 -44 -58 -50 -58 -6 -1 -16 -2 -22 -3
-6 0 -31 -17 -56 -36 -35 -26 -64 -66 -120 -162 -56 -98 -80 -130 -106 -142
-21 -11 -37 -29 -48 -56 -11 -26 -22 -40 -33 -39 -9 1 -19 0 -23 -1 -15 -5
-23 -6 -76 -14 -62 -9 -63 -11 -162 -155 -47 -69 -85 -114 -102 -122 -16 -6
-28 -15 -28 -20 0 -5 -6 -9 -14 -9 -9 0 -16 -18 -21 -55 -6 -51 -9 -57 -46
-78 -24 -13 -42 -32 -46 -47 -3 -14 -8 -29 -12 -35 -3 -5 -7 -18 -8 -27 -2
-10 -4 -28 -6 -39 -2 -12 -12 -28 -22 -35 -18 -14 -26 -69 -15 -103 3 -8 -6
-17 -25 -24 -36 -12 -50 -26 -59 -55 -4 -12 -12 -22 -17 -22 -5 0 -9 -6 -9
-13 0 -8 -11 -27 -25 -43 -14 -16 -25 -35 -25 -41 0 -7 -4 -13 -10 -13 -5 0
-9 -26 -9 -57 1 -32 -2 -69 -5 -83 -4 -14 -9 -40 -11 -59 -3 -18 -7 -37 -10
-41 -12 -19 -15 -82 -7 -113 9 -30 6 -38 -18 -64 -19 -20 -29 -44 -33 -79 -3
-27 -15 -73 -26 -102 -24 -61 -26 -85 -7 -101 30 -25 13 -127 -40 -236 -8 -17
-17 -62 -19 -100 -6 -101 -15 -184 -26 -235 -6 -25 -11 -52 -13 -60 -2 -8 -7
-25 -12 -37 -8 -18 -4 -104 7 -188 2 -11 -3 -40 -10 -64 -10 -36 -10 -49 3
-82 9 -22 14 -52 12 -67 -3 -15 -8 -54 -11 -87 -3 -33 -10 -82 -15 -110 -6
-27 -11 -102 -12 -165 -2 -110 -1 -117 24 -154 22 -32 25 -42 16 -62 -6 -13
-15 -24 -20 -24 -5 0 -7 -4 -4 -9 3 -5 -1 -14 -9 -21 -23 -19 -11 -123 23
-190 18 -37 27 -71 27 -104 0 -47 1 -50 34 -61 46 -15 48 -39 16 -169 l-26
-104 27 -53 c20 -40 27 -70 28 -116 1 -66 8 -80 44 -86 31 -5 36 -13 62 -87
13 -35 30 -80 39 -100 8 -19 16 -40 16 -46 0 -7 14 -34 31 -60 17 -27 41 -76
53 -110 12 -33 33 -73 48 -90 14 -16 37 -45 52 -64 14 -19 28 -37 31 -40 24
-21 50 -73 50 -99 0 -24 5 -32 24 -37 17 -4 45 -37 92 -110 40 -60 76 -106 88
-110 70 -19 73 -22 71 -75 -1 -45 2 -53 39 -93 23 -23 47 -45 54 -47 7 -2 14
-15 17 -29 5 -26 38 -60 60 -60 7 0 48 -42 91 -92 43 -51 87 -104 99 -117 11
-13 80 -83 153 -155 122 -121 135 -131 167 -130 19 1 36 -2 36 -7 1 -5 2 -15
3 -21 1 -7 -2 -16 -7 -19 -21 -15 282 -225 331 -229 4 0 48 -20 98 -45 82 -39
91 -47 89 -69 -3 -21 3 -27 38 -40 23 -8 56 -18 72 -22 17 -4 32 -8 35 -9 3
-1 26 -7 53 -15 38 -10 51 -20 69 -51 16 -30 33 -43 77 -60 31 -12 79 -32 106
-44 28 -13 95 -42 150 -65 139 -59 149 -63 155 -65 3 0 27 -11 54 -23 29 -13
66 -21 90 -20 23 0 51 -4 63 -10 12 -7 29 -12 37 -12 23 0 92 -51 111 -83 21
-35 80 -60 121 -52 25 4 39 0 62 -20 22 -19 44 -26 81 -28 35 -2 59 -10 76
-25 14 -12 29 -22 34 -22 5 0 11 -7 15 -15 8 -21 93 -21 93 0 0 8 -62 78 -138
155 -97 100 -145 142 -166 146 -15 3 -36 7 -45 10 -10 3 -30 7 -45 10 -16 3
-35 7 -43 9 -45 13 -93 15 -106 4 -8 -6 -15 -8 -15 -3 -1 5 -2 23 -4 40 -1 17
-5 35 -8 40 -3 5 -46 29 -96 54 -73 36 -91 50 -96 72 -9 37 -22 46 -77 50 -48
4 -78 21 -78 44 0 8 -4 14 -8 14 -5 0 -16 16 -25 35 -13 27 -14 40 -6 54 16
24 -10 62 -59 87 -20 10 -39 21 -42 24 -3 3 -17 11 -31 18 -14 8 -82 70 -150
138 l-123 125 -64 -2 c-46 -2 -66 2 -73 12 -5 8 -4 18 1 23 17 17 11 24 -49
66 -45 30 -59 45 -56 60 4 18 -17 50 -33 50 -30 0 -87 90 -113 177 -9 32 -20
46 -46 58 -18 9 -44 33 -57 53 -34 54 -58 78 -83 86 -25 8 -30 35 -11 54 9 9
9 12 -2 13 -8 1 -22 2 -30 3 -21 2 -44 54 -31 70 8 10 -1 18 -39 36 -59 28
-69 38 -100 110 -25 58 -66 110 -85 110 -34 0 -78 127 -57 166 16 31 -7 88
-38 93 -14 1 -28 7 -31 13 -10 16 10 102 26 111 9 4 15 22 15 41 0 29 -5 35
-40 51 -35 16 -39 21 -36 49 3 23 -2 37 -21 53 -13 13 -29 21 -34 18 -8 -6
-13 21 -10 51 0 5 -19 28 -42 50 -43 40 -44 42 -42 98 2 55 5 60 54 110 28 28
51 56 51 62 0 13 -150 164 -162 164 -5 0 -20 -7 -33 -16 -14 -9 -25 -12 -25
-8 0 5 -4 3 -9 -4 -4 -7 -14 -14 -22 -15 -8 -2 -20 -6 -27 -11 -17 -10 -84
-16 -97 -7 -5 3 -14 6 -19 6 -16 0 -44 58 -51 105 -4 24 -8 47 -10 50 -2 3 -6
22 -9 43 -10 65 -37 96 -91 104 -29 5 -45 31 -35 56 5 12 12 40 16 62 4 22 8
47 10 55 1 8 5 27 8 42 12 53 13 170 2 181 -6 7 -20 29 -31 50 -11 20 -23 37
-26 37 -10 0 1 96 26 219 3 16 -6 41 -25 73 -17 27 -30 50 -30 53 0 2 -13 24
-29 48 -17 24 -32 56 -35 73 -2 16 -5 30 -6 32 -3 2 -7 17 -9 30 0 4 -13 15
-29 25 -56 34 -55 30 -33 85 11 28 17 52 13 54 -4 2 -14 19 -23 38 -19 40 -26
21 75 198 32 56 62 105 67 108 5 3 7 10 4 15 -4 5 -2 9 4 9 22 0 32 106 17
178 -4 17 4 33 29 58 29 28 35 43 39 87 3 28 5 54 6 57 2 3 2 9 1 14 -1 5 1
16 5 25 4 9 8 21 9 26 2 6 11 39 20 75 9 36 19 73 21 83 10 43 14 64 19 92 29
173 45 248 57 263 14 17 47 51 198 207 94 96 95 98 100 153 5 56 5 57 38 58
50 2 52 3 52 19 0 8 5 15 10 15 6 0 10 5 10 11 0 6 10 24 21 41 16 22 22 47
24 97 3 71 16 117 43 141 15 13 97 83 160 136 12 10 35 21 50 24 16 3 35 18
47 37 11 18 32 35 48 38 24 6 28 11 25 38 -2 23 1 32 12 33 26 1 60 15 60 25
0 5 18 8 39 6 31 -3 41 1 44 15 3 10 12 18 21 18 15 0 62 25 76 40 3 3 39 28
80 56 41 28 106 72 143 98 44 29 79 46 98 46 40 0 68 16 79 46 8 20 16 24 48
24 21 0 63 7 93 16 30 9 54 15 55 13 3 -13 34 28 34 45 0 20 5 22 49 21 27 -1
55 -6 63 -12 7 -6 36 -10 63 -9 28 1 62 -2 78 -6 24 -6 34 0 85 52 49 51 66
61 112 71 34 7 68 23 89 41 40 36 67 46 134 54 39 5 60 14 84 36 31 30 33 30
75 19 24 -6 52 -14 63 -17 11 -3 56 -7 100 -10 44 -2 86 -6 93 -9 6 -2 12 -1
12 3 0 4 21 20 47 37 33 21 63 31 98 32 205 12 218 13 284 32 18 6 48 22 66
36 19 14 38 25 44 25 6 0 11 4 11 8 0 9 57 45 85 53 11 3 26 1 33 -4 7 -6 12
-6 12 0 0 10 349 11 366 1 33 -21 256 -32 299 -14 40 17 119 13 168 -8 30 -13
78 -18 210 -20 95 -2 183 -7 197 -10 14 -3 40 -8 59 -11 18 -2 41 -7 50 -9 9
-3 30 -8 46 -10 17 -3 62 -13 100 -21 39 -9 81 -18 95 -20 14 -2 34 -6 45 -8
11 -3 63 -15 115 -27 52 -13 124 -37 160 -55 36 -17 79 -31 95 -31 17 1 48 -8
70 -20 22 -11 79 -42 127 -67 68 -37 100 -48 150 -53 74 -7 81 -11 96 -63 15
-48 28 -59 78 -67 21 -3 46 -10 55 -15 9 -4 19 -6 22 -3 5 5 47 -20 207 -125
30 -20 59 -36 65 -37 5 0 16 -2 24 -2 7 -1 11 -8 8 -16 -3 -8 1 -22 8 -33 8
-10 15 -14 15 -9 0 5 6 3 14 -3 8 -7 30 -13 50 -15 20 -2 50 -9 66 -16 25 -10
30 -18 30 -46 0 -20 5 -34 13 -34 32 -1 94 -13 109 -21 10 -5 32 -31 50 -57
36 -53 48 -66 65 -69 19 -4 236 -224 279 -283 22 -30 52 -72 67 -92 19 -26 38
-39 61 -43 18 -4 33 -12 33 -18 -1 -43 5 -56 33 -67 16 -7 27 -16 24 -21 -3
-5 0 -9 7 -9 7 0 10 -3 6 -6 -3 -4 2 -23 12 -43 10 -20 24 -54 31 -76 7 -22
18 -45 25 -52 7 -6 37 -49 68 -95 61 -93 84 -174 92 -330 7 -127 11 -140 49
-166 l34 -23 -3 -112 c-2 -95 -7 -122 -30 -177 -27 -66 -29 -91 -9 -200 4 -19
6 -55 5 -80 0 -25 0 -56 0 -70 4 -56 2 -140 -4 -225 -13 -187 -16 -226 -26
-302 -6 -43 -13 -103 -16 -133 -12 -109 -33 -222 -43 -232 -4 -3 -16 -8 -27
-10 -16 -2 -21 -12 -23 -48 -4 -71 -11 -90 -37 -100 -13 -5 -32 -22 -41 -37
-28 -44 -48 -60 -121 -99 -210 -110 -222 -120 -205 -168 22 -59 15 -76 -52
-142 -35 -35 -69 -64 -75 -64 -7 0 -37 -16 -67 -35 -30 -19 -57 -35 -60 -35
-6 0 -72 -48 -92 -67 -9 -9 -19 -10 -32 -3 -29 15 -55 12 -80 -10 -13 -11 -27
-20 -32 -20 -5 0 -32 -15 -61 -33 -87 -55 -150 -85 -187 -90 -34 -4 -169 -69
-180 -86 -6 -10 -41 -11 -35 -1 6 10 -25 50 -39 50 -7 0 -41 -18 -75 -40 -73
-47 -141 -83 -141 -74 0 4 -6 1 -14 -5 -24 -20 -172 -23 -235 -5 -31 8 -63 15
-71 15 -8 -1 -32 -1 -52 -1 -20 0 -50 -5 -65 -12 -83 -33 -178 -46 -336 -42
-128 2 -134 1 -150 -20 -15 -19 -25 -22 -63 -19 -25 3 -65 10 -89 18 -36 10
-97 9 -132 -4 -2 -1 -16 -1 -33 -1 -16 0 -30 -4 -30 -8 0 -19 91 -102 112
-103 13 0 32 -3 43 -5 11 -3 61 -7 110 -10 109 -6 115 -8 110 -34 -4 -23 -11
-22 130 -26 163 -4 218 -9 240 -21 13 -8 27 -8 44 -1 15 6 49 12 76 14 53 4
130 15 155 21 8 2 67 4 130 4 146 0 164 4 157 30 -7 24 26 40 69 33 16 -2 66
-6 112 -7 l83 -4 14 34 c8 18 19 33 24 34 6 0 26 1 44 2 17 0 50 10 72 23 39
21 90 38 150 48 27 5 58 31 67 56 2 5 12 11 23 13 71 13 286 97 316 123 10 9
27 12 46 8 25 -5 33 -1 58 33 45 60 85 91 148 115 56 22 61 29 60 76 -1 6 8
12 18 12 10 0 19 6 19 14 0 36 146 181 194 193 28 7 143 49 158 58 12 7 18 26
19 60 4 67 20 81 99 88 46 4 68 11 77 24 12 15 11 20 -2 29 -27 20 -18 37 16
30 55 -11 74 15 93 124 3 14 8 36 11 50 3 14 8 56 12 93 l6 68 85 83 c75 74
83 86 73 104 -24 45 -8 83 34 85 21 2 31 10 42 34 7 18 21 37 30 42 41 24 55
41 63 76 7 33 6 37 -16 47 -13 6 -24 16 -25 22 0 6 -3 20 -6 31 -3 11 -7 56
-8 100 -2 44 -4 83 -4 87 -1 4 -10 5 -21 3 -19 -4 -21 0 -19 48 2 43 8 56 33
79 l29 27 -16 48 c-9 26 -28 80 -41 118 -41 114 -32 192 26 217 21 10 28 20
29 43 1 64 8 149 13 161 3 7 -2 12 -13 11 -55 -4 -154 97 -191 196 -20 52 -25
141 -13 225 8 64 76 59 153 -10 23 -21 47 -38 53 -39 7 0 20 -2 30 -4 13 -2
19 5 23 25 9 40 55 46 96 12 40 -34 78 -38 78 -8 0 14 10 28 25 36 21 11 25
20 25 62 0 31 -4 49 -12 50 -7 0 -20 1 -28 2 -11 1 -20 25 -31 84 -9 45 -18
84 -20 86 -2 2 -22 7 -44 13 -39 8 -40 10 -40 49 0 23 -6 48 -14 57 -10 13
-11 23 -2 44 17 43 9 59 -57 126 -34 34 -61 64 -61 67 1 9 -12 45 -22 60 -5 8
-12 22 -15 31 -3 9 -38 38 -77 65 -80 54 -87 61 -80 80 6 17 -15 54 -32 54 -7
0 -44 34 -82 75 -38 41 -75 75 -81 75 -6 0 -35 24 -64 53 -29 29 -86 82 -127
117 -41 36 -80 71 -88 78 -7 8 -41 16 -74 19 -45 3 -75 13 -110 34 -42 27 -47
33 -39 53 14 38 -1 47 -86 50 -73 3 -92 8 -164 39 -14 6 -28 11 -31 11 -11 2
-68 52 -155 136 -46 44 -93 81 -104 81 -11 1 -24 3 -30 4 -5 1 -14 3 -20 4 -5
0 -10 9 -10 19 -1 9 -14 33 -31 52 -28 32 -31 34 -43 18 -7 -10 -18 -18 -24
-18 -6 0 -13 -9 -17 -20 -5 -17 -13 -19 -48 -14 -23 2 -64 13 -92 23 -27 10
-77 21 -110 25 -90 10 -90 10 -118 38 -14 14 -52 38 -84 53 -156 71 -168 80
-164 113 2 9 -6 12 -21 11 -27 -4 -68 11 -211 75 -32 14 -60 26 -62 26 -5 0
-105 44 -141 61 -18 9 -82 17 -154 19 -19 0 -29 9 -42 40 -19 46 -40 51 -104
24 -81 -34 -105 -30 -188 28 -34 25 -48 28 -113 28 -51 0 -85 -6 -111 -18 -44
-22 -122 -21 -277 4 -16 3 -51 7 -78 9 -41 4 -93 28 -117 55 -3 3 -17 11 -32
19 -16 8 -28 18 -28 23 0 4 -6 8 -13 8 -7 0 -24 11 -39 25 -26 24 -59 32 -158
40 -19 1 -40 3 -47 4 -6 0 -13 11 -15 24 -3 24 -25 28 -66 15 -29 -10 -157
-12 -192 -3 -14 3 -34 8 -45 10 -11 2 -38 9 -60 15 -22 6 -66 13 -97 15 -31 2
-61 5 -65 7 -4 2 -24 2 -44 0z"/>
<path d="M6050 6210 c0 -32 67 -87 105 -85 28 1 55 -13 55 -29 0 -14 243 -262
273 -278 13 -6 17 -17 13 -30 -8 -34 5 -76 25 -81 10 -3 22 -13 25 -24 8 -26
22 -54 42 -88 11 -16 20 -34 22 -40 1 -5 6 -20 11 -33 5 -13 9 -26 9 -30 0
-16 56 -62 77 -62 44 0 89 -34 99 -76 4 -16 19 -47 33 -69 14 -22 26 -42 26
-45 0 -3 4 -11 8 -17 5 -7 6 -13 2 -13 -3 0 0 -10 7 -22 7 -13 13 -25 13 -28
1 -3 11 -21 23 -40 12 -19 32 -56 44 -82 12 -27 25 -48 29 -48 18 0 48 60 54
110 4 30 9 57 11 59 2 2 -1 11 -6 21 -17 32 -20 70 -4 70 22 0 17 14 -27 68
-36 46 -80 157 -88 223 -1 4 -14 12 -31 19 -24 10 -30 19 -30 41 0 19 5 29 15
29 15 0 15 2 1 69 -3 13 -18 42 -33 64 -16 22 -32 47 -38 55 -5 9 -19 26 -30
40 -11 13 -21 28 -21 33 -1 5 -2 15 -3 23 0 7 -20 26 -43 42 -23 16 -50 37
-60 47 -10 9 -22 17 -26 17 -5 0 -17 8 -28 18 -51 45 -91 66 -127 67 -21 1
-46 8 -55 16 -72 58 -84 63 -175 66 -61 2 -93 8 -104 18 -16 17 -15 16 -60 20
-25 2 -33 -2 -33 -15z"/>
<path d="M5870 6120 c0 -5 -9 -10 -19 -10 -23 0 -68 -38 -72 -60 -2 -8 1 -26
5 -38 6 -18 13 -22 29 -18 12 3 25 6 29 6 4 0 19 26 34 58 15 31 29 60 31 65
2 4 -5 7 -16 7 -12 0 -21 -4 -21 -10z"/>
<path d="M4334 6065 c-17 -13 -30 -32 -29 -43 2 -25 56 -72 83 -72 12 0 25 -7
30 -17 8 -13 27 -17 101 -18 70 -1 95 -5 108 -18 26 -24 103 -80 136 -96 15
-8 27 -19 27 -25 0 -6 23 -27 52 -46 87 -59 149 -110 143 -120 -8 -13 6 -40
21 -40 8 0 13 -5 11 -12 -1 -6 10 -18 26 -25 15 -8 35 -25 43 -39 17 -26 59
-33 67 -11 6 18 37 -10 37 -34 0 -10 9 -21 20 -24 11 -3 20 -12 20 -20 0 -21
29 -45 55 -45 26 0 42 31 28 52 -4 7 -9 24 -11 38 -1 14 -12 37 -22 52 -11 15
-20 32 -20 38 0 5 -4 10 -8 10 -4 0 -21 24 -36 54 -16 31 -34 52 -40 50 -7 -3
-17 6 -23 19 -6 13 -29 45 -52 71 -23 26 -41 56 -41 67 0 10 -10 28 -22 38
-13 11 -36 32 -53 46 -36 32 -85 58 -86 48 -1 -5 -4 3 -8 16 -6 24 -14 27 -78
34 -21 2 -44 16 -64 37 -47 49 -74 60 -115 47 -19 -6 -34 -13 -34 -16 0 -3
-19 -5 -42 -4 -24 1 -63 3 -88 4 -25 1 -54 8 -65 16 -27 18 -35 17 -71 -12z"/>
<path d="M4080 6051 c0 -6 -7 -11 -15 -11 -9 0 -18 -12 -22 -30 -3 -17 -10
-33 -14 -36 -5 -3 -7 -9 -4 -14 3 -5 -3 -14 -14 -20 -13 -7 -22 -7 -26 0 -7
11 -49 -14 -51 -30 -1 -6 -2 -11 -4 -12 -1 -2 -3 -10 -5 -18 -2 -8 -7 -25 -11
-37 -8 -29 19 -32 38 -4 14 20 17 21 49 21 11 0 18 3 15 8 -6 10 14 34 47 55
15 10 27 24 27 32 0 7 9 20 21 28 29 21 23 71 -8 75 -13 2 -23 -1 -23 -7z"/>
<path d="M5669 6017 c-15 -18 -43 -60 -63 -94 -20 -34 -48 -68 -63 -75 -14 -7
-27 -21 -29 -31 -1 -9 -18 -40 -38 -67 -39 -54 -50 -120 -21 -120 20 0 19 -19
-5 -55 -26 -39 -25 -60 2 -79 30 -21 31 -21 50 12 22 38 30 102 12 102 -8 0
-14 5 -14 11 0 13 46 59 58 59 4 0 16 15 27 33 10 17 21 34 24 37 10 8 107
153 128 190 18 32 21 63 8 98 -8 22 -49 11 -76 -21z"/>
<path d="M3752 5572 c-29 -26 -52 -53 -52 -60 0 -7 -9 -30 -19 -50 -19 -37
-23 -58 -36 -167 -11 -85 -16 -109 -26 -121 -18 -21 -19 -57 -3 -76 21 -22 12
-58 -21 -94 -64 -69 -58 -220 20 -485 17 -59 34 -88 65 -114 66 -54 73 -62 74
-93 1 -36 45 -87 92 -107 17 -7 54 -39 80 -71 45 -54 57 -61 96 -55 15 2 -16
62 -45 87 -36 30 -64 87 -62 126 1 15 -4 29 -11 32 -10 4 -11 22 -7 70 3 38 1
71 -4 78 -6 7 -10 33 -10 57 -1 32 -6 49 -20 61 -14 11 -18 24 -15 50 2 19 7
39 11 45 5 5 7 58 6 118 -2 65 1 107 7 107 6 0 8 16 6 35 -2 19 -1 35 3 35 7
0 5 28 -7 78 -2 13 -16 41 -29 61 -21 35 -23 47 -21 142 2 64 10 127 21 164
21 69 27 176 11 187 -24 17 -54 5 -104 -40z"/>
<path d="M7027 4816 c-14 -11 -15 -19 -8 -40 11 -28 5 -57 -15 -69 -13 -7 -13
-19 1 -51 6 -14 3 -23 -11 -33 -15 -11 -19 -25 -17 -65 1 -48 13 -67 39 -68
20 0 37 55 25 78 -8 16 -7 21 5 26 10 4 13 13 9 26 -4 13 0 31 9 45 10 16 14
34 10 50 -4 16 0 30 11 42 17 16 17 18 -4 31 -11 8 -21 21 -21 28 0 17 -10 17
-33 0z"/>
<path d="M6877 4273 c-4 -3 -7 -19 -7 -35 0 -24 -3 -28 -18 -24 -26 9 -40 -6
-139 -139 -49 -66 -105 -133 -124 -149 -19 -15 -52 -45 -74 -65 -22 -21 -63
-57 -91 -82 -28 -25 -49 -50 -47 -56 2 -5 -23 -37 -57 -70 -33 -33 -60 -65
-60 -70 0 -26 195 21 208 50 2 4 8 7 12 7 8 0 69 37 95 58 6 4 26 17 45 29 31
19 56 46 115 121 5 7 17 21 25 31 61 69 93 116 105 151 1 3 7 19 15 35 25 59
38 112 30 125 -8 13 -2 48 11 66 5 6 6 14 2 17 -8 9 -38 9 -46 0z"/>
<path d="M4222 3521 c-11 -6 -10 -11 3 -25 9 -9 20 -16 25 -16 4 0 13 -14 21
-31 12 -29 103 -99 129 -99 5 0 10 -4 10 -8 0 -4 19 -18 43 -30 23 -13 51 -28
62 -35 82 -49 103 -63 123 -81 13 -11 37 -21 54 -22 17 -1 34 -7 38 -14 4 -7
24 -13 44 -14 20 0 41 -8 46 -15 15 -25 50 -21 57 7 8 31 -24 61 -61 57 -19
-2 -31 6 -50 34 -16 23 -41 42 -63 50 -21 8 -78 38 -128 67 -49 29 -106 56
-125 59 -19 3 -37 11 -39 16 -7 22 -42 45 -86 58 -25 7 -50 22 -56 32 -10 20
-26 24 -47 10z"/>
<path d="M5133 3322 c-15 -2 -23 -10 -23 -22 0 -22 35 -44 56 -36 32 12 3 63
-33 58z"/>
<path d="M3730 321 c0 -16 6 -21 25 -21 16 0 25 6 25 15 0 8 -4 15 -9 15 -5 0
-16 3 -25 6 -12 4 -16 0 -16 -15z"/>
<path d="M3976 233 c-8 -21 -9 -20 21 -48 28 -25 57 -32 67 -17 6 10 -30 72
-41 73 -5 0 -16 2 -25 4 -9 2 -19 -4 -22 -12z"/>
</g>
</svg>
