<?xml version="1.0" encoding="UTF-8" standalone="no"?>
<svg width="150px" height="34px" viewBox="0 0 150 34" version="1.1" xmlns="http://www.w3.org/2000/svg" xmlns:xlink="http://www.w3.org/1999/xlink">
    <!-- Generator: Sketch 3.8.3 (29802) - http://www.bohemiancoding.com/sketch -->
    <title>Group 2</title>
    <desc>Created with Sketch.</desc>
    <defs>
        <linearGradient x1="-11.9792709%" y1="100%" x2="58.9502737%" y2="100%" id="linearGradient-1">
            <stop stop-color="#555555" offset="0%"></stop>
            <stop stop-color="#999999" offset="100%"></stop>
        </linearGradient>
    </defs>
    <g id="Page-1" stroke="none" stroke-width="1" fill="none" fill-rule="evenodd">
        <g id="Group-2" fill="url(#linearGradient-1)">
            <path d="M73.3645933,18.1408696 L73.3645933,28.8469565 L92.6710652,28.8469565 L92.6710652,32.4156522 L72.3250141,32.4156522 L69.8003216,32.4156522 L69.8003216,18.6898145 C65.1563495,22.19497 57.6223931,21.4121739 57.6223931,21.4121739 L53.1670535,21.4121739 L53.1670535,0.594782609 L57.6223931,0.594782609 C57.6223931,0.594782609 65.1563495,-0.188013423 69.8003216,3.3171422 L69.8003216,0.594782609 L72.1765027,0.594782609 L92.3740426,0.594782609 L92.3740426,4.16347826 L73.3645933,4.16347826 L73.3645933,14.5721739 L90.2948841,14.5721739 L90.2948841,18.1408696 L73.3645933,18.1408696 Z M49.6027817,0.625693721 L53.1670535,0.625693721 L53.1670535,32.4465633 L49.6027817,32.4465633 L49.6027817,0.625693721 Z M53.1670535,13.68 L53.1670535,5.79913043 L53.1670535,3.91647564 L59.404529,3.91647564 C59.404529,3.91647564 69.486509,2.81198483 69.486509,10.9450533 C69.486509,19.0781218 58.6619724,17.9736312 58.6619724,17.9736312 L53.1670535,17.9736309 L53.1670535,13.68 Z" id="Combined-Shape"></path>
            <path d="M24.6528795,1.58673933 L24.6528795,0.594782609 L21.0886078,0.594782609 L21.0886078,5.66720152 C20.517316,6.91131111 20.1975399,8.3037863 20.1975399,9.77377968 C20.1975399,11.2437731 20.517316,12.6362483 21.0886078,13.8803579 L21.0886078,14.5721739 L3.56427174,14.5721739 L3.56427174,18.1408696 L21.0886078,18.1408696 L21.0886078,32.4156522 L24.6528795,32.4156522 L24.6528795,18.6144922 C25.7562199,19.8490703 27.3872233,21.6653879 28.5167845,22.8848998 C31.9937102,26.6387045 38.113592,32.6821324 38.113592,32.6821324 C38.113592,32.6821324 42.0685294,28.6289954 47.6216639,22.622359 C48.7484009,21.403606 50.8668099,19.1129813 51.9332782,17.8283764 C52.1109399,17.6143755 52.2852263,17.4053299 52.456173,17.2011401 L52.456173,17.2011401 C54.6915029,15.4575176 56.1372799,12.6823248 56.1372799,9.5566551 C56.1372799,4.2786598 52.0148513,-4.32005477e-07 46.9295779,0 C42.7951325,3.51230489e-07 39.297134,2.82822381 38.1335866,6.72231534 C36.9067623,2.94065928 33.4624463,0.217124242 29.4052419,0.217124587 C27.6664481,0.217124734 26.0402246,0.717361288 24.6528795,1.58673933 Z M0,0.594782609 L3.56427174,0.594782609 L3.56427174,32.4156522 L0,32.4156522 L0,0.594782609 Z" id="Combined-Shape"></path>
            <path d="M127.036307,31.2192883 L128.708202,30.0829637 C129.07164,29.8288693 129.438084,29.5808368 129.7895,29.3199228 C129.966084,29.1916127 130.140164,29.0610294 130.304224,28.9274151 C130.4763,28.7922854 130.593773,28.6675114 130.764847,28.5025774 C131.398296,27.8698672 132.078835,27.2889357 132.753112,26.7016897 C133.432398,26.1192427 134.104671,25.5322493 134.807001,24.9730396 C134.951275,24.8581162 135.160922,24.8828689 135.274887,25.028607 C135.383092,25.1665151 135.365309,25.3645369 135.240322,25.4827439 L133.293886,27.3104049 C132.644657,27.9198778 132.010456,28.5455158 131.337682,29.1284679 C131.185143,29.2709225 130.973241,29.4477277 130.784133,29.57528 C130.633473,29.680384 130.482965,29.7785341 130.332012,29.873719 C130.347746,29.9574479 130.335915,30.0469844 130.292202,30.1276701 C130.289697,30.1324691 130.286942,30.1370156 130.284437,30.141562 L130.276171,30.1549487 C129.991633,30.6285341 129.747671,31.2051718 129.722373,31.7247266 C129.717864,31.7853456 129.724126,31.8734956 129.724376,31.8623821 C129.723875,31.8525316 129.687807,31.8161602 129.682046,31.8214643 C129.684551,31.834851 129.827071,31.8363665 129.947549,31.8027735 C130.205037,31.7411443 130.483314,31.6196538 130.751321,31.4913437 C131.291344,31.2279039 131.819845,30.9124328 132.339078,30.5855957 C132.85781,30.2569905 133.371283,29.9114626 133.870478,29.5548212 L133.872482,29.5535583 C133.962652,29.4891506 134.087639,29.5106198 134.15151,29.6015483 C134.213628,29.6899509 134.194842,29.8116939 134.111184,29.877617 C133.618,30.2648205 133.118804,30.6351012 132.605833,30.9937632 C132.09211,31.3506572 131.570122,31.6969429 131.009811,32.0030686 C130.726274,32.1536056 130.441234,32.2998488 130.100839,32.4001226 C130.014175,32.4238651 129.925006,32.4458394 129.82156,32.4559426 C129.718115,32.4637725 129.601894,32.4705922 129.453614,32.4167929 C129.303329,32.36754 129.147534,32.2084152 129.107458,32.0465122 C129.064627,31.8856194 129.072141,31.8148973 129.067382,31.7204328 C129.062874,31.3557088 129.13476,31.0152324 129.233948,30.6931943 C129.257793,30.6177133 129.282719,30.543771 129.309036,30.4708428 C129.216497,30.5217306 129.123626,30.5718746 129.030312,30.6212093 C128.634062,30.8316076 128.235808,31.0361965 127.836301,31.2375019 C127.432035,31.4302196 127.031277,31.6274837 126.619747,31.8058045 C126.555876,31.8338407 126.481736,31.8047941 126.454184,31.7403865 C126.449965,31.7305768 126.447079,31.7205209 126.445439,31.7104227 C126.042696,31.9997521 125.595572,32.2294502 125.088097,32.3629935 C124.981144,32.3877463 124.871436,32.4064371 124.757471,32.4165403 C124.699862,32.4213393 124.644006,32.4248754 124.581638,32.4238651 C124.539308,32.4236125 124.476689,32.4205815 124.414571,32.4162877 C124.189144,32.3953236 123.973486,32.3395037 123.773858,32.258931 C123.57423,32.1781058 123.38963,32.074801 123.218556,31.9565941 C123.132894,31.8977432 123.050739,31.8345985 122.97209,31.7679176 C122.932515,31.7345772 122.893942,31.7002265 122.855619,31.6648654 L122.799012,31.6103084 C122.788993,31.6017207 122.783232,31.588334 122.781729,31.5698957 C122.780978,31.5605503 122.781729,31.5496894 122.784234,31.5370605 L122.791247,31.5140758 L122.795255,31.5024572 C122.803894,31.5107903 122.792192,31.4965283 122.779891,31.4745313 C122.722086,31.5135994 122.664091,31.5524623 122.605896,31.5911124 C122.311088,31.7840827 122.009767,31.9699808 121.692166,32.138956 C121.368303,32.3018694 121.051703,32.4716025 120.621889,32.5327266 C120.51143,32.5428297 120.387946,32.5473762 120.244925,32.5011542 C120.213115,32.4913036 120.16828,32.4723602 120.123946,32.4468497 L120.092136,32.4263909 L120.063582,32.4064371 L120.049054,32.3953236 C120.010481,32.3655193 119.972159,32.3344521 119.934588,32.3013643 C119.786056,32.1697707 119.639779,32.0103934 119.5451,31.7934281 C119.444409,31.5802515 119.443157,31.2953425 119.545851,31.0869649 C119.6508,30.8773244 119.805844,30.7343647 120.004971,30.6555601 C120.071347,30.6292919 120.145988,30.6623797 120.172037,30.7293131 C120.185563,30.7636638 120.183309,30.8002878 120.168781,30.831355 L120.157259,30.8561077 C120.091134,30.9983097 120.026762,31.1397539 120.011734,31.257203 C119.991946,31.3751574 120.005973,31.46356 120.050307,31.5671174 C120.096645,31.6694118 120.188318,31.7747372 120.300781,31.868444 C120.347119,31.9103721 120.451316,31.9815994 120.419756,31.9538157 C120.441297,31.9611405 120.495149,31.9639189 120.555263,31.9558363 C120.811999,31.9174443 121.12409,31.7646341 121.408379,31.6077826 C121.697676,31.4456269 121.982215,31.262002 122.261995,31.0697895 C123.381615,30.29513 124.438867,29.4057996 125.489106,28.5144486 C126.538093,27.6198141 127.566791,26.6973959 128.583215,25.7613384 C129.604399,24.8310903 130.619071,23.8884658 131.613203,22.9327071 L131.614957,22.9309391 C131.757727,22.7935362 131.984156,22.7990929 132.120414,22.9430629 C132.256421,23.0865277 132.251412,23.3138487 132.109894,23.4515042 C131.111754,24.4224176 130.103595,25.3741349 129.079405,26.3137285 C128.909603,26.4673432 128.739453,26.6206009 128.568907,26.7734484 C128.794826,27.5075347 128.730317,28.274391 128.499807,28.9822248 C128.23731,29.7831525 127.754646,30.4830487 127.196089,31.063475 C127.143602,31.1162442 127.090359,31.1682228 127.036307,31.2192883 L127.036307,31.2192883 Z M128.060934,27.2263591 C127.362538,27.8457081 126.656745,28.4573704 125.94021,29.0577458 C125.010782,29.8304409 124.064912,30.5846512 123.064027,31.2798234 C123.070206,31.2810711 123.07536,31.28355 123.079293,31.2872599 L123.132143,31.3261571 L123.241851,31.4006679 C123.316492,31.4486579 123.393137,31.4933643 123.471536,31.5332718 C123.627831,31.6135919 123.789888,31.6774944 123.952947,31.7194225 C124.115255,31.7616031 124.279065,31.7795362 124.435611,31.7734744 L124.555087,31.762866 C124.58815,31.7588248 124.627725,31.7515 124.664545,31.74367 C124.739937,31.7272524 124.816833,31.7040152 124.893979,31.6757263 C125.205068,31.56737 125.5124,31.3893018 125.794935,31.1801665 C126.082229,30.9788611 126.354244,30.7381534 126.591945,30.4825435 C127.089888,29.9538958 127.505424,29.3643767 127.769174,28.7134808 C127.898669,28.3881591 127.991846,28.0484405 128.032172,27.7011445 C128.055048,27.5469753 128.063894,27.3855775 128.060934,27.2263591 L128.060934,27.2263591 Z M122.995059,31.3275712 C122.993603,31.3285761 122.992147,31.3295808 122.99069,31.3305854 C123.003786,31.3505404 123.011414,31.3744588 123.011414,31.4001627 C123.018957,31.3781169 123.006466,31.3486351 122.995059,31.3275712 L122.995059,31.3275712 Z M141.662604,29.1105985 C141.790894,28.946447 141.919595,28.7877471 142.047463,28.643769 C142.290172,28.3694683 142.585982,28.0906212 142.871523,27.8155627 L143.743675,26.9850833 C144.330035,26.4331983 144.910885,25.8681793 145.479963,25.2917942 L145.481215,25.2910365 C145.57915,25.191773 145.596433,25.033406 145.515029,24.9139362 C145.423105,24.779059 145.240008,24.7449609 145.106255,24.8376573 C144.435735,25.3024025 143.787257,25.7916479 143.158567,26.3101924 C142.525618,26.8337885 141.917466,27.3465237 141.319083,27.9822648 C140.753011,28.6475577 140.308419,29.3075464 139.854059,29.9938033 C139.403957,30.6752612 138.984913,31.3738945 138.591668,32.0919764 C138.522036,32.2192761 138.549589,32.3826947 138.665057,32.4781695 C138.795304,32.5860207 138.987167,32.5670773 139.09412,32.4357363 L139.095122,32.434726 C139.53934,31.8892518 139.973564,31.335411 140.396812,30.7768332 C141.973322,29.5136568 143.515856,28.2095685 145.132304,27.0247382 C145.56287,26.7110351 145.999196,26.4059198 146.442786,26.1265675 C146.664456,25.9873965 146.88838,25.85454 147.112554,25.737596 C147.332471,25.6229252 147.568918,25.5143162 147.749761,25.4769346 C147.792842,25.4678417 147.829412,25.4658211 147.841184,25.4678417 C147.845693,25.468852 147.845943,25.4698623 147.831416,25.4668314 L147.819142,25.4630427 L147.816137,25.4617798 C147.815636,25.4615272 147.801108,25.4549602 147.810376,25.459254 L147.821647,25.4648108 C147.83392,25.4713778 147.857966,25.4822387 147.85997,25.4845119 C147.92359,25.5191152 147.969176,25.5681155 147.963165,25.5729145 C147.960159,25.5761981 147.966421,25.5784713 147.949639,25.6441418 C147.932607,25.7045082 147.890277,25.7929108 147.832918,25.8820711 C147.592713,26.249826 147.204729,26.6213696 146.823256,26.9719492 C146.051795,27.6870001 145.169374,28.3207206 144.412692,29.1337721 C144.030217,29.5373932 143.650749,29.9528855 143.324631,30.461832 C143.166081,30.7197151 143.011037,31.001088 142.941656,31.3688429 C142.925375,31.4607817 142.916358,31.5587823 142.919364,31.6605716 L142.921117,31.6989636 L142.923872,31.7411443 L142.925625,31.7537732 L142.932388,31.8040364 C142.932639,31.8128767 142.940654,31.8563202 142.948168,31.8891555 C142.956183,31.9227485 142.963197,31.9586147 142.974969,31.9894293 C143.013291,32.1091517 143.096198,32.2490805 143.216927,32.3480914 C143.337155,32.4488704 143.481178,32.4998913 143.595143,32.5155512 C143.831591,32.5493968 144.000912,32.5069635 144.160213,32.4670561 C144.317261,32.4233599 144.457526,32.3680451 144.591781,32.3074262 C144.859287,32.185178 145.102999,32.0447441 145.340198,31.8985009 C145.812592,31.6044991 146.25468,31.2837238 146.68775,30.953098 C147.12082,30.62323 147.538861,30.2771969 147.94989,29.9240915 L148.561047,29.389382 L148.862869,29.1178596 L149.012903,28.9809619 L149.087544,28.9120078 L149.124865,28.8774045 L149.1434,28.8599766 L149.152668,28.8513889 L149.157427,28.8468425 C149.24384,28.9026624 148.887165,28.8465899 148.956296,28.7458109 C148.956296,28.8155227 149.012402,28.8721003 149.081533,28.8721003 C149.150664,28.8721003 149.20677,28.8155227 149.20677,28.7458109 C149.272645,28.6475577 148.912713,28.5945161 148.995871,28.6528618 L148.990861,28.6566505 L148.980842,28.6642279 L148.961055,28.6793826 L148.920979,28.7096921 L148.840577,28.7700585 L148.679271,28.890286 L148.354406,29.1284679 L147.699165,29.5952338 C147.259332,29.9018646 146.81449,30.1996551 146.367143,30.4883528 C145.918543,30.7747773 145.46293,31.049078 144.999803,31.2857445 C144.768866,31.4029411 144.534422,31.51155 144.304988,31.593133 C144.190521,31.6337982 144.077306,31.6694118 143.97361,31.6896182 C143.872919,31.7103296 143.771227,31.7133606 143.741671,31.7002265 C143.723386,31.69568 143.738916,31.6921439 143.7572,31.7050255 C143.776236,31.7163915 143.785003,31.7373556 143.784251,31.727505 C143.78325,31.7267473 143.787257,31.7287679 143.786756,31.7297782 C143.787257,31.7295256 143.785754,31.7403865 143.784502,31.7153812 L143.781246,31.6646128 L143.780494,31.6519839 C143.78375,31.6969429 143.781496,31.6625922 143.782248,31.6719376 L143.782498,31.6686541 L143.78325,31.6562777 C143.785504,31.6229373 143.791265,31.5855556 143.802035,31.545143 C143.844365,31.3809667 143.958081,31.1806716 144.097845,30.99149 C144.381883,30.6080752 144.756342,30.244109 145.141071,29.8932769 C145.929314,29.2027261 146.709791,28.4631751 147.500789,27.6940723 C147.890026,27.2962605 148.284774,26.909057 148.616402,26.3571721 C148.696804,26.2149701 148.774451,26.0576135 148.82129,25.85454 C148.869882,25.6598017 148.867377,25.3716091 148.728364,25.1382262 C148.590102,24.9043382 148.406254,24.788657 148.232675,24.7025276 L148.180076,24.6787852 L148.136243,24.6603469 C148.116706,24.6527696 148.095415,24.644687 148.07663,24.6396354 C147.998231,24.6163982 147.930854,24.6105889 147.868736,24.6085682 C147.745753,24.6065476 147.64882,24.6247333 147.561154,24.6459499 C147.219507,24.7373835 146.972038,24.8760493 146.721063,25.0172409 C146.474596,25.1609583 146.242657,25.3140212 146.015727,25.4716304 C145.56287,25.787354 145.131302,26.1202531 144.706999,26.4604769 C143.658958,27.3116994 142.641775,28.1911127 141.662604,29.1105985 L141.662604,29.1105985 Z M137.507615,22.917805 C137.507615,23.2797506 137.170727,23.4967159 136.85538,23.4967159 C136.540033,23.4967159 136.39075,23.3971998 136.39075,23.0355068 C136.39075,22.6738137 136.712109,22.4864002 137.027707,22.4864002 C137.343304,22.4864002 137.507615,22.5558594 137.507615,22.917805 Z M139.05179,28.9281729 C138.412329,29.57528 137.72102,30.1731343 137.031213,30.7765454 C136.335646,31.3738945 135.634568,31.9871561 134.717081,32.3647616 C134.486645,32.4574581 134.238675,32.5339895 133.958895,32.5594999 L133.851692,32.5648041 L133.789825,32.5635412 C133.763776,32.5620257 133.721947,32.5567216 133.689385,32.5506597 C133.573165,32.5286853 133.44893,32.4668035 133.358258,32.3809266 C133.173909,32.2021008 133.127571,32.0053418 133.10052,31.8502583 C133.056937,31.5327666 133.102023,31.2741258 133.155123,31.0225572 C133.21173,30.7730093 133.29063,30.5381109 133.380801,30.3107899 C133.748497,29.4063048 134.270235,28.5975471 134.891161,27.872393 C135.203252,27.5117103 135.536884,27.1689607 135.897316,26.8560154 C136.253491,26.5483743 136.636967,26.269022 137.035221,26.0237679 C137.438234,25.7817973 137.86905,25.5868064 138.303122,25.4059599 C138.737194,25.2248608 139.172017,25.0450246 139.636146,24.9227764 C139.868085,24.8616523 140.106287,24.8121468 140.358765,24.7937086 C140.421383,24.788657 140.486006,24.786889 140.551129,24.7873941 C140.587698,24.788657 140.608738,24.7873941 140.657831,24.7911828 C140.672108,24.7924457 140.753763,24.8005282 140.792336,24.8139149 C140.886765,24.8371522 140.997224,24.8992866 141.070863,24.9927408 C141.144753,25.0851847 141.17481,25.1874791 141.187334,25.2731034 C141.208374,25.4456148 141.179319,25.5797342 141.147759,25.7065288 C141.114446,25.8328182 141.070112,25.9477417 141.022772,26.0596341 C140.927842,26.2826613 140.819136,26.4912915 140.700161,26.6928495 C140.461209,27.0944499 140.193953,27.4697822 139.931706,27.8506712 C139.663949,28.227519 139.377406,28.5937584 139.05179,28.9281729 Z M138.69812,28.5626912 C139.329065,27.9570069 139.952746,27.2891883 140.345489,26.492807 C140.44618,26.2973109 140.539106,26.0982787 140.608488,25.897731 C140.673861,25.7045082 140.722203,25.4761768 140.691895,25.3577173 C140.684882,25.3319543 140.675364,25.3236192 140.676366,25.3289233 C140.676366,25.3349852 140.68363,25.3395316 140.6681,25.3387739 C140.647812,25.3372584 140.516814,25.3498874 140.428396,25.3683256 C140.233277,25.4059599 140.032647,25.4713778 139.835774,25.5491721 C139.441778,25.7070339 139.053042,25.9068239 138.68785,26.1457635 C138.32341,26.3877341 137.981262,26.6635503 137.634856,26.9272427 C136.936534,27.4541223 136.237711,27.9554915 135.636572,28.5685005 C135.037939,29.1789837 134.497415,29.8730706 134.148003,30.6401528 C134.062592,30.8311024 133.988702,31.0255882 133.936353,31.2175482 C133.884504,31.4062246 133.854447,31.6052568 133.868725,31.7403865 C133.873233,31.8075725 133.89778,31.8414181 133.879495,31.8212118 C133.870478,31.8133818 133.849939,31.8055519 133.844178,31.8068148 C133.839169,31.8047941 133.825142,31.8047941 133.827396,31.8063096 L133.848436,31.8078251 L133.858956,31.8085828 L133.864216,31.8088354 C133.870227,31.809088 133.831404,31.8080777 133.849688,31.8085828 L133.911556,31.8085828 C134.081878,31.8015106 134.273742,31.7570567 134.464352,31.6888604 C134.84833,31.552973 135.229301,31.3392912 135.60351,31.114496 C135.977718,30.8869224 136.350174,30.6416682 136.70209,30.3673675 C137.413437,29.8245754 138.047638,29.1860559 138.69812,28.5626912 Z M113.620631,28.9928331 C112.999705,29.6962653 112.28385,30.2453719 111.542946,30.7618958 C111.172244,31.0190211 110.793778,31.2635175 110.404791,31.4933643 C110.013801,31.7194225 109.617049,31.938661 109.174712,32.0869248 C109.064253,32.1250642 108.950287,32.1584046 108.829057,32.1854306 C108.767441,32.1975544 108.706575,32.2086678 108.636943,32.2099307 C108.567813,32.2104359 108.473634,32.2033637 108.391228,32.1644665 C108.304314,32.1265797 108.225164,32.0503008 108.178826,31.9687179 C108.130735,31.8868823 108.106188,31.8050467 108.09141,31.7285153 C108.062856,31.5746947 108.069369,31.4390599 108.079889,31.3072137 C108.134993,30.7869011 108.330363,30.3476664 108.565809,29.9427824 C109.034697,29.1325092 109.589497,28.3916952 110.247243,27.7274127 C110.412055,27.5617209 110.583379,27.4010807 110.764723,27.2475128 C110.951326,27.0891458 111.129413,26.9580573 111.307751,26.8206544 C111.667182,26.5463537 112.034127,26.2839242 112.408085,26.0262937 C112.782293,25.7694209 113.165269,25.5229039 113.565777,25.2920468 C113.970794,25.0662412 114.379067,24.8429615 114.888532,24.7219762 C115.018278,24.6949502 115.156289,24.6752491 115.311333,24.683079 C115.463871,24.6914141 115.644964,24.7313216 115.802763,24.844477 L115.85912,24.8889308 L115.891932,24.9174723 L115.907211,24.9321218 C115.922991,24.9465188 115.956054,24.9811221 115.985359,25.0134522 C116.036456,25.0730609 116.084547,25.1404994 116.124623,25.2170309 C116.206528,25.3690834 116.242346,25.5587701 116.227568,25.7247145 C116.195006,26.060897 116.047727,26.2935222 115.912221,26.4998792 C115.771203,26.7049732 115.619416,26.8845569 115.462118,27.0540373 C114.83468,27.7248869 114.184699,28.3166793 113.622134,28.9908124 L113.620631,28.9928331 Z M113.22939,28.6738259 C113.776426,27.9398316 114.419143,27.2886831 114.985215,26.6269264 C115.123226,26.4602243 115.258232,26.2952902 115.367689,26.1288407 C115.477397,25.9651696 115.556297,25.7908901 115.562558,25.675209 C115.565815,25.6173684 115.557048,25.5782187 115.533002,25.5322493 C115.52098,25.5095172 115.503947,25.4850171 115.482156,25.4597592 C115.47339,25.4511715 115.469131,25.4440993 115.443834,25.420862 L115.428555,25.4062125 C115.438323,25.4158105 115.428054,25.4072228 115.429056,25.4084857 L115.419287,25.4011609 C115.375204,25.3647895 115.218156,25.3544338 115.041572,25.4006557 C114.682392,25.4936048 114.297162,25.704003 113.932472,25.9239992 C113.564274,26.1470264 113.207348,26.401626 112.853929,26.66254 C112.501011,26.9239592 112.154354,27.1992702 111.80895,27.4738235 C111.636373,27.6124893 111.457535,27.7509025 111.306499,27.8852745 C111.149702,28.0236878 110.997664,28.1722042 110.850385,28.3267825 C110.264275,28.9476214 109.722499,29.6381722 109.273649,30.3671149 C109.061998,30.7356276 108.831812,31.0978258 108.662492,31.4494156 C108.623418,31.535545 108.590856,31.6242002 108.577831,31.6949223 C108.565809,31.7712011 108.562803,31.7989848 108.579084,31.8267685 C108.594112,31.842681 108.611395,31.8593512 108.652723,31.8671811 C108.694302,31.8760214 108.745148,31.8777894 108.793991,31.8782946 C108.89368,31.8795575 108.997877,31.8623821 109.100571,31.8361139 C109.511349,31.7211905 109.9076,31.5153387 110.283311,31.2875125 C110.660275,31.0584234 111.018203,30.7957414 111.362605,30.5179046 C111.706005,30.2385523 112.03613,29.9430349 112.35273,29.6361516 C112.669079,29.3305311 112.97566,29.0135445 113.230893,28.6728156 L113.22939,28.6738259 Z M100.541855,29.5253223 C101.023318,29.1231046 101.498489,28.7135626 101.974577,28.3050607 C103.382994,27.097986 104.767366,25.8628751 106.160754,24.6366045 L107.208488,23.7172172 C107.573179,23.4052823 107.926097,23.1234042 108.292291,22.8311704 L109.386363,21.9681083 L110.52552,21.1522784 C110.906742,20.8830292 111.267174,20.6168111 111.668184,20.3440258 L112.82813,19.5792169 C113.6041,19.0697652 114.395098,18.5754683 115.206885,18.1135014 L115.221913,18.1049137 L115.229928,18.1013776 C115.889427,17.8109119 116.546422,17.5022604 117.218695,17.2211401 C117.889715,16.9362311 118.587036,16.7084049 119.287612,16.4997747 C119.989191,16.2931652 120.709806,16.1383343 121.442694,16.086303 C122.174079,16.0309883 122.916234,16.0777154 123.635095,16.2383555 C123.702723,16.2535103 123.745304,16.3206963 123.730526,16.3888926 C123.715497,16.4570889 123.648871,16.5000273 123.581243,16.4851251 C123.580492,16.4851251 123.578989,16.48462 123.578238,16.48462 C123.495115,16.4641366 123.411586,16.4454247 123.327714,16.428462 C123.356588,16.4690422 123.359827,16.5249343 123.33152,16.5694865 C123.295703,16.625559 123.223566,16.6434921 123.166708,16.6119198 L123.147422,16.6005537 C122.962822,16.4975015 122.689304,16.4591095 122.442837,16.4588569 C122.189357,16.4583518 121.933373,16.4932077 121.680895,16.5477647 C121.174686,16.6541004 120.681252,16.8374727 120.203848,17.0549432 C119.248038,17.4936728 118.350588,18.0667743 117.488956,18.6858452 C116.623818,19.3016326 115.793746,19.9709668 114.988221,20.6693475 C114.181443,21.3667179 113.394703,22.0895987 112.62725,22.8336962 C111.860798,23.5790566 111.107622,24.338814 110.365968,25.1112003 C109.642347,25.864138 108.977839,26.7067413 108.315084,27.5463136 C107.652078,28.3874014 106.999843,29.2403604 106.355373,30.0996339 L105.394052,31.3930905 L104.917149,32.0427235 L104.67995,32.3682977 C104.635867,32.4190661 104.612072,32.4849892 104.549954,32.5223708 C104.483328,32.5567216 104.369362,32.5557113 104.160466,32.4849892 L104.158964,32.484484 C104.075055,32.4561952 104.006675,32.4031536 103.958334,32.3362202 C103.828337,32.1566366 103.793522,32.0465122 103.806546,31.9720014 C103.823829,31.9007741 103.879434,31.8578357 103.914751,31.7997426 L104.154956,31.4736632 L104.637369,30.8232725 L105.610212,29.5285529 C106.262948,28.6682692 106.921445,27.8120266 107.598477,26.9671502 C108.282773,26.128083 108.965816,25.2857323 109.745292,24.4974335 C110.50473,23.7280781 111.279698,22.9728672 112.077709,22.2421564 C113.669724,20.7777038 115.336631,19.3824579 117.152068,18.1849813 C118.065298,17.5964724 119.015096,17.0539329 120.033024,16.6472808 C120.195706,16.5830985 120.360229,16.5222966 120.526727,16.4664587 C120.137106,16.546767 119.752177,16.6533567 119.374026,16.7801373 C118.693988,17.0054377 118.049017,17.3259604 117.398034,17.6305705 L115.448092,18.5812776 L115.470885,18.5694064 C114.688904,19.0513269 113.927462,19.5696189 113.162012,20.0889211 C112.781292,20.3505929 112.396813,20.6130224 112.011083,20.8688848 C111.646643,21.1179276 111.263417,21.4058676 110.886954,21.66956 L109.754059,22.4548278 L108.651972,23.2979362 C108.29179,23.5813298 107.907312,23.8621975 107.559403,24.1433179 L106.487122,25.0253235 C105.061172,26.2099186 103.633719,27.3947663 102.230812,28.6079028 C101.529234,29.2140922 100.825902,29.8187661 100.144612,30.4489505 C99.8029646,30.7626535 99.4643234,31.0803978 99.1319439,31.4049617 L98.6360048,31.8952174 L98.3920428,32.1450179 L98.2718151,32.27156 L98.2122022,32.3352099 C98.1971738,32.3518801 98.1613559,32.3874937 98.1646121,32.3879989 C98.0028057,32.5403039 97.7495762,32.5317163 97.5985401,32.3685503 C97.4475041,32.2053843 97.4552688,31.9492693 97.6168248,31.7969642 L98.1966728,31.3786935 L98.7529763,30.9591599 C99.1059202,30.689934 99.4533703,30.4142449 99.7981716,30.1351819 L99.7593821,30.1089793 C100.417629,28.8973582 101.130729,27.7223611 101.862364,26.5574672 C102.235822,25.9803243 102.601765,25.3973722 102.993757,24.8305851 C103.386751,24.2630403 103.767472,23.690949 104.21532,23.138559 C105.08672,22.0615625 105.991183,21.0219476 106.974545,20.0515394 C107.822039,19.2078869 108.733321,18.4022963 109.734275,17.7338833 C109.201417,17.8204107 108.67876,17.9733387 108.175069,18.1733626 C107.137604,18.5855714 106.184048,19.1973175 105.315403,19.9065591 C104.881331,20.2584016 104.470554,20.6511618 104.048003,21.0325559 L102.788118,22.1802745 L100.261834,24.4696498 C98.5726348,25.9911852 96.8801798,27.5091845 95.1441423,28.981467 C94.2747459,29.7159665 93.3943287,30.4396051 92.4760898,31.1200527 C91.5593538,31.8005003 90.5905191,32.4286641 89.5588154,32.9350848 C88.5303679,33.4412529 87.4393017,33.8628071 86.2740952,34.0105658 C85.6937462,34.0797724 85.0908545,34.0772466 84.5039932,33.9231735 C83.9201375,33.7726365 83.354817,33.443021 82.9695875,32.9489766 C82.5798494,32.4582158 82.3802214,31.8507635 82.3098381,31.2546773 C82.2414586,30.6603591 82.2712651,30.0445717 82.4340734,29.4621247 C82.7662023,28.2995039 83.46728,27.3152039 84.2585283,26.4703274 C84.6585358,26.0480155 85.0883498,25.6565182 85.5439625,25.2996242 C86.0013287,24.9434879 86.515302,24.6689346 87.02652,24.407768 C87.5359848,24.1433179 88.0449486,23.8743213 88.5962426,23.6937274 C89.1405233,23.5189428 89.6905649,23.3696687 90.2513769,23.2575236 C90.8114375,23.1463889 91.382018,23.073141 91.957107,23.0749091 C92.5296913,23.0746565 93.1180555,23.149925 93.6538201,23.396442 C94.1905865,23.636392 94.6391861,24.0852247 94.8803928,24.6287746 C95.122852,25.174345 95.1969924,25.7724519 95.1326205,26.3682856 L94.8849014,26.3298936 C94.9552846,25.7954366 94.8991784,25.217536 94.6865257,24.7159143 C94.478632,24.2079781 94.0698579,23.8008209 93.5716645,23.5755205 C93.073972,23.3446633 92.5121581,23.2686371 91.957107,23.2681319 C91.3995512,23.2724258 90.8427468,23.3537562 90.2944585,23.4709528 C89.7464207,23.5891597 89.2038933,23.7455061 88.6721363,23.9245845 C88.1496469,24.1082094 87.6391802,24.3496749 87.1695409,24.6563057 C86.7031577,24.9700087 86.2796056,25.3402894 85.8470365,25.6893534 C85.4124635,26.036902 84.9979285,26.4104662 84.617458,26.8148451 C83.8612761,27.6205718 83.2105438,28.5548612 82.9134812,29.5980122 C82.7584376,30.1135257 82.7233712,30.6590962 82.7832346,31.1980996 C82.843098,31.7315463 83.0151738,32.2490805 83.3342781,32.6557325 C83.6503767,33.0649104 84.1117504,33.3424946 84.6207142,33.478382 C85.1309304,33.6162901 85.6807215,33.6258881 86.2219965,33.5642589 C87.310057,33.4341807 88.3693129,33.0376318 89.3724625,32.5506597 C90.3798702,32.0616669 91.323908,31.4511837 92.2336307,30.7848805 C93.1436039,30.1183247 94.0230192,29.4040315 94.8929165,28.6776146 C96.6302064,27.2207394 98.3299252,25.713601 100.026137,24.2029265 L102.563943,21.9287059 L103.830091,20.7883121 C104.252891,20.4107067 104.666425,20.0194619 105.116777,19.6580215 C106.009718,18.9381716 106.996838,18.3216264 108.072124,17.9058815 C108.609391,17.699272 109.167949,17.5429256 109.739531,17.4600798 C109.922276,17.4351444 110.105224,17.4154091 110.288804,17.4041696 L108.796746,17.1084899 C107.761285,16.910468 106.721316,16.7440185 105.677339,16.6242961 C103.593643,16.3691914 101.4849,16.2898816 99.4137275,16.5270532 C97.3493182,16.7644774 95.3069506,17.3065118 93.5165602,18.3544617 C93.0704654,18.6161335 92.6429057,18.9098827 92.2381392,19.2334363 C92.0350045,19.3915507 91.8338737,19.5597683 91.6440141,19.7325323 C91.4586631,19.9042859 91.2868378,20.090184 91.1345494,20.2907317 C90.8297221,20.6910693 90.6042952,21.1522784 90.4910808,21.6453124 C90.4339727,21.8913243 90.4041662,22.1446609 90.4031644,22.3987553 C90.4026634,22.5255499 90.4089253,22.6528497 90.4232023,22.778634 C90.4369784,22.9046709 90.4422383,23.0309603 90.4056691,23.1718994 L90.2864433,23.2118068 C90.1717261,23.0976412 90.1273921,22.960996 90.1043485,22.8228353 C90.0823067,22.6844221 90.0687811,22.5449985 90.0630202,22.4053224 C90.0514984,22.1257175 90.0712859,21.8443446 90.1221322,21.5680233 C90.2225724,21.0146228 90.4517564,20.4852174 90.7706102,20.0240083 C90.9299118,19.7928986 91.1107543,19.5782066 91.3061243,19.3796795 C91.4999914,19.1849412 91.6968642,19.0008111 91.9035055,18.8212275 C92.3185415,18.4693851 92.7591258,18.1475996 93.2197481,17.8589019 C95.0662448,16.6945131 97.2095535,16.0916072 99.3435947,15.8741367 C101.486152,15.6571715 103.637476,15.7741155 105.749225,16.0660967 C106.804974,16.220675 107.851706,16.4219804 108.889422,16.654353 C109.407903,16.7720548 109.926385,16.8892514 110.437854,17.0301904 C110.948571,17.1542067 111.464548,17.3388419 111.95147,17.4469457 L111.946962,17.6346118 C111.771559,17.6391862 111.608388,17.624614 111.448191,17.6034542 L111.416206,17.7252876 C111.068505,17.654453 110.696005,17.6422316 110.324843,17.6665845 L108.959554,19.1349306 C108.506446,19.6360471 108.058598,20.1485297 107.608997,20.658234 C106.719062,21.6862302 105.806333,22.6988191 104.938941,23.7399494 C104.101104,24.7717342 103.294827,25.8964681 102.475275,26.9868513 C101.836776,27.8356704 101.198578,28.6864656 100.541855,29.5253223 L100.541855,29.5253223 Z M119.784719,27.201927 C120.565549,26.4870346 121.33469,25.760116 122.087414,25.0116842 C122.2382,24.8611472 122.248219,24.6156405 122.105449,24.4539899 C121.957919,24.2867827 121.703938,24.2718805 121.538124,24.4206495 L121.535369,24.4231753 C120.217123,25.6054972 118.893366,26.793881 117.531787,27.9246768 C116.855256,28.4952526 116.174968,29.0597665 115.479651,29.5980122 C114.784836,30.1324691 114.074741,30.6593488 113.346863,31.0803978 C113.16602,31.18345 112.982923,31.2786723 112.808593,31.3506572 C112.72243,31.3857657 112.636517,31.4165803 112.564882,31.4332506 C112.4955,31.452194 112.429876,31.4511837 112.445405,31.4504259 C112.452168,31.4511837 112.488988,31.4605291 112.526559,31.492354 C112.564631,31.524179 112.585421,31.5648442 112.588176,31.576968 C112.592935,31.602731 112.581413,31.5400914 112.591182,31.4729054 C112.594187,31.4542146 112.592183,31.4526991 112.598445,31.4196113 L112.605459,31.3784409 L112.607462,31.3680852 C112.606711,31.3708636 112.609967,31.3539408 112.60621,31.3733894 L112.606961,31.3718739 L112.608715,31.3653068 C112.610719,31.3506572 112.62224,31.3175694 112.636016,31.2847342 C112.66407,31.2162853 112.707402,31.1347023 112.755743,31.0528667 C112.956624,30.7194625 113.229641,30.3769655 113.505914,30.04735 C113.785443,29.7162191 114.080001,29.39115 114.38057,29.0703748 C114.980957,28.427814 115.602133,27.7968719 116.234831,27.1775484 L117.191643,26.2548776 L117.675309,25.7989727 C117.752956,25.7196629 117.846634,25.6585388 117.902489,25.5547289 C117.957093,25.449656 117.991408,25.3218511 117.959598,25.1187777 L117.959347,25.1165044 C117.945571,25.0296173 117.883203,24.9546014 117.793784,24.929596 C117.596159,24.8747864 117.465161,24.8962556 117.354953,24.9407095 C117.245746,24.9866789 117.175112,25.0753341 117.088448,25.1463088 L116.590255,25.5961518 L115.603636,26.5074565 C114.9509,27.1212233 114.304426,27.7433252 113.678741,28.394221 C113.36665,28.7208056 113.059068,29.0531994 112.760001,29.4004954 C112.461686,29.7513276 112.169132,30.1024122 111.903379,30.5310387 C111.837504,30.6409105 111.773132,30.7553287 111.714271,30.8929843 C111.685466,30.9632012 111.656912,31.0351862 111.63462,31.1296507 L111.626354,31.1637489 L111.619592,31.1983522 L111.612077,31.2395225 C111.607569,31.2614969 111.600305,31.3155488 111.595045,31.3521727 C111.581019,31.5059933 111.562984,31.6734531 111.638628,31.9123928 C111.678203,32.029842 111.757853,32.1702758 111.88284,32.2725703 C112.006074,32.3761276 112.149094,32.4276537 112.264813,32.4481126 C112.500009,32.4862521 112.65881,32.449123 112.804085,32.4165403 C112.948107,32.3806741 113.071341,32.333947 113.190316,32.2849467 C113.426012,32.1856831 113.636912,32.0727804 113.841299,31.9550786 C114.650331,31.4794725 115.36819,30.9356701 116.080539,30.3820171 C116.382087,30.1449475 116.680364,29.9049462 116.975739,29.6621889 C116.839391,29.800776 116.704829,29.9410823 116.57222,30.0832162 C116.277162,30.3946461 115.989617,30.7136532 115.712342,31.0412481 L115.29931,31.5360502 L115.096426,31.7876188 C115.042824,31.8820833 114.899553,31.9080989 115.074634,32.1856831 C115.117215,32.2533743 115.181837,32.3079313 115.261488,32.3369779 L115.271257,32.340514 C115.576334,32.4503858 115.565815,32.3104571 115.645465,32.2399876 L115.846596,31.9992799 L116.257875,31.5236738 C116.536903,31.2104759 116.818437,30.8992987 117.104478,30.5924153 C117.680569,29.9829424 118.266679,29.3828149 118.883848,28.8180485 C119.500265,28.2527768 120.143233,27.7178147 120.819263,27.2338735 C121.494291,26.7496797 122.208143,26.320043 122.963824,26.0025513 C123.340287,25.8416585 123.729524,25.7178948 124.122268,25.6277242 C124.315884,25.5847858 124.523778,25.5506876 124.708127,25.5289658 L124.747452,25.5261874 L124.762981,25.5269452 C124.775004,25.5279555 124.786526,25.5289658 124.788029,25.5304813 C124.802055,25.5357854 124.739186,25.5254297 124.702366,25.4582437 C124.673562,25.3948464 124.688089,25.3908051 124.680074,25.4097486 C124.675315,25.4276817 124.662791,25.4610221 124.64601,25.4961306 C124.576378,25.6433841 124.449888,25.8062975 124.325653,25.9611283 C124.199664,26.1182324 124.058898,26.269022 123.915126,26.417791 C123.627581,26.715329 123.324507,27.0042793 123.017175,27.2891883 C122.398003,27.8549651 121.768561,28.4139222 121.153897,28.989297 C120.846565,29.2769843 120.563028,29.5909399 120.292014,29.9195451 C120.022254,30.2496658 119.720933,30.5469511 119.482481,30.9116751 L119.480728,30.9142009 C119.424872,31.0003303 119.415104,31.1134856 119.464698,31.2119914 C119.538588,31.357982 119.715924,31.4160752 119.860698,31.3415644 C120.253191,31.1397539 120.576804,30.8641903 120.928971,30.6176732 C121.279384,30.3696407 121.614018,30.1029174 121.920098,29.8048743 C122.531505,29.2082829 123.113107,28.5786036 123.665403,27.9165943 C123.942678,27.5869788 124.215444,27.2518066 124.47744,26.90249 C124.734427,26.5423124 125.001683,26.2164856 125.213334,25.748962 C125.238882,25.6865751 125.263679,25.6196416 125.280211,25.5332597 C125.292484,25.449656 125.315277,25.3314491 125.236378,25.1723244 C125.196803,25.0962981 125.127922,25.0313853 125.063801,24.996782 C124.999178,24.9606633 124.940066,24.9455085 124.891975,24.9379311 C124.841129,24.9293435 124.799801,24.9288383 124.759224,24.9290909 L124.695353,24.9328796 L124.656029,24.937426 C124.420833,24.9669777 124.212188,25.004612 123.993524,25.0548752 C123.563209,25.1564119 123.147171,25.3006345 122.744409,25.4678417 C121.679781,25.9211134 120.700653,26.5213653 119.784719,27.201927 L119.784719,27.201927 Z" id="Combined-Shape"></path>
        </g>
    </g>
</svg>