<?xml version="1.0" encoding="UTF-8"?>
<svg width="63px" height="62px" viewBox="0 0 63 62" version="1.1" xmlns="http://www.w3.org/2000/svg" xmlns:xlink="http://www.w3.org/1999/xlink">
    <!-- Generator: Sketch 40.3 (33839) - http://www.bohemiancoding.com/sketch -->
    <title>Combined Shape</title>
    <desc>Created with Sketch.</desc>
    <defs></defs>
    <g id="Page-1" stroke="none" stroke-width="1" fill="none" fill-rule="evenodd">
        <g id="Logo" transform="translate(-228.000000, -366.000000)" fill="#434343">
            <path d="M254.969595,426.551394 L255.245742,426.557034 C255.245742,426.557034 255.393049,426.67782 255.510529,426.936234 C255.62801,427.194648 255.191415,427.102362 255.191415,427.102362 L254.986042,426.874288 L254.850353,426.713266 L254.969595,426.551394 Z M275.892191,406.577811 L275.401329,406.587258 L275.219798,406.74832 L275.156029,407.049778 L274.358197,407.024455 L273.546982,406.965278 L273.349706,407.052927 L273.329302,407.400376 L271.698671,407.386926 L270.761558,407.557501 L270.145586,407.574887 L269.639831,407.744281 L269.481327,407.607427 L268.661649,407.540969 L267.03889,407.517941 L267.030952,407.126865 L266.611075,407.141102 L266.025675,407.120829 L265.36509,407.033574 L265.076556,406.979515 L264.42063,406.303054 L265.562039,406.158196 L266.202286,406.339137 L266.734217,406.363148 L267.001889,406.049553 L267.716663,406.10722 L268.247808,406.109385 L268.742869,406.096461 L269.18761,406.059197 L269.561169,405.964593 L269.948703,405.886523 L270.29438,405.723951 L270.783405,405.741534 L271.05206,405.696331 L271.25721,405.811666 L271.905854,405.923721 L272.803406,405.871827 L272.984413,405.798808 L273.498303,405.603237 L274.53986,404.940028 L274.806219,405.1211 L274.809434,405.355313 L275.040104,405.35938 L275.178597,405.199827 L276.152909,404.72248 L276.580265,404.678917 L278.473909,403.585925 L278.822079,403.746856 L279.276137,403.40072 L280.260289,402.794457 L280.548036,402.68975 L281.347311,401.916915 L281.346327,401.505238 L281.195171,401.163957 L281.390414,400.903699 L282.428887,400.333126 L282.816421,400.132241 L283.328146,399.81753 L283.587157,399.347858 L283.881793,399.269853 L283.988533,399.03715 L284.00008,398.284389 L284.359206,398.269759 L284.513445,397.656476 L284.612903,396.895909 L284.844754,394.907792 L284.945459,393.335156 L285.013164,392.62084 L284.924006,392.020679 L284.985085,391.819597 L284.981148,391.504493 L284.870406,390.875071 L284.784659,390.262641 L285.174423,389.334516 L285.196598,387.871114 L284.714133,387.493684 L284.582987,385.736237 L284.36885,384.878966 L283.882842,384.11092 L283.501935,383.619401 L283.022948,382.404251 L282.635677,382.190573 L282.590343,381.761184 L282.143371,381.64867 L281.253822,380.40977 L279.73026,378.914221 L279.5196,378.840612 L279.299033,378.549257 L278.896935,378.004007 L278.686735,377.962216 L278.055148,377.888935 L278.05213,377.493791 L277.777111,377.298352 L277.1614,377.213195 L276.832912,377.062105 L276.788891,376.711967 L276.510723,376.698715 L274.887177,375.645939 L273.847588,375.401492 L273.535304,374.657654 L272.595239,374.566068 L270.92426,373.660643 L270.483127,373.657625 L269.53952,373.216951 L268.674967,373.012393 L265.925364,372.435062 L264.834012,372.284497 L263.616631,372.26055 L263.142022,372.312371 L262.352594,372.024764 L261.871485,372.027785 L261.352758,372.183709 L260.539677,372.178766 L259.464094,372.018253 L258.722719,371.918697 L257.138843,371.995305 L256.730145,371.986127 L255.605844,372.756333 L254.919717,372.950456 L254.019466,372.965423 L253.743468,373.08568 L253.454438,372.986584 L253.012571,373.125938 L252.482253,373.500645 L251.35252,373.454516 L250.768008,373.301485 L250.385302,373.186518 L249.96337,373.623418 L249.409181,373.661224 L249.025958,373.770901 L248.710928,373.998641 L248.469963,374.227671 L247.719646,374.380057 L247.008104,375.141922 L246.601075,375.100051 L245.886177,375.098116 L245.745533,374.945085 L245.075539,374.942762 L245.042249,375.288888 L244.273997,375.55308 L243.581615,375.602499 L243.418068,375.92398 L243.14678,376.066946 L242.758654,376.062688 L240.403706,377.685707 L240.144675,377.694159 L240.111902,377.934867 L239.645583,377.884093 L239.421197,378.10422 L239.037781,378.115898 L239.089587,378.368024 L239.102684,378.556217 L238.7363,378.654474 L238.464754,379.083244 L238.10895,379.11776 L236.695671,380.336008 L236.55264,380.869359 L236.550511,381.590708 L236.036773,382.391218 L235.536906,382.409217 L235.496907,383.125083 L233.414279,385.292484 L233.031314,387.45737 L232.609833,389.056776 L232.529512,389.858318 L232.051322,390.375991 L232.181579,390.787601 L232.132547,391.473466 L230.850299,393.697384 L231.146749,394.291185 L230.898557,394.900664 L231.465585,395.292919 L231.600809,395.890463 L232.3979,397.239226 L232.293062,397.694642 L232.146031,398.797084 L232.643962,399.577852 L232.606995,400.440103 L232.449512,401.288354 C232.449512,401.288354 232.39557,401.406124 232.367706,401.648867 C232.351437,401.790602 232.160167,402.098614 232.478931,402.124347 C233.343634,402.194153 233.126109,402.943939 233.376601,403.800398 C233.627094,404.656858 234.610656,404.127041 234.610656,404.127041 L235.25336,403.800398 L236.174321,404.698198 L236.373932,404.957808 L235.641293,405.688706 L235.605616,406.504893 L236.153805,406.998953 L236.187095,407.424821 L236.392577,407.474498 L236.63793,407.704689 L236.615156,408.132299 L237.120571,408.369587 L237.146635,408.851002 L236.931089,408.90126 L236.828767,409.648673 L237.258892,409.777576 L237.385988,410.187766 L237.231473,410.603117 L237.360246,410.769826 L237.409988,411.193629 L237.612567,411.468142 L237.885662,411.531884 L238.119058,411.836609 L238.497391,412.70854 L239.241,413.109458 L239.223476,413.553717 L239.386378,413.689696 L239.71886,413.693014 L239.588156,413.864082 L239.581435,414.109839 L239.934589,414.230676 L240.465318,414.980452 L240.930759,415.256577 L241.112078,415.884368 L241.445028,416.492635 L241.977034,416.843874 L241.99158,417.187926 L242.629578,417.610451 L242.793714,417.822904 L242.630004,417.942805 L242.76007,418.151856 L243.040534,418.115362 L243.600016,418.094819 L245.248859,419.758846 L246.25813,420.350568 L246.424392,420.673183 L246.265913,420.895078 L246.758278,421.711078 L247.568068,421.811967 L247.714382,422.264861 L249.003096,422.924976 L249.058559,423.569439 L249.289047,423.376892 L250.96073,423.725324 L252.834701,425.643104 L252.832149,425.831186 L252.293296,425.819319 L251.680349,425.321978 L251.022105,425.298202 L250.644113,424.967336 L250.441399,424.93012 L250.238473,425.058017 L249.640371,424.794821 L249.496694,424.491134 L249.211381,424.275661 L248.939892,424.070736 L248.63731,424.072012 L248.477173,423.919615 L247.875753,423.932758 L244.011398,422.296633 L243.699374,421.790955 L242.048319,421.320751 L242.045938,420.977891 L241.592789,420.693598 L239.948199,419.976999 L238.554343,418.888361 L238.586669,418.474683 L238.08635,418.469026 L236.499138,416.93783 L235.00433,415.188499 L234.709687,415.074436 L234.495431,414.913598 L234.473625,414.614891 L234.150724,414.384764 L233.721437,413.929606 L233.714792,413.213225 L233.092346,413.01484 L232.195192,411.645109 L231.883259,411.55298 L231.819195,411.044469 L230.762171,409.687576 L230.581011,409.225709 L230.476173,408.893841 L230.184176,408.490231 L229.493665,406.675859 L229.040121,406.56915 L228.922122,406.053606 L228.998379,405.689351 L228.598253,404.888067 L228.952702,403.508917 L228.901864,403.087953 L228.436448,402.979308 L228.45548,402.32183 L228.072709,401.56132 L228,400.790939 L228.410964,400.14688 L228.043161,399.594949 L228.066967,398.090703 L228.183805,397.442192 L228.28774,396.541683 L228.337288,396.198654 L228.117999,395.620207 L228.312256,395.046018 L228.214643,394.586989 L228.177805,393.870479 L228.398126,393.061131 L228.495544,392.491458 L228.571931,391.345532 L228.572963,391.064244 L229.052379,389.89735 L229.083411,389.247355 L228.835284,388.919939 L229.171345,388.031043 L229.245603,387.401499 L229.611277,387.016148 L229.473085,386.561184 L229.800308,384.993777 L229.755663,384.496297 L230.621721,383.157018 L231.027266,383.086438 L230.899202,382.645861 L230.989072,382.308315 L231.188619,382.233929 L231.251522,381.813029 L231.46894,381.173486 L231.954161,380.889488 L232.108741,380.148784 L232.637769,379.831819 L233.81105,378.142026 L234.708462,377.979253 L235.037943,377.935576 L235.23007,377.40771 L235.656131,377.239195 L236.690575,375.474242 L237.334182,374.994245 L237.591019,374.988633 L238.857589,373.169228 L238.912492,372.826521 L239.427262,372.73007 L241.061507,371.563499 L242.00666,371.198276 L242.721042,371.121374 L243.771291,370.301122 L243.85929,370.55512 L244.178191,370.528411 L244.36419,370.29809 L244.595672,370.382735 L244.803347,370.428089 L244.984959,369.831707 L246.114498,369.859642 L246.943781,369.219841 L247.341585,369.266292 L248.089579,368.783006 L249.112732,368.482944 L250.082079,368.387396 L250.198207,368.119656 L250.765492,367.953722 L251.315681,368.032173 L251.551357,368.142817 L251.77671,368.046302 L251.937386,367.715804 L252.407932,367.639281 L252.871723,367.675549 L253.271006,367.599413 L253.396256,367.461262 L254.165974,367.440497 L254.997875,367.366466 L255.604856,367.540886 L256.113996,367.485847 L256.318649,366.978977 L257.484272,367.006607 L258.152882,367.185512 L258.998016,367.357994 L259.775873,367.334959 L260.335623,367.196697 L260.514694,367.546534 L261.635522,367.646534 L263.126841,368.677384 L265.183058,368.926611 L265.680736,368.919025 L266.061691,368.694051 L267.114634,368.687572 L267.853178,369.196491 L268.334854,369.202859 L268.971459,368.928715 L269.247652,368.978106 L269.499149,369.490292 L270.485812,369.545054 L273.249454,370.729781 L273.619501,370.731386 L273.620996,371.017767 L274.368732,371.422809 L274.740994,371.521315 L275.277986,371.876633 L275.443934,372.085993 L276.435027,372.222981 L276.736801,372.295795 L277.1481,372.467723 L277.699488,372.5448 L278.152537,372.02752 L278.554478,372.489373 L278.597834,372.758866 L279.160186,372.832953 L279.472481,373.156931 L280.580629,374.205555 L281.543261,374.603675 L282.531031,374.620619 L282.699305,374.71104 L282.64853,374.906335 L282.615694,375.155341 L283.248866,375.497924 L284.055406,375.586352 L285.774584,377.11787 L285.869778,377.316262 L286.142698,377.372355 L287.037233,378.34929 L287.321503,378.388719 L287.381794,378.917436 L288.338261,379.574806 L288.569521,379.965095 L288.724285,380.407409 L289.521789,381.229711 L289.52999,381.560233 L289.385198,381.789 L289.606814,382.086588 L289.55059,382.570037 L290.172992,382.733264 L290.255196,383.144744 L290.325394,383.596702 L290.422425,383.885498 L290.761147,383.905442 L290.780304,384.544705 L290.47609,384.735093 L290.398479,385.065156 L290.148652,385.044293 L289.799761,384.746115 L289.343669,384.697304 L289.25333,384.917608 L289.206553,385.118034 L288.949903,385.101304 L288.725466,385.008472 L288.523466,384.791842 L288.377362,384.651577 L288.13134,384.492155 L287.821222,384.439801 L287.592717,384.443344 L287.478366,384.733584 L287.455076,385.885096 L287.708249,386.621324 L288.430175,387.479054 L288.961975,387.616564 L288.939341,387.836605 L288.868946,388.927432 L288.46219,389.17844 L288.322056,389.474388 L288.373163,390.176763 L288.914673,391.653221 L288.588088,391.888614 L288.445002,392.220514 L288.449463,392.706915 L288.762861,392.690514 L288.756629,393.754049 L288.912902,394.264002 L289.164041,394.373892 L289.141669,394.823947 L288.544329,395.32242 L288.477476,395.62729 L287.98891,395.70313 L287.915104,396.04802 L288.055631,396.411607 L286.923735,397.530251 L286.893556,398.090065 L286.742335,398.92726 L286.630543,399.455518 L286.496773,399.758026 L286.319309,399.825731 L285.904943,399.713545 L285.90409,399.945789 L286.104778,400.075951 L285.934597,400.291204 L285.404306,400.396304 L285.068338,400.358975 L284.830124,400.604537 L284.796403,401.267942 L284.511542,401.478078 L283.979742,401.594331 L283.427866,401.842452 L283.120306,402.059148 L282.872448,402.249864 L282.34255,402.893784 L282.294067,403.152534 L282.058608,403.142824 L282.034334,403.583695 L281.753476,403.696012 L281.531728,403.785957 L281.228171,403.888105 L281.127728,404.068456 L280.942326,404.136554 L280.435915,404.782706 L280.17756,404.792218 L280.132751,404.614755 L279.902344,404.843325 L279.663867,404.970338 L278.518718,405.438566 L277.671879,405.682357 L277.400402,406.071728 L276.930731,406.140351 L276.524762,406.244271 L275.892191,406.577811 Z M270.398815,403.972669 L270.89734,404.007809 L271.40544,403.801436 L271.777691,403.646027 L273.06397,402.820617 L274.336859,401.242024 L274.707081,400.389833 L274.853156,399.888144 L274.72883,399.762113 L274.821669,399.439609 L274.916862,399.264562 L274.681112,399.192579 L274.501032,399.29256 L274.546316,399.704656 L274.194679,399.622367 L272.905721,401.352798 L271.665212,402.47247 L271.190547,402.882943 L271.128059,403.194247 L270.481835,403.729697 L270.398815,403.972669 Z M275.567143,397.833424 L275.743327,397.424573 L275.618188,397.158796 L275.804192,397.005336 L275.729693,396.74175 L275.963901,396.462826 L275.845986,396.127501 L276.084576,395.911552 L275.833163,395.682212 L275.765238,395.482981 L275.466026,395.673691 L275.58946,396.057303 L275.543365,396.296137 L275.34876,396.328355 L275.380977,396.581147 L275.4825,396.763742 L275.212828,397.067093 L275.258274,397.715914 L275.567143,397.833424 Z M275.339177,394.484219 L275.646078,394.053954 L275.772159,393.168974 L275.658354,392.996103 L275.641248,392.657607 L275.844809,392.602264 L275.229599,391.794864 L275.094562,391.315998 L275.00058,390.987665 L274.962243,390.690424 L274.48539,390.436552 L274.532582,390.101376 L274.722156,390.045329 L274.572932,389.389769 L273.798436,388.362306 L273.788373,388.08529 L272.096797,386.860807 L271.603744,386.855776 L270.915884,386.335957 L269.780855,386.298928 L269.401405,386.056325 L268.965405,386.043848 L268.955443,386.325492 L269.51692,386.729494 L269.942959,386.741971 L270.265154,387.240962 L271.788689,388.74719 L271.99718,388.852542 L271.963472,389.198585 L272.017808,389.514039 L272.295126,389.590412 L272.343827,389.88403 L272.598907,390.251305 L272.734849,390.568066 L272.976445,391.18066 L273.313633,391.440771 L273.718239,391.494403 L273.991028,391.696153 L274.148,392.157107 L274.472208,392.676625 L274.686737,393.276842 L274.973412,393.733772 L275.339177,394.484219 Z M267.294481,387.663531 L267.611141,387.55458 L267.728527,387.316118 L267.841812,387.104133 L267.930789,386.8908 L267.981515,386.700429 L267.785286,386.696797 L267.770408,386.805338 L267.466752,386.824141 L267.140192,387.157436 L267.122151,387.476264 L267.294481,387.663531 Z M266.890308,387.231769 L266.942968,387.494715 L266.989945,387.699672 L266.790964,388.104196 L265.745387,389.627633 L265.255987,390.051311 L265.23695,390.205951 L265.440442,390.243498 L265.327977,390.837221 L265.135731,391.076444 L264.931361,391.074336 L264.781231,390.810745 L264.783574,390.647846 L265.019986,390.273254 L265.019576,390.075151 L264.821063,390.060742 L264.851112,389.578429 L265.322881,388.933686 L265.330027,388.693526 L265.696242,388.534259 L266.187751,387.701253 L266.595204,387.233643 L266.890308,387.231769 Z M263.940611,391.894161 L264.044993,391.617098 L263.920227,391.503696 L263.876764,391.160383 L263.738115,390.912667 L263.275543,390.222352 L263.135781,389.935155 L262.938029,389.91852 L262.882792,389.709287 L262.260543,389.00222 L262.263881,388.710513 L261.360995,387.978961 L261.111756,387.93169 L261.080359,387.701839 L260.372823,387.589022 L259.819048,387.041574 L259.514572,387.000336 L259.210154,387.136525 L258.934204,387.196858 L258.099207,387.148884 L257.926584,387.154918 L257.684081,386.956287 L257.459326,387.036595 L257.12685,387.296554 L257.171719,387.562663 L257.574954,387.927707 L257.910652,387.919975 L257.931681,388.137877 L259.142792,388.14637 L260.174544,388.901177 L260.365853,388.986112 L260.471055,389.176014 L261.713094,390.058691 L261.764406,390.438262 L261.955773,390.503515 L261.958761,390.683811 L262.182696,390.729383 L262.442713,390.946816 L262.521087,391.153999 L262.840266,391.175554 L262.845128,391.012363 L263.084527,391.102921 L263.188265,391.424325 L263.378929,391.526716 L263.491101,391.799093 L263.712693,391.949105 L263.940611,391.894161 Z M255.955746,387.258538 L255.959143,387.639046 L255.708381,387.747352 L255.633697,388.058155 L255.404139,388.128915 L255.288627,388.24589 L255.193559,388.413827 C255.193559,388.413827 255.144238,388.5482 255.144238,388.5482 C255.144238,388.5482 254.844741,388.544861 254.844741,388.544861 L254.746568,388.721056 C254.746568,388.721056 254.605635,388.787423 254.605635,388.787423 C254.605635,388.787423 254.418368,388.741499 254.418368,388.741499 L254.591225,388.409199 L254.675457,388.064657 L254.955097,387.952543 L255.162338,388.045327 L255.341638,387.677999 L255.375554,387.384945 L255.810713,387.130492 L255.955746,387.258538 Z M254.15589,390.198512 L254.179789,390.653411 L254.172057,390.94172 L254.056897,391.417004 L253.893823,391.949515 L253.875547,393.258507 L254.280481,393.979574 L254.270523,394.88779 L254.161396,394.995452 L254.143414,395.979934 L254.239302,396.39219 L254.078395,396.508053 L254.023275,397.006884 L254.278548,397.19784 L254.285225,397.857637 L254.416435,397.954756 L254.34632,398.89841 L254.505529,398.932501 L254.508399,399.417157 L254.630939,399.522242 L254.678034,399.764511 L255.119051,400.185377 L255.235323,400.390451 L255.250085,400.603959 L254.886974,400.602846 L254.467923,400.039172 L254.133163,399.750101 L253.85241,399.639276 L253.454095,399.277747 L253.406473,398.994416 L253.42797,398.79889 L252.759504,398.24699 L252.566614,397.902038 L252.15266,396.428976 L252.066436,395.852122 L252.03668,395.039911 L252.148852,394.561875 L252.574815,394.044534 L252.546816,393.723305 L252.358143,393.566205 L252.425622,393.320831 L252.609843,392.958248 L252.71938,391.975171 L252.798047,391.454023 L253.01507,391.057817 L253.058006,390.767575 L253.807365,390.123359 L254.15589,390.198512 Z M261.043543,406.985233 L261.065288,406.776984 L260.831991,406.584274 L260.411564,406.568111 L260.09102,406.074413 L259.575087,405.904921 L258.418244,405.206011 L257.903472,405.095948 L257.727595,404.826127 L256.950726,404.510629 L256.848566,404.309479 L256.5136,404.336939 L256.597319,404.573362 L256.797933,404.630023 L257.052662,405.108986 L259.138899,406.355843 L259.451897,406.55735 L259.563031,406.753454 L259.769762,406.671342 L260.031234,406.776448 L260.083608,406.875795 L260.606194,406.911381 L260.659819,407.082302 L260.956431,407.10753 L261.043543,406.985233 Z M262.681537,405.727793 L262.947071,405.702254 L263.011725,405.815754 L263.103035,406.006813 L263.028781,406.120447 L262.795573,406.119331 L262.631841,405.987301 L262.592504,405.73592 L262.681537,405.727793 Z M253.22876,425.938258 L253.47468,425.937438 L253.583198,425.991272 L253.59135,426.160477 L253.290982,426.172705 L253.22179,426.159546 L253.22876,425.938258 Z" id="Combined-Shape"></path>
        </g>
    </g>
</svg>