<?xml version="1.0" encoding="UTF-8" standalone="no"?>
<svg width="126px" height="29px" viewBox="0 0 126 29" version="1.1" xmlns="http://www.w3.org/2000/svg" xmlns:xlink="http://www.w3.org/1999/xlink">
    <!-- Generator: Sketch 3.8.3 (29802) - http://www.bohemiancoding.com/sketch -->
    <title>SVGLogo</title>
    <desc>Created with Sketch.</desc>
    <defs>
        <linearGradient x1="50%" y1="0%" x2="50%" y2="97.4928253%" id="linearGradient-1">
            <stop stop-color="#AA9292" offset="0%"></stop>
            <stop stop-color="#141414" offset="100%"></stop>
        </linearGradient>
        <linearGradient x1="50%" y1="0%" x2="50%" y2="100%" id="linearGradient-2">
            <stop stop-color="#979191" offset="0%"></stop>
            <stop stop-color="#FF0027" offset="100%"></stop>
        </linearGradient>
    </defs>
    <g id="Page-1" stroke="none" stroke-width="1" fill="none" fill-rule="evenodd">
        <g id="SVGLogo">
            <path d="M20.7084188,12.2406261 L20.7084188,0.499617391 L17.7144305,0.499617391 L17.7144305,12.2406261 L2.99398826,12.2406261 L2.99398826,15.2383304 L17.7144305,15.2383304 L17.7144305,27.2291478 L20.7084188,27.2291478 L20.7084188,15.2383304 L20.9579178,15.2383304 L20.9579178,12.2406261 L20.7084188,12.2406261 Z M0,0.499617391 L2.99398826,0.499617391 L2.99398826,27.2291478 L0,27.2291478 L0,0.499617391 Z" id="Combined-Shape" fill="url(#linearGradient-1)"></path>
            <path d="M44.0631854,14.4489577 C43.9195901,14.6204771 43.7731895,14.7960755 43.6239537,14.9758361 C42.7281203,16.0549043 40.9486567,17.9790291 40.0021977,19.0027816 C35.3375647,24.0483561 32.0154173,27.4529912 32.0154173,27.4529912 C32.0154173,27.4529912 26.8747165,22.3765118 23.954099,19.2233158 C22.395455,17.540552 19.7001894,14.5050053 19.7001894,14.5050053 L19.1418664,13.7919739 C18.8301351,13.4576472 18.5461511,13.09528 18.2937672,12.708871 L18.2134286,12.6062709 L18.2134286,12.5833535 C17.4243813,11.3251573 16.9659335,9.82313317 16.9659335,8.20997494 C16.9659335,3.77645961 20.4287735,0.182385016 24.7004032,0.182384653 C28.1084549,0.182384363 31.0016803,2.47015379 32.0322128,5.64674489 C33.0095926,2.375708 35.9479113,2.95033611e-07 39.4208454,0 C43.6924751,-3.62884601e-07 47.1553151,3.59407423 47.1553151,8.02759028 C47.1553151,10.6531528 45.9408625,12.9843148 44.0631854,14.4489577 L44.0631854,14.4489577 Z" id="Combined-Shape" fill="url(#linearGradient-2)"></path>
            <path d="M41.6663366,0.525582726 L44.6603249,0.525582726 L44.6603249,27.2551132 L41.6663366,27.2551132 L41.6663366,0.525582726 Z M44.6603249,0.499617391 L48.4028102,0.499617391 C48.4028102,0.499617391 61.6262584,-0.874330399 61.6262584,9.24292182 C61.6262584,19.360174 48.4028102,17.9862261 48.4028102,17.9862261 L44.6603249,17.9862261 L44.6603249,0.499617391 Z M44.6603249,11.4912 L44.6603249,4.87126957 L44.6603249,3.28983954 L49.8998044,3.28983954 C49.8998044,3.28983954 58.3686675,2.36206726 58.3686675,9.19384477 C58.3686675,16.0256223 49.2760568,15.0978502 49.2760568,15.0978502 L44.6603249,15.09785 L44.6603249,11.4912 Z" id="Combined-Shape" fill="url(#linearGradient-1)"></path>
            <path d="M58.6322701,15.2383304 L58.6322701,27.2291478 L60.7530118,27.2291478 L77.8436948,27.2291478 L77.8436948,24.2314435 L61.6262584,24.2314435 L61.6262584,15.2383304 L75.8477026,15.2383304 L75.8477026,12.2406261 L61.6262584,12.2406261 L61.6262584,3.49732174 L77.5941958,3.49732174 L77.5941958,0.499617391 L60.6282623,0.499617391 L58.6322701,0.499617391 L58.6322701,12.2406261 L57.8837731,12.2406261 L57.8837731,15.2383304 L58.6322701,15.2383304 Z" id="Combined-Shape" fill="url(#linearGradient-1)"></path>
            <g id="HopeMassion" transform="translate(69.111229, 13.239861)" fill="url(#linearGradient-1)">
                <g id="Group">
                    <path d="M37.148157,13.290945 L39.0036607,12.0298286 C39.3089489,11.8163893 39.6167618,11.608042 39.9119508,11.3888743 C40.0602816,11.2810938 40.2065086,11.1714038 40.3443195,11.0591678 C40.4888632,10.9456589 40.5875401,10.8408487 40.7312422,10.7023041 C41.2633399,10.1708276 41.8349924,9.68284512 42.401385,9.1895585 C42.9719855,8.70030303 43.5366949,8.20722858 44.1266521,7.73749241 C44.2478416,7.64095675 44.4239451,7.66174904 44.5196763,7.78416899 C44.6105685,7.90001179 44.5956302,8.06635016 44.4906414,8.16564398 L42.8556352,9.70087925 C42.3102824,10.2128365 41.7775536,10.7383724 41.2124234,11.2280522 C41.0842908,11.347714 40.9062937,11.4962304 40.7474429,11.6033744 C40.5856465,11.7162468 40.4240605,11.8195718 40.2616329,11.9203508 C39.9344634,12.117029 39.6077146,12.3056448 39.2742331,12.481955 C38.9413828,12.6586895 38.6068493,12.8305442 38.2712638,12.9996407 C37.9316807,13.1615236 37.5950433,13.3272255 37.2493586,13.4770149 C37.195707,13.5005653 37.1334291,13.4761662 37.1102853,13.4220638 C37.0896662,13.3741142 37.1069189,13.3191632 37.148157,13.290945 L37.148157,13.290945 Z" id="Shape"></path>
                    <path d="M46.3951679,6.01109531 C46.3951679,6.31512961 46.1121821,6.49738045 45.8472904,6.49738045 C45.5823988,6.49738045 45.4570013,6.41378693 45.4570013,6.1099648 C45.4570013,5.80614268 45.7269425,5.64871529 45.9920446,5.64871529 C46.2571466,5.64871529 46.3951679,5.70706102 46.3951679,6.01109531 L46.3951679,6.01109531 Z" id="Shape" stroke="url(#linearGradient-1)"></path>
                    <path d="M40.3207549,12.090296 C40.0817423,12.4881078 39.8768142,12.9724834 39.855564,13.4089095 C39.8517768,13.4598294 39.8570368,13.5338754 39.8572472,13.5245401 C39.8568264,13.5162656 39.826529,13.4857137 39.8216898,13.4901692 C39.8237938,13.501414 39.9435105,13.502687 40.0447122,13.4744689 C40.2610017,13.4227003 40.4947544,13.3206483 40.7198807,13.2128678 C41.1734997,12.9915784 41.6174404,12.7265827 42.0535964,12.4520395 C42.4893315,12.1760112 42.9206483,11.8857677 43.3399724,11.5861889 L43.3416555,11.5851281 C43.417399,11.5310257 43.5223878,11.5490598 43.5760394,11.6254397 C43.6282182,11.6996979 43.6124383,11.801962 43.5421652,11.8573374 C43.1278907,12.1825883 42.7085667,12.4936241 42.2776707,12.7949003 C41.8461435,13.0946912 41.4076732,13.3855712 40.9370119,13.6427167 C40.6988409,13.7691679 40.4594075,13.8920121 40.173476,13.9762422 C40.1006781,13.9961858 40.0257763,14.0146443 39.9388818,14.0231309 C39.8519872,14.0297081 39.7543623,14.0354365 39.6298065,13.9902451 C39.5035674,13.9488727 39.3726996,13.8152079 39.3390358,13.6792093 C39.3030577,13.5440594 39.3093697,13.4846529 39.3053721,13.4053027 C39.3015849,13.0989345 39.3619693,12.8129344 39.445287,12.5424224 C39.5315504,12.2693644 39.6346456,12.0202811 39.7754022,11.7599531 C39.8593511,11.604223 40.0527073,11.5469381 40.2071398,11.6318047 C40.3615722,11.7166712 40.4185902,11.911652 40.3342204,12.067382 C40.3321164,12.0714132 40.329802,12.0752322 40.3276981,12.0790512 L40.3207549,12.090296 L40.3207549,12.090296 Z" id="Shape"></path>
                    <path d="M47.6922743,11.0598043 C47.1551271,11.6033744 46.5744274,12.105572 45.9949901,12.6124372 C45.4107137,13.1142105 44.8218085,13.6293503 44.051119,13.9465389 C43.8575525,14.0244039 43.649258,14.0886903 43.414243,14.1101191 L43.3241925,14.1145746 L43.2722241,14.1135137 C43.2503426,14.1122407 43.2152061,14.1077853 43.1878543,14.1026933 C43.0902294,14.0842348 42.9858718,14.0322541 42.9097076,13.9601175 C42.7548543,13.8099038 42.7159306,13.6446262 42.6932076,13.5143561 C42.6565983,13.2476631 42.69447,13.0304048 42.7390744,12.8190872 C42.7866245,12.6094669 42.8529,12.4121523 42.9286434,12.2212026 C43.2375083,11.4614351 43.6757682,10.7820787 44.197346,10.1729492 C44.4595024,9.86997579 44.7397531,9.58206613 45.0425164,9.3191921 C45.341703,9.06077356 45.663823,8.82611764 45.9983565,8.62010417 C46.3368876,8.41684887 46.6987729,8.25305649 47.0633934,8.10114543 C47.4280138,7.9490222 47.7932655,7.7979598 48.1831338,7.69527132 C48.3779627,7.64392708 48.5780516,7.60234248 48.7901333,7.58685434 C48.8427329,7.58261102 48.8970157,7.58112585 48.9517192,7.58155019 C48.9824374,7.58261102 49.0001109,7.58155019 49.041349,7.58473268 C49.0533417,7.58579351 49.1219316,7.59258283 49.1543329,7.60382765 C49.2336531,7.62334695 49.3264389,7.67553985 49.388296,7.75404138 C49.4503635,7.83169424 49.4756113,7.91762159 49.4861313,7.98954596 C49.5038047,8.13445554 49.4793985,8.24711584 49.4528883,8.35362331 C49.4249053,8.45970646 49.3876648,8.55624212 49.3478995,8.65023179 C49.2681585,8.83757462 49.1768456,9.01282398 49.0769063,9.18213268 C48.8761862,9.51947708 48.6516911,9.83475618 48.4314039,10.1547029 C48.206488,10.471255 47.9657922,10.7788962 47.6922743,11.0598043 L47.6922743,11.0598043 Z M47.3951917,10.7527997 C47.9251853,10.244025 48.4490774,9.68305728 48.7789821,9.01409697 C48.8635623,8.84988027 48.9416201,8.68269323 48.9999005,8.5142332 C49.0548145,8.35192598 49.0954214,8.16012766 49.0699632,8.06062167 C49.064072,8.03898071 49.0560769,8.03197922 49.0569185,8.03643471 C49.0569185,8.0415267 49.06302,8.0453457 49.0499753,8.0447092 C49.032933,8.0434362 48.9228947,8.05404451 48.848624,8.06953265 C48.6847236,8.10114543 48.5161945,8.1560965 48.3508213,8.22144372 C48.0198646,8.35404765 47.6933262,8.52187118 47.3865653,8.72258049 C47.0804356,8.9258358 46.7930314,9.15752139 46.5020503,9.37902299 C45.9154595,9.82160187 45.3284479,10.242752 44.8234917,10.7576795 C44.3206394,11.2704855 43.8665996,11.8535184 43.5730938,12.4978674 C43.501348,12.6582652 43.4392804,12.8216332 43.3953071,12.9828796 C43.3517547,13.1413678 43.3265069,13.3085548 43.3384996,13.4220638 C43.3422867,13.4785 43.3629058,13.5069303 43.3475467,13.489957 C43.3399724,13.4833799 43.3227197,13.4768027 43.3178805,13.4778635 C43.3136726,13.4761662 43.3018902,13.4761662 43.3037838,13.4774392 L43.3214573,13.4787122 L43.330294,13.4793487 L43.3347124,13.4795609 C43.339762,13.479773 43.3071502,13.4789244 43.3225093,13.4793487 L43.3744777,13.4793487 C43.5175486,13.473408 43.6787138,13.4360668 43.838827,13.3787819 C44.1613678,13.2646364 44.4813838,13.0851437 44.7957191,12.8963157 C45.1100543,12.7051539 45.4229168,12.4991404 45.7185266,12.2687279 C46.3160581,11.8127825 46.848787,11.2764261 47.3951917,10.7527997 L47.3951917,10.7527997 Z" id="Shape"></path>
                    <path d="M53.0919395,8.00524627 C52.6139143,8.48940974 52.1260003,8.96402573 51.6334576,9.42760907 L50.9008503,10.1252118 C50.6609961,10.3562609 50.4125155,10.5904925 50.2086395,10.8209051 C50.0047634,11.050469 49.7983625,11.3245879 49.5965904,11.5900079 L48.9841206,12.397725 C48.5776308,12.9398098 48.1587276,13.477227 47.7286732,14.0053089 L47.7278316,14.0061576 C47.6379915,14.1164841 47.4768263,14.1323965 47.3674191,14.0418015 C47.2704254,13.9616027 47.2472816,13.8243311 47.3057723,13.7173993 C47.6360979,13.1142105 47.9880944,12.5273586 48.3661804,11.9549339 C48.7478432,11.3784781 49.1213004,10.8240876 49.5968008,10.2652416 C50.0994427,9.73121903 50.6102901,9.30052146 51.1419669,8.86070075 C51.670067,8.42512335 52.2147885,8.01415725 52.7780251,7.62377128 C52.8903778,7.54590625 53.0441791,7.5745487 53.1213953,7.6878455 C53.1897748,7.78820015 53.1752573,7.92122842 53.0929915,8.00460977 L53.0919395,8.00524627 L53.0919395,8.00524627 Z" id="Shape"></path>
                    <path d="M48.4192008,12.6642058 C49.6765418,11.3494113 51.0260374,10.1375175 52.44265,8.98693969 C52.7990649,8.7011517 53.1615814,8.42151653 53.5419818,8.15630867 C53.7326027,8.0239169 53.9274317,7.89534413 54.1344637,7.77462151 C54.345283,7.65602056 54.5531566,7.53954126 54.8401401,7.46273707 C54.9137795,7.4449151 54.9952037,7.42963912 55.0985093,7.43133645 C55.1506882,7.43303378 55.2072853,7.43791361 55.27314,7.45743291 C55.2889199,7.46167623 55.3068038,7.46846556 55.3232149,7.47483054 L55.3600346,7.49031868 L55.4042183,7.51026231 C55.5500244,7.58261102 55.7044568,7.67978318 55.8205968,7.87624916 C55.9373679,8.07229082 55.9394719,8.31437255 55.8986546,8.47795276 C55.8593101,8.64853446 55.7940866,8.78071406 55.7265487,8.90016368 C55.4479811,9.36374702 55.1163932,9.68899794 54.7894341,10.0231598 C54.1249958,10.6692062 53.4693943,11.2904291 52.8072705,11.8704917 C52.4840985,12.1651907 52.1695528,12.4709223 51.930961,12.7929908 C51.8135587,12.9519033 51.7180378,13.1201512 51.6824805,13.2580593 C51.6734333,13.2920059 51.6685942,13.3234065 51.6667006,13.3514124 L51.6660694,13.3618086 L51.665859,13.3645667 C51.6652278,13.3567166 51.6671214,13.3855712 51.6643862,13.3478056 L51.6650174,13.3584139 L51.6677526,13.4010593 C51.6688046,13.4220638 51.670067,13.4129407 51.6696462,13.4131528 C51.670067,13.4123042 51.6667006,13.4106068 51.6675422,13.4112433 C51.6681734,13.4195178 51.6608094,13.401908 51.6448191,13.3923605 C51.6294601,13.38154 51.6164154,13.3845104 51.6317744,13.3883294 C51.6566015,13.399362 51.7420232,13.396816 51.8266034,13.3794184 C51.9137083,13.3624451 52.0088084,13.3325296 52.1049605,13.2983709 C52.2976855,13.2298411 52.4946184,13.1386096 52.6886057,13.0401645 C53.0776324,12.8413647 53.4603472,12.6109521 53.8371708,12.3703555 C54.2129424,12.1278494 54.58661,11.8777054 54.9560696,11.6201355 L55.5064719,11.2280522 L55.7793587,11.0279794 L55.9148553,10.9269882 L55.9823931,10.8762805 L56.0160569,10.8508205 L56.0326784,10.8380906 L56.0410943,10.8317256 L56.0453023,10.8285431 C55.97545,10.7795327 56.2777925,10.8240876 56.2224578,10.9066203 C56.2224578,10.9651782 56.1753285,11.0127034 56.1172585,11.0127034 C56.0591886,11.0127034 56.0120593,10.9651782 56.0120593,10.9066203 C55.9539894,10.9912746 56.2535967,11.0383755 56.1810093,10.9914868 L56.1770117,10.9953058 L56.169227,11.0025194 L56.1536575,11.0171589 L56.1223081,11.0462257 L56.0596094,11.1041471 L55.9335807,11.2191412 L55.6800506,11.44722 L55.1666784,11.896376 C54.8214146,12.1929845 54.4702596,12.4836523 54.1064808,12.7607415 C53.7427019,13.0384672 53.3713486,13.3079183 52.9745372,13.5548799 C52.7752899,13.6777242 52.5705722,13.7956886 52.3458667,13.8983771 C52.2330931,13.949297 52.11527,13.9957615 51.9833502,14.0324662 C51.8495368,14.0659885 51.7073075,14.1016324 51.5086914,14.0732021 C51.4129601,14.0600478 51.291981,14.0171902 51.1909897,13.9325359 C51.0895777,13.8493667 51.0199358,13.7318266 50.9877448,13.6312598 C50.9778561,13.6053755 50.971965,13.5752479 50.9652322,13.5470297 C50.9589203,13.5194481 50.9521875,13.4829555 50.9519771,13.4755297 L50.9462964,13.4333086 L50.9448236,13.4227003 L50.9425092,13.3872685 L50.9410364,13.3550193 C50.9385116,13.2695162 50.946086,13.1871957 50.9597619,13.1099672 C51.0180422,12.8010531 51.1482788,12.5646998 51.2814611,12.348078 C51.5553998,11.920563 51.8741534,11.5715494 52.1954318,11.2325077 C52.8310455,10.5495444 53.5722791,10.0172192 54.2203063,9.41657643 C54.5407431,9.12208962 54.8666503,8.809993 55.0684224,8.50107889 C55.1166036,8.42618419 55.1521609,8.35192598 55.166468,8.30121824 C55.1805647,8.24605501 55.1753048,8.24414551 55.1778296,8.24138735 C55.1828791,8.23735619 55.1445866,8.19619593 55.0911454,8.16712915 C55.0894622,8.16521965 55.069264,8.1560965 55.0589544,8.15058018 L55.0494865,8.14591252 C55.0417018,8.14230569 55.0539049,8.14782201 55.0543257,8.14803418 L55.0568505,8.14909501 L55.06716,8.15227751 C55.0793631,8.1548235 55.0791527,8.15397484 55.0753655,8.15312617 C55.0654768,8.15142884 55.0347586,8.15312617 54.9985701,8.16076416 C54.8466624,8.19216477 54.6480463,8.28339627 54.4633165,8.37971977 C54.2750099,8.47795276 54.0869137,8.58955223 53.9007111,8.70645585 C53.5280955,8.94111177 53.1615814,9.19740865 52.7999065,9.46091918 C51.3532069,10.5213263 49.9769908,11.6954545 48.5616406,12.8205724 L48.5605886,12.821421 C48.5147217,12.8577015 48.4486566,12.8498513 48.4124681,12.8038112 C48.3792251,12.7615901 48.3830123,12.7019714 48.4192008,12.6642058 L48.4192008,12.6642058 Z" id="Shape"></path>
                    <path d="M31.8208688,12.6792696 C31.7653236,12.7987192 31.7112512,12.9175324 31.6986273,13.0161897 C31.6820058,13.1152713 31.6937881,13.1895296 31.7310286,13.2765177 C31.7699524,13.3624451 31.8469582,13.4509184 31.9414271,13.5296321 C31.9803508,13.5648517 32.0678765,13.6246826 32.0413663,13.6013443 C32.0594606,13.6074971 32.1046963,13.609831 32.1551919,13.6030416 C32.3708503,13.5707924 32.6330067,13.4424318 32.8718089,13.3106765 C33.1148191,13.1744657 33.3538317,13.0202209 33.5888468,12.8587623 C34.5293277,12.2080483 35.4174195,11.4610108 36.2996201,10.712276 C37.1807688,9.96078296 38.0448751,9.18595167 38.8986719,8.3996634 C39.7564663,7.61825496 40.6087904,6.82645036 41.4438617,6.02361312 L41.4453345,6.02212796 C41.5652616,5.9067095 41.7554618,5.91137716 41.8699185,6.03231194 C41.9841649,6.15282239 41.9799569,6.34377205 41.8610818,6.45940268 C41.0226441,7.2749699 40.1757904,8.07441248 39.3154712,8.86367107 C38.4503129,9.64635252 37.5744242,10.4180013 36.6785477,11.1686456 C35.7797256,11.9158953 34.8625989,12.6425649 33.8777238,13.2966735 C33.6300849,13.4587686 33.3769756,13.614923 33.1101903,13.7568622 C32.8381452,13.8937095 32.5722016,14.0362852 32.2111579,14.0876295 C32.1183722,14.0961161 32.0146457,14.0999351 31.8945082,14.0611087 C31.8677876,14.0528342 31.8301263,14.0369217 31.7928858,14.0154929 L31.7661652,13.9983074 L31.7421798,13.9815463 L31.7299767,13.972211 C31.6975753,13.9471754 31.6653843,13.9210789 31.6338246,13.8932851 C31.5090583,13.7827465 31.3861856,13.6488696 31.306655,13.4666187 C31.2220748,13.2875504 31.2210229,13.0482268 31.3072862,12.8731896 C31.3954432,12.6970916 31.5256798,12.5770055 31.6929465,12.5108096 C31.7487021,12.4887443 31.8114008,12.5165381 31.8332823,12.5727621 C31.8446438,12.6016168 31.8427502,12.6323809 31.8305471,12.6584773 L31.8208688,12.6792696 L31.8208688,12.6792696 Z" id="Shape"></path>
                    <path d="M38.7991535,9.00879282 C39.0882409,9.69663593 39.047634,10.4326408 38.8286092,11.1052079 C38.6081117,11.7779872 38.2026739,12.3659 37.7334854,12.8534581 C37.2426259,13.3469569 36.6730773,13.7581352 35.9627722,13.9450537 C35.8729321,13.965846 35.7807776,13.9815463 35.6850463,13.990033 C35.6366547,13.9940641 35.5897358,13.9970344 35.5373466,13.9961858 C35.5017893,13.9959736 35.4491897,13.9934276 35.3970109,13.9898208 C35.2076523,13.972211 35.0264992,13.9253222 34.8588117,13.8576412 C34.6911241,13.789748 34.5360605,13.702972 34.3923584,13.6036781 C34.3204021,13.5542434 34.2513914,13.5012018 34.1853263,13.4451899 C34.1520834,13.417184 34.119682,13.3883294 34.087491,13.3586261 L34.039941,13.3127982 C34.0315251,13.3055845 34.0266859,13.2943397 34.0254235,13.2788516 C34.0247923,13.2710014 34.0254235,13.2618783 34.0275275,13.2512699 L34.0334187,13.2319628 L34.036785,13.2222032 C34.0513025,13.2362061 33.9974405,13.1742536 34.0079604,13.1362758 C34.0079604,13.0777179 34.0550897,13.0301927 34.1131597,13.0301927 C34.1712296,13.0301927 34.2183589,13.0777179 34.2183589,13.1362758 C34.2307724,13.0999954 34.1785936,13.0397402 34.195215,13.0556526 L34.2038414,13.050985 L34.2208837,13.042074 C34.2301412,13.038255 34.2381363,13.0359212 34.2450795,13.0350725 C34.2583346,13.033163 34.2688545,13.0352847 34.2753768,13.0414375 L34.3197709,13.0741111 L34.4119254,13.1367001 C34.4746242,13.1770117 34.5390061,13.2145652 34.6048608,13.2480874 C34.7361494,13.3155563 34.8722772,13.3692344 35.0092466,13.404454 C35.1455847,13.4398858 35.2831853,13.4549496 35.4146843,13.4498576 L35.5150444,13.4409466 C35.542817,13.4375519 35.5760599,13.4313991 35.6069885,13.424822 C35.6703184,13.4110312 35.7349107,13.3915119 35.7997135,13.3677492 C36.0610283,13.2767299 36.3191872,13.1271527 36.5565166,12.951479 C36.7978436,12.7823824 37.0263363,12.580188 37.2260044,12.3654757 C37.6442765,11.9214116 37.9933275,11.4262155 38.214877,10.879463 C38.323653,10.6061928 38.4019212,10.3208292 38.4357954,10.0291005 C38.4782959,9.74267601 38.4631472,9.42654824 38.4105476,9.1662202 L38.4038148,9.1329101 C38.3808814,9.01918896 38.4534688,8.908226 38.5662424,8.88509987 C38.6647089,8.86451974 38.7614921,8.91840998 38.7991535,9.00879282 L38.7991535,9.00879282 Z" id="Shape"></path>
                    <path d="M26.330101,11.1141189 C25.8085233,11.705002 25.2072046,12.1662515 24.584846,12.6001316 C24.2734563,12.8161169 23.9555443,13.0214938 23.6287956,13.2145652 C23.3003636,13.404454 22.9670925,13.5886143 22.5955289,13.713156 C22.5027432,13.7451931 22.4070119,13.773199 22.305179,13.7959008 C22.253421,13.8060848 22.2022942,13.8154201 22.1438034,13.8164809 C22.0857335,13.8169053 22.0066237,13.8109646 21.9374026,13.778291 C21.8643943,13.7464661 21.7979084,13.6823918 21.7589847,13.6138621 C21.7185882,13.5451203 21.6979692,13.4763784 21.6855557,13.412092 C21.6615702,13.2828827 21.6670406,13.1689494 21.6758773,13.0581986 C21.722165,12.6211361 21.8862758,12.2521789 22.0840503,11.9120763 C22.4779161,11.2314469 22.9439487,10.6091631 23.4964549,10.0511658 C23.6348971,9.91198471 23.7788096,9.77704695 23.9311381,9.64804985 C24.0878849,9.51502158 24.2374782,9.40490728 24.3872819,9.28948882 C24.6892036,9.05907623 24.9974373,8.83863545 25.3115622,8.62222584 C25.6258974,8.40645272 25.9475966,8.19937842 26.2840237,8.00545843 C26.624238,7.81578177 26.9671874,7.62822677 27.3951378,7.52659912 C27.5041242,7.50389733 27.6200537,7.48734835 27.7502904,7.49392551 C27.878423,7.500927 28.0305411,7.53444927 28.1630921,7.62949977 L28.2104317,7.66684104 L28.2379939,7.69081583 L28.2508282,7.70312147 C28.2640833,7.71521495 28.2918559,7.74428173 28.3164725,7.77143902 C28.3593938,7.82151026 28.3997903,7.87815866 28.4334541,7.94244505 C28.5022544,8.07016915 28.5323413,8.22950604 28.5199278,8.36889929 C28.492576,8.65129262 28.3688618,8.84669777 28.2550362,9.02003763 C28.1365819,9.19231666 28.0090804,9.34316689 27.8769502,9.48553047 C27.3499022,10.0490441 26.8039182,10.5461498 26.3313634,11.1124216 L26.330101,11.1141189 L26.330101,11.1141189 Z M26.0014586,10.8461529 C26.4609688,10.2295976 27.0008512,9.68263295 27.4763516,9.12675727 C27.5922812,8.98672752 27.7056859,8.84818294 27.79763,8.70836535 C27.8897845,8.5708816 27.95606,8.42448686 27.96132,8.32731469 C27.9640552,8.27872861 27.9566912,8.24584284 27.936493,8.20722858 C27.9263939,8.18813361 27.9120868,8.16755348 27.8937821,8.14633685 C27.8864182,8.1391232 27.8828414,8.13318254 27.8615911,8.11366324 L27.8487568,8.1013576 C27.8569624,8.10941992 27.848336,8.10220626 27.8491776,8.10326709 L27.8409721,8.09711427 C27.803942,8.06656233 27.6720222,8.05786351 27.5236913,8.09668994 C27.2219799,8.17476713 26.8983871,8.35150165 26.592047,8.53629849 C26.2827613,8.72364132 25.9829436,8.93750494 25.6860714,9.15667272 C25.38962,9.37626483 25.0984286,9.60752609 24.8082891,9.83815084 C24.6633246,9.95463014 24.5131001,10.0708973 24.3862299,10.1837697 C24.2545205,10.3000369 24.1268086,10.4247906 24.0030944,10.5546364 C23.510762,11.0761411 23.0556702,11.6562038 22.6786362,12.2685157 C22.5008496,12.5780663 22.3074934,12.8823128 22.1652641,13.1776482 C22.1324419,13.2499969 22.1050901,13.3244673 22.0941494,13.3838739 C22.0840503,13.4479481 22.0815255,13.4712864 22.0952014,13.4946247 C22.1078253,13.5079912 22.1223428,13.5219941 22.1570585,13.5285713 C22.1919847,13.5359971 22.2346956,13.5374823 22.2757233,13.5379066 C22.3594618,13.5389674 22.4469876,13.5245401 22.5332509,13.5024748 C22.8783044,13.4059392 23.2111547,13.2330236 23.5267523,13.0416496 C23.8434019,12.8492148 24.1440613,12.6285619 24.4333591,12.395179 C24.7218154,12.160523 24.9991205,11.9122885 25.2650641,11.6545064 C25.5307973,11.3977852 25.788325,11.1315165 26.002721,10.8453042 L26.0014586,10.8461529 L26.0014586,10.8461529 Z" id="Shape"></path>
                    <path d="M29.974833,7.85991236 C30.0015536,8.03049406 29.972729,8.1378502 29.9268621,8.22611137 C29.8799433,8.31331172 29.8012543,8.36465596 29.7360307,8.43127618 L29.3297514,8.81423633 L28.5260294,9.58927978 C27.9945629,10.1095115 27.4727748,10.6395029 26.9684498,11.179254 C26.7159717,11.4487051 26.4685431,11.7217632 26.2337385,11.9999132 C26.001669,12.2767902 25.7723347,12.5644877 25.6035952,12.8445472 C25.5629883,12.913289 25.5265894,12.9818188 25.5030248,13.0393158 C25.4914528,13.0668974 25.4817745,13.0946912 25.4800913,13.1069969 L25.4786185,13.1125132 L25.4779873,13.1137862 C25.4811433,13.0974494 25.4784081,13.1116645 25.4790393,13.1093307 L25.4773561,13.1180295 L25.471465,13.1526126 C25.466205,13.1804064 25.4678882,13.1816794 25.4653634,13.1973797 C25.4571579,13.2538159 25.4668362,13.3064332 25.4628387,13.2847922 C25.4605243,13.2746082 25.4430612,13.2404495 25.4110806,13.2137165 C25.3795209,13.1869836 25.3485923,13.1791334 25.3429116,13.1784969 C25.3298668,13.1791334 25.3849912,13.1799821 25.4432716,13.1640696 C25.5034456,13.1500666 25.5756122,13.1241823 25.6479893,13.0946912 C25.7944266,13.0342238 25.9482278,12.9542371 26.1001355,12.8676733 C26.7115533,12.5139921 27.3080329,12.0714132 27.8916781,11.6224693 C28.4757442,11.170343 29.0471863,10.6961513 29.6154724,10.2168677 C30.7591983,9.26699919 31.871154,8.2687568 32.9784809,7.2756064 L32.9807953,7.27348474 C33.1200791,7.14851879 33.3334231,7.1610366 33.4573478,7.30149069 C33.5772749,7.43727711 33.5688589,7.64350274 33.4421991,7.76995385 C32.3742166,8.83184613 31.2668897,9.842182 30.1393645,10.8393636 C29.570868,11.3322259 28.9912203,11.813419 28.3964239,12.2810335 C27.7980508,12.746102 27.1950489,13.202896 26.515462,13.6024051 C26.3437769,13.7012746 26.1666214,13.796113 25.9686365,13.8794943 C25.8686972,13.9206546 25.7651812,13.9599053 25.6442021,13.990033 C25.522171,14.0174024 25.3887784,14.0485909 25.1912143,14.0165537 C25.0940102,13.9993683 24.9738727,13.9560864 24.8703567,13.8690982 C24.7653679,13.7831708 24.6984612,13.6652064 24.6652182,13.566549 C24.6016779,13.3658397 24.6168266,13.2251735 24.6286089,13.0959642 C24.6330273,13.0652001 24.6391288,13.0197965 24.642916,13.0013381 L24.6492279,12.9667549 L24.6549087,12.9376882 L24.6618518,12.9090457 C24.6805773,12.8296955 24.7045627,12.7692281 24.7287585,12.7102459 C24.7782022,12.5946153 24.8322746,12.4985039 24.8876094,12.4062116 C25.1108421,12.0461654 25.3565874,11.7512543 25.607172,11.4565553 C25.8583877,11.1648267 26.116757,10.8856158 26.3789134,10.6112848 C26.9044887,10.0645323 27.447527,9.5419667 27.9958253,9.02640262 L28.8245848,8.26090665 L29.2430672,7.88303848 C29.3158651,7.82341976 29.3751974,7.74894939 29.4669312,7.71033513 C29.5595065,7.67299386 29.6695448,7.65495972 29.8355492,7.70099981 C29.9106614,7.72200427 29.9630506,7.78501766 29.9746226,7.85800286 L29.974833,7.85991236 L29.974833,7.85991236 Z" id="Shape"></path>
                    <path d="M27.5514639,13.796113 C27.4043954,13.5629422 27.5247433,13.5410891 27.5697685,13.4617389 L27.7401912,13.2504213 L28.0871383,12.8347875 C28.3200493,12.5596078 28.5615867,12.2916418 28.8094361,12.0300408 C29.3011372,11.5030197 29.8248189,11.0059141 30.368278,10.5308738 C31.4560379,9.58524863 32.6431058,8.72830898 33.9940741,8.15312617 C34.3323948,8.01267209 34.6818666,7.89152514 35.0433311,7.80623429 C35.2270089,7.7640132 35.4022708,7.73240042 35.599835,7.70757696 L35.6328675,7.70375797 L35.6865191,7.70057548 C35.7206037,7.70036331 35.7553194,7.70078764 35.7980303,7.7080013 C35.8384268,7.71436628 35.8880808,7.72709626 35.9423636,7.75743604 C35.9962256,7.78650282 36.0540852,7.84102956 36.0873281,7.90489161 C36.1536036,8.03855637 36.1344574,8.1378502 36.1241478,8.20807724 C36.1102615,8.28063811 36.0894321,8.33686218 36.0679715,8.38926725 C35.8901848,8.78198705 35.6656897,9.05568157 35.4498209,9.3582307 C35.2297441,9.65165667 35.0006202,9.93320134 34.7677092,10.2100783 C34.3037806,10.7661662 33.8152355,11.2950968 33.3016529,11.7962335 C33.044546,12.0465897 32.7634537,12.2706374 32.4691063,12.4789846 C32.1732861,12.6860589 31.9014514,12.9175324 31.571757,13.0870532 C31.4501467,13.1496423 31.3011847,13.100844 31.2391171,12.9782119 C31.1974582,12.8954671 31.2056638,12.8004166 31.2525826,12.7280679 L31.2540554,12.7259462 C31.4543547,12.4195781 31.707464,12.1698584 31.9340631,11.892557 C32.1617142,11.6165287 32.3998853,11.352806 32.6580441,11.1111486 C33.1743619,10.6278338 33.7030931,10.1583098 34.223198,9.68305728 C34.4813569,9.44373371 34.735939,9.20101547 34.9774764,8.95108359 C35.0982451,8.82611764 35.216489,8.69945437 35.3223194,8.56748693 C35.426677,8.437429 35.5329283,8.30058174 35.591419,8.1768888 C35.6055157,8.14739768 35.6160356,8.11939173 35.6200332,8.10432792 C35.626766,8.08841545 35.6145628,8.09181011 35.6387587,8.14506385 C35.6696872,8.20150009 35.7224972,8.2101989 35.7107149,8.20574341 C35.7094525,8.20447041 35.6997742,8.20362175 35.6896751,8.20277308 L35.6766304,8.20213658 L35.6435978,8.20447041 C35.4887446,8.22271671 35.3141139,8.25135916 35.1514759,8.28742743 C34.8215712,8.3631708 34.494612,8.46713228 34.1783832,8.60228221 C33.5436111,8.86897523 32.9439756,9.22987009 32.3769518,9.63659287 C31.8090865,10.0431035 31.2689937,10.4924717 30.7512032,10.9672998 C30.2327814,11.4417037 29.7404491,11.9458108 29.2565327,12.457768 C29.0162577,12.7155501 28.7797699,12.9769389 28.545386,13.2400251 L28.1999118,13.6395343 L28.0309619,13.8417287 C27.9640552,13.9009231 27.9728919,14.0184632 27.7166266,13.9261709 L27.7084211,13.9232006 C27.6415144,13.8988015 27.5872316,13.8529735 27.5514639,13.796113 L27.5514639,13.796113 Z" id="Shape"></path>
                    <path d="M34.3326052,0.704604247 C34.1775416,0.618040401 33.9477865,0.585791125 33.7407544,0.585578959 C33.5278312,0.585154626 33.312804,0.614433574 33.1007224,0.660261493 C32.6755072,0.749583501 32.2610223,0.903616227 31.8600029,1.0862914 C31.0571225,1.45482425 30.3032649,1.93622956 29.5794943,2.45624913 C28.8527781,2.97351055 28.1555177,3.53575121 27.4788764,4.122391 C26.8011831,4.70818213 26.1403216,5.31540205 25.4956608,5.94044394 C24.8518416,6.56654666 24.2191735,7.20474286 23.5961838,7.85354737 C22.9883427,8.48601508 22.4301557,9.19380182 21.8734415,9.89904257 C21.3165168,10.6055563 20.7686393,11.3220419 20.2272842,12.0438316 L19.419775,13.1303352 L19.0191764,13.6760269 L18.8199291,13.9495092 C18.7828989,13.9921546 18.7629111,14.04753 18.7107323,14.0789306 C18.6547663,14.1077853 18.559035,14.1069366 18.3835627,14.04753 L18.3823003,14.0471057 C18.3118169,14.0233431 18.2543781,13.9787881 18.2137712,13.9225641 C18.1045744,13.7717138 18.075329,13.6792093 18.0862697,13.6166203 C18.1007872,13.5567894 18.1474957,13.5207211 18.1771619,13.4719229 L18.378934,13.1980162 L18.7841613,12.651688 L19.6013488,11.5641236 C20.1496471,10.8414852 20.7027846,10.1222415 21.2714916,9.41254527 C21.8463001,8.70772885 22.4200566,8.00015428 23.0748165,7.33798329 C23.7127445,6.69172477 24.3637173,6.05734756 25.0340467,5.44355049 C26.3713391,4.21341034 27.7715406,3.04140376 29.2965084,2.03552338 C30.0636211,1.54117593 30.8614519,1.08544274 31.7165112,0.743855011 C32.1440408,0.575182811 32.5867191,0.434304395 33.0479124,0.36195569 C33.2787195,0.32822125 33.5139449,0.312096612 33.7508536,0.328645582 C33.989235,0.350923043 34.2225668,0.382747986 34.4554779,0.532749553 C34.5040799,0.564150164 34.518387,0.629497381 34.4872481,0.678507794 C34.4571611,0.72560871 34.3965663,0.740672516 34.3488059,0.71415173 L34.3326052,0.704604247 L34.3326052,0.704604247 Z" id="Shape"></path>
                    <path d="M6.72938335,6.25805687 C6.63302087,6.16215771 6.59578035,6.04737575 6.57642369,5.93132079 C6.55790863,5.81505366 6.54654711,5.69793787 6.54170795,5.58060991 C6.53202962,5.34574183 6.5486511,5.10938858 6.59136198,4.87727866 C6.67573175,4.41242232 6.86824631,3.96772178 7.13608351,3.58030613 C7.26989691,3.38617398 7.42180458,3.20583263 7.58591535,3.03906993 C7.74876374,2.87548972 7.9141369,2.7208205 8.0877156,2.56997026 C8.4363458,2.27442262 8.80643664,2.00412277 9.19335935,1.7616167 C10.7444166,0.783530107 12.5447959,0.277089174 14.3373905,0.0944139988 C16.1371387,-0.0878368438 17.9442508,0.0103961482 19.71812,0.255660379 C20.6049493,0.385506148 21.4842044,0.554602681 22.3558851,0.749795667 C22.7914098,0.848665158 23.2269346,0.947110316 23.6565681,1.06549911 C24.0855705,1.16967275 24.5189913,1.32476631 24.9280058,1.41557348 L24.9242187,1.57321304 C24.6801565,1.57957803 24.4642877,1.54181243 24.2412654,1.50786582 C24.0199262,1.47455571 23.8009015,1.43403195 23.5831391,1.38990136 L22.2780376,1.13127066 C21.4082505,0.964932284 20.5346763,0.8251147 19.6577356,0.724547878 C17.9074311,0.510259926 16.1360867,0.443639711 14.3963021,0.642863857 C12.6621982,0.842300169 10.9466095,1.29760903 9.44268149,2.17788696 C9.06796188,2.39769124 8.70881177,2.64444063 8.36880791,2.91622565 C8.19817478,3.04904175 8.02922484,3.19034449 7.86974283,3.33546624 C7.71404799,3.47973931 7.56971467,3.6358937 7.44179243,3.80435374 C7.18573754,4.14063731 6.99637895,4.52805295 6.90127886,4.94220155 C6.85330802,5.14885151 6.82827061,5.3616543 6.82742902,5.57509359 C6.82700822,5.68160107 6.83226818,5.78853288 6.84426089,5.89419169 C6.8558328,6.00006267 6.86025117,6.10614581 6.829533,6.2245346 L6.72938335,6.25805687 L6.72938335,6.25805687 Z" id="Shape"></path>
                    <path d="M10.5920881,8.87724972 C10.6512101,8.42830585 10.6040808,7.94286938 10.4254525,7.52150713 C10.2508219,7.09484072 9.90745162,6.75282866 9.48896914,6.56357633 C9.07090746,6.36965634 8.59898379,6.30579429 8.13274087,6.30536996 C7.66439397,6.30897678 7.19667826,6.37729433 6.7361161,6.47573949 C6.27576434,6.57503331 5.82004134,6.70636424 5.37336547,6.85679014 C4.93447435,7.01103504 4.50568235,7.21386601 4.1111853,7.47143588 C3.71942342,7.73494641 3.36363968,8.0459822 3.0002816,8.33919601 C2.63524032,8.63113682 2.28703092,8.94493076 1.96743571,9.28460899 C1.33224285,9.96141946 0.785627733,10.7462226 0.536095197,11.6224693 C0.405858569,12.0555007 0.376402789,12.5137799 0.426688014,12.9665428 C0.476973238,13.414638 0.621516959,13.8493667 0.889564557,14.1909544 C1.15508737,14.5346638 1.54264128,14.7678346 1.97017089,14.88198 C2.39875249,14.9978228 2.86057704,15.0058852 3.31524804,14.9541166 C4.22921882,14.8448509 5.11899377,14.5117499 5.96163948,14.1026933 C6.80786196,13.6919393 7.60085364,13.1791334 8.36502073,12.6194387 C9.12939823,12.0595319 9.86810711,11.4595256 10.5988209,10.8493354 C12.0581444,9.62556022 13.4859081,8.35956397 14.9107263,7.09059739 L17.0424831,5.18025212 L18.1060472,4.22232133 C18.4611997,3.90513272 18.8085675,3.57648714 19.1868639,3.27287718 C19.9369343,2.66820326 20.7661145,2.15030534 21.669355,1.80107963 C22.1206596,1.62752761 22.5898481,1.49619667 23.0699773,1.42660613 C23.5520001,1.36083458 24.0357061,1.33813279 24.5322464,1.44421593 L24.4783844,1.64938073 C24.0420181,1.56048306 23.5591537,1.58148752 23.1030099,1.65065373 C22.6424477,1.72215377 22.1907223,1.85306037 21.7558287,2.02576373 C20.8843584,2.37201912 20.0833716,2.88588587 19.3537099,3.48164881 C18.9890894,3.77719645 18.644036,4.10711503 18.2890938,4.42748613 L17.2307897,5.39156975 L15.1087112,7.314645 C13.6897842,8.59273472 12.268122,9.86785412 10.8098505,11.1045714 C10.0795575,11.721551 9.34000705,12.3294074 8.56868641,12.9009834 C7.79862816,13.4725594 6.98480704,14.0002169 6.11817591,14.4256104 C5.25427996,14.8507916 4.33778441,15.2048971 3.35901092,15.3290144 C2.87151776,15.387148 2.36508874,15.3850263 1.87212522,15.2556049 C1.38168648,15.1291538 0.906817228,14.8522768 0.583224445,14.4372795 C0.255844489,14.0250404 0.0881569417,13.5147805 0.0290349832,13.014068 C-0.0284037879,12.5148407 -0.00336637486,11.9975793 0.133392604,11.5083239 C0.412380921,10.5317224 1.00128612,9.70491041 1.66593476,8.99521417 C2.00194105,8.64047214 2.36298475,8.31161439 2.7456995,8.01182342 C3.12988703,7.71266895 3.5616246,7.4820442 3.9910478,7.26266425 C4.4189982,7.04052615 4.84652781,6.81456905 5.30961475,6.66287015 C5.76681054,6.51605108 6.22884549,6.3906608 6.69992757,6.29645897 C7.17037845,6.2031058 7.64966608,6.14157758 8.13274087,6.14306274 C8.61371168,6.14285058 9.10793759,6.20607613 9.55797983,6.41315043 C10.0088637,6.61470841 10.3856872,6.9917279 10.5883009,7.44830976 C10.7919666,7.90658894 10.8542445,8.40899872 10.8001721,8.90949899 L10.5920881,8.87724972 L10.5920881,8.87724972 Z" id="Shape"></path>
                    <path d="M12.8869038,13.4695891 L13.3739761,13.1182417 L13.841271,12.7658335 C14.1513983,12.5292681 14.456476,12.286762 14.7592394,12.0412856 C15.3666596,11.5528788 15.956196,11.0436797 16.5474156,10.5363901 C17.730486,9.5224474 18.8933581,8.48495425 20.0638046,7.45488691 L20.9439012,6.68260162 C21.2502413,6.42057625 21.5466927,6.18379867 21.8542952,5.93832228 L22.7733155,5.21335006 L23.7302076,4.52805295 C24.050434,4.30188369 24.3531973,4.07826042 24.6900452,3.84912082 L25.6644003,3.2066813 C26.3162147,2.77874189 26.9806529,2.36353246 27.6625542,1.97548032 L27.6751781,1.96826667 L27.6819109,1.96529634 C28.2358899,1.72130511 28.787765,1.4620379 29.3524744,1.22589682 C29.9161318,0.986573246 30.501881,0.795199253 31.0903654,0.619949898 C31.6796914,0.446397873 32.2850077,0.316339938 32.9006335,0.272633682 C33.5149969,0.226169265 34.1384075,0.265420028 34.742251,0.400357788 C34.7990585,0.413087766 34.8348263,0.469523999 34.8224128,0.526808897 C34.8097889,0.584093795 34.7538229,0.620162064 34.6970153,0.607644253 C34.6963841,0.607644253 34.6951217,0.60721992 34.6944905,0.60721992 C34.1150532,0.464432008 33.5120513,0.424120413 32.9164134,0.475676821 C32.3203546,0.528081894 31.7325014,0.664504819 31.1629529,0.855454479 C30.5917212,1.04470681 30.0499452,1.31394583 29.5031197,1.56981838 L27.8651679,2.36841229 L27.8843142,2.35844047 C27.2274503,2.76325375 26.5878391,3.19861898 25.9448615,3.63483287 C25.6250558,3.85463715 25.3020943,4.07507792 24.9780807,4.29000237 C24.671951,4.49919833 24.3500414,4.7410679 24.0338125,4.96256951 L23.0821804,5.6221945 L22.1564273,6.33040558 C21.8538744,6.56845616 21.5309128,6.80438507 21.2386694,7.04052615 L20.3379537,7.78141083 C19.1401555,8.77647073 17.9410948,9.77174279 16.7626532,10.7907775 C16.1733272,11.2999766 15.5825284,11.8079027 15.0102447,12.3372576 C14.7232613,12.6007681 14.4388026,12.8676733 14.1596039,13.140307 L13.743015,13.5521217 L13.5380869,13.7619542 L13.4370957,13.8682495 L13.3870208,13.9217154 C13.3743969,13.9357184 13.34431,13.9656338 13.3470451,13.9660582 C13.2111277,14.0939944 12.9984149,14.0867808 12.8715447,13.9497214 C12.7446744,13.8126619 12.7511968,13.5975253 12.8869038,13.4695891 L12.8869038,13.4695891 Z" id="Shape"></path>
                    <path d="M14.6866519,12.0516817 C15.239579,11.03392 15.8385833,10.0469225 16.4531571,9.06841154 C16.7668612,8.58361157 17.0742533,8.09393178 17.4035268,7.61783062 C17.733642,7.14109297 18.0534476,6.66053632 18.42964,6.19652865 C19.1616161,5.29185159 19.9213648,4.41857514 20.7473891,3.60343226 C21.5675221,2.78701638 22.4587699,2.01303375 23.4543753,1.40878416 L23.5850327,1.57491037 L22.4147966,2.8334808 C22.0341859,3.25441871 21.6579935,3.68490412 21.2803283,4.11305569 C20.5327827,4.97657249 19.7660908,5.82714714 19.037481,6.70169659 C18.3336983,7.56839588 17.6564257,8.51317236 16.9680021,9.42909424 C16.2766329,10.3481986 15.5856844,11.2700611 14.8612826,12.1696462 L14.6866519,12.0516817 L14.6866519,12.0516817 Z" id="Shape"></path>
                </g>
            </g>
        </g>
    </g>
</svg>