<?xml version="1.0" encoding="UTF-8"?>
<svg width="148px" height="142px" viewBox="0 0 148 142" version="1.1" xmlns="http://www.w3.org/2000/svg" xmlns:xlink="http://www.w3.org/1999/xlink">
    <!-- Generator: Sketch 40.3 (33839) - http://www.bohemiancoding.com/sketch -->
    <title>Combined Shape</title>
    <desc>Created with Sketch.</desc>
    <defs></defs>
    <g id="Page-1" stroke="none" stroke-width="1" fill="none" fill-rule="evenodd">
        <g id="Logo" transform="translate(-200.000000, -340.000000)" fill="#249C3A">
            <path d="M263.929576,480.393033 L264.576174,480.40624 C264.576174,480.40624 264.921091,480.68906 265.196172,481.294136 C265.471253,481.899213 264.448968,481.683124 264.448968,481.683124 L263.968086,481.149088 L263.650371,480.772057 L263.929576,480.393033 Z M312.919807,433.624914 L311.770454,433.647035 L311.345399,434.024162 L311.196084,434.730026 L309.327963,434.670731 L307.428503,434.532169 L306.96658,434.7374 L306.918806,435.550949 L303.100685,435.519458 L300.906437,435.918859 L299.464138,435.959567 L298.279913,436.356203 L297.908778,436.035761 L295.989502,435.880148 L292.189815,435.826229 L292.171227,434.910525 L291.188086,434.94386 L289.817372,434.896392 L288.270614,434.692083 L287.595012,434.565504 L286.059161,432.981571 L288.731769,432.642388 L290.230906,433.06606 L291.476423,433.122283 L292.103175,432.388 L293.77682,432.523028 L295.020493,432.528097 L296.179678,432.497835 L297.22104,432.410581 L298.095728,432.189067 L299.003137,432.006264 L299.812538,431.625604 L300.957591,431.666774 L301.586647,431.560932 L302.067004,431.830989 L303.585804,432.093365 L305.687421,431.971855 L306.111247,431.80088 L307.31452,431.342951 L309.753325,429.790049 L310.377005,430.214029 L310.384532,430.762437 L310.924645,430.771961 L311.248928,430.398368 L313.530277,429.280659 L314.53093,429.178658 L318.964897,426.619419 L319.780136,426.996238 L320.843311,426.185761 L323.147702,424.766198 L323.821461,424.521027 L325.692962,422.711433 L325.690658,421.747493 L325.336727,420.948384 L325.793888,420.33899 L328.225472,419.002993 L329.132881,418.532622 L330.331084,417.795727 L330.93756,416.695991 L331.627448,416.513342 L331.877381,415.968467 L331.904417,414.205879 L332.74531,414.171622 L333.106461,412.735622 L333.339343,410.954754 L333.882221,406.29958 L334.118021,402.617256 L334.276553,400.944687 L334.067789,399.539409 L334.210805,399.068577 L334.201588,398.33076 L333.942285,396.85697 L333.741509,395.422966 L334.65414,393.249763 L334.706063,389.823209 L333.576372,388.939457 L333.269294,384.824397 L332.767892,382.817099 L331.629906,381.018719 L330.738013,379.867829 L329.616464,377.022557 L328.709669,376.52223 L328.603521,375.516815 L327.556936,375.253364 L325.47406,372.352483 L321.90664,368.850657 L321.413379,368.6783 L320.896923,367.996092 L319.955412,366.719391 L319.463227,366.621538 L317.984367,366.449949 L317.977301,365.524721 L317.333343,365.067099 L315.891659,364.867706 L315.122505,364.513929 L315.019428,363.694081 L314.368097,363.663051 L310.566567,361.197978 L308.132371,360.625605 L307.401159,358.883909 L305.199998,358.669462 L301.287404,356.54941 L300.254491,356.542344 L298.045035,355.510506 L296.020686,355.031532 L289.582493,353.679713 L287.027094,353.327165 L284.176599,353.271095 L283.065302,353.392432 L281.216859,352.719002 L280.090342,352.726074 L278.875742,353.091171 L276.971915,353.079598 L274.45344,352.703755 L272.71751,352.470645 L269.008867,352.650024 L268.051902,352.628532 L265.419352,354.431969 L263.812785,354.886507 L261.704849,354.921554 L261.058601,355.203135 L260.381838,354.971102 L259.347206,355.297399 L258.105467,356.174774 L255.460199,356.066764 L254.091566,355.708442 L253.195459,355.439247 L252.207506,356.462247 L250.909873,356.55077 L250.012558,356.807578 L249.274916,357.340831 L248.710695,357.877105 L246.95383,358.233916 L245.287754,360.017822 L244.334696,359.919782 L242.660765,359.91525 L242.331447,359.556928 L240.762655,359.55149 L240.684707,360.361944 L238.885846,360.980548 L237.264636,361.096262 L236.881691,361.84901 L236.24647,362.183766 L235.337674,362.173796 L229.823565,365.974093 L229.217046,365.993882 L229.140306,366.557499 L228.048421,366.438612 L227.523023,366.95404 L226.625255,366.981382 L226.746558,367.571737 L226.777224,368.012389 L225.919336,368.242458 L225.283511,369.246424 L224.450398,369.327243 L221.141207,372.179769 L220.8063,373.428609 L220.801315,375.117646 L219.598399,376.992039 L218.427961,377.034185 L218.334302,378.710383 L213.45783,383.785351 L212.561119,388.854428 L211.574223,392.599436 L211.38615,394.476245 L210.266469,395.688376 L210.571466,396.652159 L210.456658,398.258112 L207.454277,403.465412 L208.148412,404.855798 L207.567272,406.282892 L208.894966,407.201356 L209.211595,408.600503 L211.077981,411.758631 L210.832503,412.824986 L210.48823,415.406354 L211.654136,417.234521 L211.567577,419.25348 L211.198831,421.239659 C211.198831,421.239659 211.072526,421.515417 211.007283,422.083801 C210.969189,422.415671 210.521329,423.136882 211.267716,423.197136 C213.292416,423.360587 212.783081,425.116209 213.36961,427.121607 C213.956138,429.127006 216.259146,427.88644 216.259146,427.88644 L217.764038,427.121607 L219.920465,429.223803 L220.387855,429.831681 L218.672381,431.543076 L218.588843,433.454177 L219.872427,434.611019 L219.950376,435.608187 L220.431512,435.724506 L221.006006,436.263499 L220.95268,437.264746 L222.136109,437.820357 L222.197139,438.94759 L221.692437,439.065268 L221.45285,440.815336 L222.459989,441.11716 L222.757583,442.07762 L222.395787,443.050165 L222.697309,443.440512 L222.813779,444.432846 L223.288117,445.07562 L223.927568,445.224871 L224.474066,445.938384 L225.359932,447.980009 L227.10109,448.918758 L227.060058,449.958991 L227.441494,450.277385 L228.22,450.285153 L227.913956,450.68571 L227.89822,451.26115 L228.725128,451.544089 L229.96783,453.299687 L231.05766,453.946235 L231.482218,455.416205 L232.26182,456.840463 L233.507511,457.662889 L233.541571,458.468485 L235.035443,459.457827 L235.419766,459.955286 L235.036439,460.236034 L235.34099,460.725526 L235.997696,460.640077 L237.307722,460.591974 L241.168485,464.488291 L243.531691,465.873808 L243.920994,466.629209 L243.549916,467.148778 L244.702787,469.05944 L246.598909,469.295671 L246.941504,470.356121 L249.959026,471.901781 L250.088893,473.410791 L250.628579,472.95994 L254.542823,473.775794 L258.930724,478.266274 L258.924748,478.706667 L257.663024,478.678881 L256.227811,477.514358 L254.686534,477.458686 L253.801464,476.683964 L253.326811,476.596822 L252.85166,476.896293 L251.451205,476.280021 L251.114785,475.568938 L250.446725,475.064408 L249.811033,474.584576 L249.102539,474.587564 L248.727577,474.230728 L247.319354,474.261501 L238.270971,470.430516 L237.540368,469.246473 L233.674426,468.145489 L233.668849,467.342683 L232.607801,466.677013 L228.756997,464.999096 L225.493285,462.450052 L225.568975,461.481426 L224.39748,461.46818 L220.681025,457.882887 L217.180934,453.786831 L216.491028,453.519751 L215.989348,453.14315 L215.938288,452.443728 L215.182217,451.904885 L214.177042,450.839134 L214.161483,449.161729 L212.704025,448.697209 L210.60334,445.489986 L209.87295,445.274268 L209.722944,444.083588 L207.247924,440.906427 L206.823739,439.824965 L206.578261,439.047896 L205.894549,438.102845 L204.27772,433.854494 L203.215745,433.604636 L202.939451,432.39749 L203.118007,431.544587 L202.181113,429.668382 L203.011055,426.439104 L202.892017,425.453416 L201.802247,425.199026 L201.846811,423.659541 L200.950553,421.878808 L200.780304,420.074962 L201.742577,418.566898 L200.881366,417.274552 L200.937108,413.752363 L201.210683,412.233875 L201.454046,410.125335 L201.570063,409.322132 L201.056599,407.9677 L201.51145,406.623237 L201.282892,405.548422 L201.196634,403.870714 L201.712515,401.975627 L201.940621,400.641738 L202.11948,397.958554 L202.121897,397.299918 L203.244447,394.567638 L203.317109,393.045676 L202.73612,392.279031 L203.523008,390.197682 L203.696882,388.723607 L204.553108,387.821307 L204.22953,386.756009 L204.995723,383.085928 L204.891187,381.92108 L206.91906,378.785159 L207.868643,378.619896 L207.568783,377.588285 L207.779214,376.797922 L208.246452,376.623747 L208.393739,375.63821 L208.902822,374.140721 L210.038968,373.475741 L210.400915,371.741384 L211.639634,370.99921 L214.386869,367.042563 L216.488158,366.66143 L217.259638,366.559161 L217.709504,365.323162 L218.707126,364.928584 L221.129273,360.795948 L222.63628,359.672038 L223.237662,359.658896 L226.203335,355.398762 L226.33189,354.596315 L227.537223,354.370475 L231.363805,351.63895 L233.576881,350.783781 L235.249604,350.603714 L237.708762,348.683097 L237.914812,349.277832 L238.661517,349.215292 L239.097033,348.675997 L239.639047,348.874191 L240.12532,348.980389 L240.550563,347.583961 L243.195377,347.649371 L245.137144,346.151277 L246.068599,346.260043 L247.820026,345.128428 L250.215738,344.425833 L252.485462,344.202109 L252.757376,343.575196 L254.085675,343.186662 L255.373942,343.370355 L255.925776,343.629428 L256.453439,343.403438 L256.829662,342.629577 L257.931445,342.450398 L259.017411,342.53532 L259.952332,342.357048 L260.245605,342.033567 L262.047899,341.984947 L263.995792,341.811602 L265.417038,342.220006 L266.609189,342.091132 L267.088383,340.904297 L269.817689,340.968993 L271.383238,341.387899 L273.362118,341.791765 L275.18347,341.73783 L276.494123,341.414089 L276.913418,342.233231 L279.537836,342.467382 L283.029755,344.881115 L287.844385,345.464679 L289.009698,345.446917 L289.901705,344.920141 L292.367169,344.904971 L294.096468,346.096604 L295.224312,346.111514 L296.714922,345.469606 L297.361626,345.585256 L297.950506,346.784538 L300.260777,346.912763 L306.731842,349.686799 L307.598307,349.690559 L307.601807,350.36112 L309.352629,351.309525 L310.22428,351.540176 L311.481646,352.372153 L311.870213,352.862368 L314.190856,353.183127 L314.89746,353.35362 L315.860515,353.756189 L317.151591,353.936665 L318.212404,352.725455 L319.153549,353.806883 L319.255066,354.4379 L320.571813,354.611375 L321.303051,355.369969 L323.897778,357.82532 L326.151779,358.757519 L328.464643,358.797192 L328.858655,359.008914 L328.739764,359.466197 L328.662881,360.049242 L330.145452,360.8514 L332.033965,361.058454 L336.059418,364.644502 L336.282314,365.109037 L336.921356,365.240378 L339.015908,367.527871 L339.681525,367.620194 L339.822698,368.858184 L342.062263,370.397414 L342.603759,371.311275 L342.966138,372.346953 L344.833492,374.272373 L344.852694,375.04629 L344.513664,375.581948 L345.032578,376.278749 L344.90093,377.410744 L346.358283,377.79294 L346.550763,378.756419 L346.715132,379.814678 L346.94233,380.490895 L347.735448,380.537594 L347.780304,382.034427 L347.067988,382.48022 L346.88626,383.253061 L346.301291,383.204211 L345.484362,382.506027 L344.416425,382.391737 L344.204896,382.907579 L344.095368,383.376875 L343.494423,383.337703 L342.968903,383.120337 L342.49592,382.613097 L342.153818,382.284667 L341.577759,381.91138 L340.851617,381.788795 L340.316573,381.79709 L340.048821,382.476687 L339.994287,385.172951 L340.58709,386.896828 L342.277479,388.905201 L343.522688,389.22718 L343.469691,389.742407 L343.304861,392.296577 L342.352443,392.884311 L342.02432,393.577272 L342.143987,395.221883 L343.411931,398.679007 L342.647232,399.230181 L342.312196,400.007323 L342.322642,401.146231 L343.056464,401.107827 L343.041871,403.598092 L343.407784,404.792148 L343.995825,405.049455 L343.943442,406.103259 L342.54477,407.270432 L342.388236,407.984285 L341.244259,408.161865 L341.071441,408.969423 L341.400486,409.820762 L338.750152,412.440065 L338.679489,413.750869 L338.325405,415.71116 L338.063643,416.948075 L337.750421,417.656397 L337.33489,417.814929 L336.364653,417.552246 L336.362656,418.096046 L336.832566,418.400819 L336.434087,418.904833 L335.19241,419.150925 L334.405744,419.063518 L333.847965,419.638502 L333.769006,421.191865 L333.102006,421.683896 L331.856797,421.956104 L330.56458,422.537079 L329.844429,423.044472 L329.264069,423.491033 L328.023314,424.998772 L327.909792,425.604633 L327.358465,425.581898 L327.301627,426.614196 L326.643998,426.877186 L326.124776,427.087793 L325.413996,427.326973 L325.17881,427.749263 L324.744692,427.908716 L323.558931,429.421678 L322.953992,429.443953 L322.849073,429.028422 L322.309574,429.563619 L321.75118,429.86102 L319.069816,430.957376 L317.086944,431.528212 L316.451281,432.439922 L315.351546,432.600604 L314.400971,432.843931 L312.919807,433.624914 Z M300.057074,427.52498 L301.224369,427.607259 L302.414086,427.124037 L303.285709,426.760148 L306.297531,424.827452 L309.277999,421.131177 L310.144872,419.135773 L310.486909,417.961068 L310.195797,417.665966 L310.413181,416.910826 L310.636075,416.500952 L310.084066,416.332404 L309.66241,416.566509 L309.768442,417.531432 L308.945084,417.338751 L305.926991,421.390554 L303.022341,424.012264 L301.910912,424.973387 L301.764597,425.702305 L300.251465,426.956059 L300.057074,427.52498 Z M312.158707,413.149944 L312.571241,412.192622 L312.27823,411.570305 L312.713757,411.210977 L312.539318,410.593791 L313.087716,409.940691 L312.811617,409.155527 L313.370277,408.649883 L312.781594,408.112886 L312.622547,407.646386 L311.921942,408.092934 L312.210963,408.99116 L312.103031,409.550389 L311.647363,409.625827 L311.722801,410.217741 L311.960516,410.645286 L311.329079,411.355582 L311.43549,412.874794 L312.158707,413.149944 Z M311.624926,405.307786 L312.343533,404.300322 L312.638751,402.228141 L312.372278,401.823364 L312.332224,401.030776 L312.808861,400.901191 L311.368348,399.010664 L311.05216,397.889401 L310.832102,397.120609 L310.742334,396.42462 L309.625783,395.830178 L309.736284,395.045365 L310.180171,394.914131 L309.830763,393.379138 L308.017281,390.973334 L307.99372,390.324703 L304.032897,387.457577 L302.878413,387.445797 L301.26779,386.228641 L298.61012,386.141936 L297.721639,385.573883 L296.700745,385.544668 L296.67742,386.204137 L297.992118,387.150107 L298.989687,387.179323 L299.744107,388.347708 L303.311462,391.874539 L303.799644,392.121222 L303.720715,392.931481 L303.847944,393.670115 L304.497282,393.848942 L304.611317,394.536449 L305.208586,395.396422 L305.526894,396.138119 L306.092591,397.572507 L306.882117,398.181556 L307.8295,398.307136 L308.468236,398.779532 L308.835787,399.858857 L309.594919,401.075306 L310.097237,402.480713 L310.768487,403.550614 L311.624926,405.307786 Z M292.788279,389.337153 L293.529739,389.082044 L293.804597,388.523687 L294.069855,388.027323 L294.278193,387.527805 L294.396969,387.082051 L293.9375,387.073547 L293.902663,387.327695 L293.191652,387.371722 L292.427013,388.152134 L292.384769,388.898668 L292.788279,389.337153 Z M291.84191,388.326184 L291.965212,388.941872 L292.07521,389.421777 L291.609295,390.368969 L289.161079,393.936095 L288.01515,394.928137 L287.970574,395.290226 L288.447051,395.378142 L288.183713,396.768345 L287.733571,397.328486 L287.255037,397.323548 L286.903509,396.706351 L286.908995,396.324923 L287.462552,395.447817 L287.461592,394.983959 L286.996774,394.950219 L287.067135,393.820885 L288.171781,392.311221 L288.188514,391.748885 L289.046006,391.375961 L290.196873,389.42548 L291.150923,388.330572 L291.84191,388.326184 Z M284.935198,399.243169 L285.179608,398.594426 L284.887468,398.328894 L284.785699,397.525029 L284.461053,396.945 L283.377941,395.328629 L283.050689,394.656159 L282.587654,394.617207 L282.458317,394.127289 L281.00132,392.471692 L281.009138,391.78866 L278.895031,390.075732 L278.311437,389.965048 L278.237922,389.426852 L276.581227,389.162692 L275.284565,387.880841 L274.571633,387.784284 L273.858839,388.10317 L273.212702,388.244439 L271.257558,388.132109 L270.853362,388.146236 L270.285541,387.681144 L269.759277,387.869183 L268.980786,388.477877 L269.085847,389.100972 L270.030021,389.955721 L270.816056,389.937617 L270.865295,390.447833 L273.701111,390.467721 L276.116958,392.2351 L276.564906,392.433974 L276.811236,392.878631 L279.71947,394.945418 L279.839618,395.834183 L280.287703,395.986973 L280.294698,396.409136 L280.819041,396.515843 L281.427872,397.024962 L281.611385,397.510079 L282.358742,397.560552 L282.370126,397.178438 L282.930679,397.39048 L283.17358,398.143049 L283.620019,398.382796 L283.882671,399.020566 L284.401528,399.37182 L284.935198,399.243169 Z M266.238647,388.388863 L266.246602,389.279822 L265.659442,389.533421 L265.484569,390.261166 L264.947059,390.426849 L264.676589,390.700747 L264.453987,391.09397 C264.453987,391.09397 264.338502,391.408604 264.338502,391.408604 C264.338502,391.408604 263.637229,391.400786 263.637229,391.400786 L263.407357,391.813348 C263.407357,391.813348 263.077363,391.968745 263.077363,391.968745 C263.077363,391.968745 262.638878,391.861215 262.638878,391.861215 L263.043623,391.083135 L263.240851,390.27639 L263.895629,390.013875 L264.380883,390.231129 L264.800715,389.37103 L264.880127,388.684844 L265.899051,388.089043 L266.238647,388.388863 Z M262.024287,395.272807 L262.080246,396.337953 L262.062142,397.013029 L261.792495,398.125905 L261.410656,399.37278 L261.367863,402.437782 L262.316016,404.126159 L262.292699,406.252747 L262.03718,406.504837 L261.995073,408.810001 L262.219596,409.775297 L261.842831,410.04659 L261.713768,411.214601 L262.311489,411.661726 L262.327125,413.20664 L262.634352,413.434043 L262.470178,415.643609 L262.842965,415.723433 L262.849685,416.858253 L263.136614,417.104309 L263.246886,417.671582 L264.279526,418.65704 L264.551778,419.13722 L264.586341,419.637149 L263.736118,419.634544 L262.754911,418.314701 L261.971071,417.637842 L261.313687,417.378345 L260.381034,416.531824 L260.269527,415.868406 L260.319862,415.410583 L258.75465,414.118309 L258.302999,413.310603 L257.333725,409.861431 L257.131833,408.510729 L257.062158,406.608938 L257.32481,405.489617 L258.322201,404.278264 L258.256641,403.526106 L257.814864,403.158257 L257.972867,402.583715 L258.404219,401.734726 L258.660699,399.432854 L258.844898,398.212586 L259.353057,397.28487 L259.453592,396.605268 L261.208215,395.096838 L262.024287,395.272807 Z M278.151718,434.578893 L278.202633,434.091279 L277.656367,433.640048 L276.671939,433.602202 L275.921386,432.44621 L274.713329,432.049344 L272.004584,430.412848 L270.799245,430.155136 L270.387429,429.52335 L268.568391,428.78461 L268.329184,428.31362 L267.544862,428.377917 L267.74089,428.931501 L268.210626,429.064173 L268.807075,430.185664 L273.691995,433.105179 L274.42488,433.577006 L274.685101,434.036182 L275.16916,433.843918 L275.781396,434.090025 L275.904031,434.322645 L277.127666,434.40597 L277.253228,434.806181 L277.947744,434.865251 L278.151718,434.578893 Z M281.987076,431.6346 L282.608826,431.574799 L282.760212,431.840561 L282.974014,432.287924 L282.80015,432.553999 L282.254093,432.551386 L281.870714,432.242236 L281.778607,431.653628 L281.987076,431.6346 Z M259.853412,478.957377 L260.429234,478.955456 L260.683328,479.081508 L260.702416,479.477702 L259.999105,479.506334 L259.837093,479.475522 L259.853412,478.957377 Z" id="Combined-Shape"></path>
        </g>
    </g>
</svg>