<?xml version="1.0" encoding="UTF-8"?>
<svg width="91px" height="26px" viewBox="0 0 91 26" version="1.1" xmlns="http://www.w3.org/2000/svg" xmlns:xlink="http://www.w3.org/1999/xlink">
    <defs></defs>
    <g id="Page-1" stroke="none" stroke-width="1" fill="none" fill-rule="evenodd">
        <g id="Logo" transform="translate(0.000000, 0.516293)">
            <path d="M6.36221589,16.1794664 L6.36221589,16.6416945 L8.33863951,16.6416945 L8.33863951,21.8696538 L8.88056212,21.8696538 L8.88056212,16.6416945 L10.8649552,16.6416945 L10.8649552,16.1794664 L6.36221589,16.1794664 Z M10.4032831,17.7574175 L10.4032831,21.8696538 L10.9053585,21.8696538 L10.9053585,19.678055 C10.9053585,19.4602223 10.9425489,19.2596598 11.0169308,19.0763615 C11.0913127,18.8930632 11.1962427,18.7350041 11.331724,18.6021792 C11.4672054,18.4693544 11.627921,18.3670808 11.8138758,18.2953554 C11.9998305,18.22363 12.2070342,18.1930807 12.4354929,18.2037067 L12.4354929,17.7016314 C12.0635833,17.6856924 11.7434803,17.7680425 11.4751741,17.9486843 C11.206868,18.1293261 11.0089619,18.3870024 10.8814501,18.721721 L10.8655112,18.721721 L10.8655112,17.7574175 L10.4032831,17.7574175 Z M12.6990407,19.0165906 L13.2011161,19.0165906 C13.2117421,18.6818721 13.3180004,18.4388063 13.5198941,18.2873859 C13.7217878,18.1359656 13.9821206,18.0602566 14.3009002,18.0602566 C14.449664,18.0602566 14.589128,18.0722107 14.7192963,18.0961191 C14.8494647,18.1200276 14.9636923,18.1638592 15.0619827,18.2276151 C15.1602731,18.291371 15.2373103,18.3777058 15.2930968,18.4866222 C15.3488832,18.5955386 15.376776,18.7350025 15.376776,18.9050183 C15.376776,19.0165912 15.3621655,19.1069107 15.332944,19.1759796 C15.3037225,19.2450485 15.2625475,19.2995059 15.2094175,19.3393534 C15.1562876,19.3792008 15.0898762,19.4070936 15.0101813,19.4230326 C14.9304864,19.4389716 14.8375104,19.4522539 14.7312505,19.4628798 C14.4602879,19.4947578 14.193314,19.5279635 13.9303208,19.562498 C13.6673276,19.5970324 13.430903,19.6568027 13.2210397,19.7418106 C13.0111765,19.8268185 12.8424915,19.9503437 12.7149796,20.11239 C12.5874678,20.2744363 12.5237128,20.4989069 12.5237128,20.7858086 C12.5237128,20.9930153 12.559575,21.1723261 12.6313004,21.3237464 C12.7030258,21.4751667 12.8013147,21.6000202 12.9261701,21.6983106 C13.0510254,21.796601 13.1971305,21.8683253 13.3644898,21.9134857 C13.5318491,21.9586462 13.7111599,21.9812261 13.9024277,21.9812261 C14.1043215,21.9812261 14.2783194,21.9626309 14.4244267,21.9254399 C14.570534,21.888249 14.7007004,21.8351198 14.8149297,21.7660509 C14.9291591,21.696982 15.0327609,21.6106472 15.1257383,21.5070438 C15.2187157,21.4034404 15.3103634,21.2852281 15.4006843,21.1524033 L15.4166232,21.1524033 C15.4166232,21.2586631 15.4232644,21.3556238 15.4365469,21.4432882 C15.4498293,21.5309526 15.4777221,21.6066616 15.5202261,21.6704175 C15.56273,21.7341734 15.6225003,21.7833179 15.6995387,21.8178523 C15.7765771,21.8523868 15.8788507,21.8696538 16.0063625,21.8696538 C16.0754314,21.8696538 16.1325453,21.8669973 16.1777057,21.8616843 C16.2228662,21.8563713 16.2746671,21.848402 16.33311,21.837776 L16.33311,21.4153951 C16.285293,21.4366471 16.2321639,21.4472729 16.173721,21.4472729 C15.9771402,21.4472729 15.8788513,21.3463276 15.8788513,21.1444338 L15.8788513,18.9608045 C15.8788513,18.6845288 15.8336916,18.4600582 15.7433707,18.2873859 C15.6530498,18.1147137 15.5361657,17.9805626 15.3927149,17.8849287 C15.2492641,17.7892948 15.0872202,17.7242116 14.9065784,17.6896772 C14.7259366,17.6551427 14.5452976,17.6378758 14.3646558,17.6378758 C14.1255711,17.6378758 13.9077417,17.6644403 13.7111609,17.7175703 C13.5145802,17.7707002 13.3432387,17.8530504 13.1971314,17.9646232 C13.0510241,18.0761961 12.9354682,18.2196447 12.8504603,18.3949735 C12.7654524,18.5703023 12.7149797,18.7775059 12.6990407,19.0165906 L12.6990407,19.0165906 Z M15.376776,19.6222688 L15.376776,20.2757637 C15.376776,20.4776575 15.3382574,20.6582966 15.2612189,20.8176864 C15.1841805,20.9770762 15.0805787,21.1125555 14.9504104,21.2241283 C14.8202421,21.3357012 14.6674958,21.4207078 14.492167,21.4791507 C14.3168382,21.5375936 14.1335427,21.5668147 13.942275,21.5668147 C13.8253891,21.5668147 13.7111615,21.5482195 13.5995886,21.5110285 C13.4880157,21.4738376 13.3897268,21.4193802 13.3047189,21.3476548 C13.2197111,21.2759294 13.1519714,21.1909228 13.101498,21.0926324 C13.0510245,20.994342 13.0257882,20.8814426 13.0257882,20.7539308 C13.0257882,20.552037 13.0855585,20.3966343 13.2051008,20.2877179 C13.3246432,20.1788016 13.4773894,20.0951232 13.6633442,20.0366802 C13.849299,19.9782373 14.0551744,19.9344058 14.2809766,19.9051843 C14.5067788,19.8759629 14.7259365,19.8427571 14.9384562,19.8055662 C15.0075251,19.7949402 15.0872188,19.776345 15.1775397,19.74978 C15.2678606,19.7232151 15.3289591,19.6807118 15.3608371,19.6222688 L15.376776,19.6222688 Z M16.7082302,17.7574175 L16.7082302,21.8696538 L17.2103055,21.8696538 L17.2103055,19.4708493 C17.2156185,19.2689555 17.2488242,19.0816753 17.3099236,18.9090031 C17.3710231,18.7363308 17.4560297,18.5875692 17.564946,18.4627138 C17.6738624,18.3378585 17.8066852,18.2395696 17.9634185,18.1678442 C18.1201518,18.0961188 18.2994627,18.0602566 18.5013564,18.0602566 C18.7032502,18.0602566 18.8719352,18.0921341 19.0074165,18.15589 C19.1428978,18.2196459 19.2504843,18.307309 19.3301792,18.4188819 C19.4098741,18.5304547 19.4656597,18.6619493 19.4975377,18.8133697 C19.5294157,18.96479 19.5453544,19.1281621 19.5453544,19.3034908 L19.5453544,21.8696538 L20.0474297,21.8696538 L20.0474297,19.2237963 C20.0474297,18.9793986 20.0235216,18.7589127 19.9757047,18.562332 C19.9278878,18.3657512 19.8455376,18.1997227 19.7286517,18.0642413 C19.6117659,17.92876 19.4563632,17.82383 19.2624389,17.7494481 C19.0685147,17.6750662 18.8281053,17.6378758 18.5412037,17.6378758 C18.248989,17.6378758 17.9806869,17.7135848 17.7362892,17.8650051 C17.4918915,18.0164254 17.3218783,18.2169879 17.2262444,18.4666986 L17.2103055,18.4666986 L17.2103055,17.7574175 L16.7082302,17.7574175 Z M23.291552,18.9608045 L23.7936273,18.9608045 C23.7830013,18.7376588 23.7378416,18.5437374 23.6581467,18.3790346 C23.5784518,18.2143318 23.4708653,18.0761961 23.3353839,17.9646232 C23.1999026,17.8530504 23.0431716,17.7707002 22.8651864,17.7175703 C22.6872011,17.6644403 22.494608,17.6378758 22.2874012,17.6378758 C22.1067595,17.6378758 21.9247922,17.6591274 21.7414939,17.7016314 C21.5581956,17.7441353 21.3921671,17.8105467 21.2434033,17.9008676 C21.0946395,17.9911885 20.9737707,18.1107291 20.8807933,18.2594929 C20.7878159,18.4082567 20.7413279,18.5862393 20.7413279,18.793446 C20.7413279,18.9687748 20.7705489,19.1162082 20.8289919,19.2357505 C20.8874348,19.3552929 20.9684567,19.4562382 21.0720601,19.5385896 C21.1756635,19.620941 21.2965323,19.6900089 21.4346701,19.7457953 C21.5728079,19.8015817 21.7242259,19.8507262 21.8889287,19.8932301 L22.5344542,20.0366802 C22.6460271,20.0632452 22.75627,20.0951227 22.8651864,20.1323136 C22.9741027,20.1695046 23.0710634,20.2159926 23.1560713,20.271779 C23.2410792,20.3275655 23.3088188,20.3966333 23.3592923,20.4789847 C23.4097657,20.5613361 23.4350021,20.6636097 23.4350021,20.7858086 C23.4350021,20.9292594 23.3991399,21.0501282 23.3274145,21.1484185 C23.2556891,21.2467089 23.1640413,21.3277308 23.0524684,21.3914868 C22.9408956,21.4552427 22.8200268,21.5004024 22.6898585,21.5269674 C22.5596901,21.5535324 22.4335084,21.5668147 22.3113096,21.5668147 C21.976591,21.5668147 21.6963348,21.4804798 21.4705326,21.3078075 C21.2447304,21.1351353 21.1212051,20.8787872 21.0999532,20.5387556 L20.5978778,20.5387556 C20.6403818,21.04349 20.8117232,21.410081 21.1119073,21.6385397 C21.4120915,21.8669984 21.8039188,21.9812261 22.2874012,21.9812261 C22.478669,21.9812261 22.6725903,21.9599744 22.8691711,21.9174705 C23.0657518,21.8749665 23.2424062,21.8045704 23.3991395,21.70628 C23.5558728,21.6079897 23.684711,21.4804797 23.7856579,21.3237464 C23.8866047,21.1670131 23.9370774,20.9770765 23.9370774,20.7539308 C23.9370774,20.573289 23.9025435,20.416558 23.8334746,20.2837332 C23.7644056,20.1509084 23.6754143,20.0393372 23.566498,19.9490163 C23.4575816,19.8586954 23.3327281,19.7856428 23.1919338,19.7298564 C23.0511395,19.67407 22.9090191,19.6355514 22.7655682,19.6142994 L22.0961344,19.4628798 C22.0111265,19.4416279 21.9181506,19.4137351 21.8172037,19.3792006 C21.7162568,19.3446662 21.6232808,19.3008346 21.5382729,19.2477047 C21.453265,19.1945748 21.3828689,19.1294916 21.3270825,19.0524532 C21.2712961,18.9754148 21.2434033,18.8811105 21.2434033,18.7695377 C21.2434033,18.6367128 21.2726243,18.5251417 21.3310672,18.4348208 C21.3895102,18.3444999 21.4665474,18.2714473 21.5621813,18.2156609 C21.6578152,18.1598745 21.7627452,18.1200276 21.8769746,18.0961191 C21.9912039,18.0722107 22.1041033,18.0602566 22.2156762,18.0602566 C22.359127,18.0602566 22.4946063,18.0775236 22.6221181,18.112058 C22.74963,18.1465925 22.8625294,18.2010499 22.9608198,18.2754318 C23.0591101,18.3498137 23.1374756,18.4441179 23.1959186,18.5583473 C23.2543615,18.6725766 23.286239,18.8067277 23.291552,18.9608045 L23.291552,18.9608045 Z M26.0814155,18.1797984 L26.0814155,17.7574175 L25.2685316,17.7574175 L25.2685316,17.3987923 C25.2685316,17.2872194 25.271188,17.1836176 25.276501,17.0879837 C25.281814,16.9923498 25.3017375,16.9086714 25.3362719,16.836946 C25.3708064,16.7652206 25.4252637,16.7081068 25.4996456,16.6656029 C25.5740275,16.6230989 25.6802858,16.6018473 25.8184236,16.6018473 C25.8768666,16.6018473 25.9353086,16.6058319 25.9937515,16.6138014 C26.0521945,16.6217709 26.1159494,16.6310685 26.1850184,16.6416945 L26.1850184,16.2113442 C26.1053235,16.2007182 26.0335991,16.1927488 25.9698432,16.1874358 C25.9060873,16.1821229 25.8370194,16.1794664 25.7626375,16.1794664 C25.5607438,16.1794664 25.3947152,16.2086874 25.2645469,16.2671303 C25.1343785,16.3255733 25.0321049,16.4079234 24.957723,16.5141833 C24.8833411,16.6204432 24.8328685,16.7479531 24.8063035,16.8967169 C24.7797385,17.0454807 24.7664562,17.2075246 24.7664562,17.3828534 L24.7664562,17.7574175 L24.0651446,17.7574175 L24.0651446,18.1797984 L24.7664562,18.1797984 L24.7664562,21.8696538 L25.2685316,21.8696538 L25.2685316,18.1797984 L26.0814155,18.1797984 Z M28.1301202,18.0602566 C28.3692049,18.0602566 28.579065,18.1107293 28.7597067,18.2116762 C28.9403485,18.312623 29.0904383,18.4454459 29.2099807,18.6101487 C29.329523,18.7748515 29.4198426,18.9621317 29.480942,19.1719949 C29.5420414,19.3818581 29.5725907,19.5957029 29.5725907,19.8135356 C29.5725907,20.0313684 29.5420414,20.2452131 29.480942,20.4550764 C29.4198426,20.6649396 29.329523,20.8522198 29.2099807,21.0169226 C29.0904383,21.1816254 28.9403485,21.3144482 28.7597067,21.4153951 C28.579065,21.516342 28.3692049,21.5668147 28.1301202,21.5668147 C27.8910355,21.5668147 27.6811754,21.516342 27.5005336,21.4153951 C27.3198919,21.3144482 27.169802,21.1816254 27.0502597,21.0169226 C26.9307174,20.8522198 26.8403978,20.6649396 26.7792984,20.4550764 C26.718199,20.2452131 26.6876497,20.0313684 26.6876497,19.8135356 C26.6876497,19.5957029 26.718199,19.3818581 26.7792984,19.1719949 C26.8403978,18.9621317 26.9307174,18.7748515 27.0502597,18.6101487 C27.169802,18.4454459 27.3198919,18.312623 27.5005336,18.2116762 C27.6811754,18.1107293 27.8910355,18.0602566 28.1301202,18.0602566 L28.1301202,18.0602566 Z M28.1301202,17.6378758 C27.8166536,17.6378758 27.5390538,17.6963178 27.2973127,17.8132037 C27.0555715,17.9300895 26.8523525,18.0868205 26.6876497,18.2834012 C26.5229469,18.479982 26.3980935,18.7097655 26.3130856,18.9727587 C26.2280777,19.2357518 26.1855744,19.516008 26.1855744,19.8135356 C26.1855744,20.1110633 26.2280777,20.3913195 26.3130856,20.6543126 C26.3980935,20.9173058 26.5229469,21.1470893 26.6876497,21.3436701 C26.8523525,21.5402508 27.0555715,21.6956535 27.2973127,21.8098829 C27.5390538,21.9241122 27.8166536,21.9812261 28.1301202,21.9812261 C28.4435868,21.9812261 28.7211865,21.9241122 28.9629277,21.8098829 C29.2046689,21.6956535 29.4078879,21.5402508 29.5725907,21.3436701 C29.7372935,21.1470893 29.8621469,20.9173058 29.9471548,20.6543126 C30.0321627,20.3913195 30.074666,20.1110633 30.074666,19.8135356 C30.074666,19.516008 30.0321627,19.2357518 29.9471548,18.9727587 C29.8621469,18.7097655 29.7372935,18.479982 29.5725907,18.2834012 C29.4078879,18.0868205 29.2046689,17.9300895 28.9629277,17.8132037 C28.7211865,17.6963178 28.4435868,17.6378758 28.1301202,17.6378758 L28.1301202,17.6378758 Z M30.6569919,17.7574175 L30.6569919,21.8696538 L31.1590672,21.8696538 L31.1590672,19.678055 C31.1590672,19.4602223 31.1962576,19.2596598 31.2706395,19.0763615 C31.3450214,18.8930632 31.4499515,18.7350041 31.5854328,18.6021792 C31.7209142,18.4693544 31.8816298,18.3670808 32.0675846,18.2953554 C32.2535393,18.22363 32.4607429,18.1930807 32.6892017,18.2037067 L32.6892017,17.7016314 C32.3172921,17.6856924 31.9971891,17.7680425 31.7288829,17.9486843 C31.4605768,18.1293261 31.2626707,18.3870024 31.1351589,18.721721 L31.11922,18.721721 L31.11922,17.7574175 L30.6569919,17.7574175 Z M33.0005662,17.7574175 L33.0005662,21.8696538 L33.5026416,21.8696538 L33.5026416,19.5744521 C33.5026416,19.3566194 33.5265497,19.1560569 33.5743666,18.9727587 C33.6221836,18.7894604 33.6952361,18.630073 33.7935265,18.4945916 C33.8918169,18.3591103 34.0193268,18.252852 34.1760601,18.1758136 C34.3327934,18.0987752 34.5174172,18.0602566 34.7299369,18.0602566 C34.8893267,18.0602566 35.024806,18.0868212 35.1363789,18.1399511 C35.2479517,18.1930811 35.336943,18.2661336 35.4033554,18.359111 C35.4697678,18.4520884 35.5175841,18.5610031 35.5468055,18.6858585 C35.576027,18.8107138 35.5906375,18.9422084 35.5906375,19.0803462 L35.5906375,21.8696538 L36.0927129,21.8696538 L36.0927129,19.5425743 C36.0927129,19.3513066 36.1099798,19.1666828 36.1445143,18.9886976 C36.1790487,18.8107123 36.238819,18.6526531 36.3238269,18.5145153 C36.4088348,18.3763774 36.5230625,18.2661345 36.6665133,18.1837831 C36.8099641,18.1014317 36.9906032,18.0602566 37.2084359,18.0602566 C37.5697194,18.0602566 37.8220828,18.1492479 37.9655336,18.3272332 C38.1089845,18.5052185 38.1807088,18.764223 38.1807088,19.1042546 L38.1807088,21.8696538 L38.6827841,21.8696538 L38.6827841,19.0803462 C38.6827841,18.1186944 38.22853,17.6378758 37.3200082,17.6378758 C37.0490455,17.6378758 36.7940257,17.7042872 36.554941,17.837112 C36.3158563,17.9699368 36.1352172,18.1718276 36.0130184,18.4427902 C35.9386365,18.1718276 35.7912031,17.9699368 35.5707139,17.837112 C35.3502247,17.7042872 35.1045024,17.6378758 34.8335398,17.6378758 C34.4988212,17.6378758 34.2238779,17.7096001 34.0087017,17.8530509 C33.7935254,17.9965017 33.6195275,18.195736 33.4867027,18.4507597 L33.4627943,18.4507597 L33.4627943,17.7574175 L33.0005662,17.7574175 Z M39.424499,19.0165906 L39.9265744,19.0165906 C39.9372004,18.6818721 40.0434586,18.4388063 40.2453524,18.2873859 C40.4472461,18.1359656 40.7075789,18.0602566 41.0263585,18.0602566 C41.1751223,18.0602566 41.3145863,18.0722107 41.4447546,18.0961191 C41.574923,18.1200276 41.6891506,18.1638592 41.787441,18.2276151 C41.8857314,18.291371 41.9627686,18.3777058 42.018555,18.4866222 C42.0743415,18.5955386 42.1022343,18.7350025 42.1022343,18.9050183 C42.1022343,19.0165912 42.0876237,19.1069107 42.0584023,19.1759796 C42.0291808,19.2450485 41.9880057,19.2995059 41.9348758,19.3393534 C41.8817459,19.3792008 41.8153345,19.4070936 41.7356396,19.4230326 C41.6559447,19.4389716 41.5629687,19.4522539 41.4567088,19.4628798 C41.1857461,19.4947578 40.9187722,19.5279635 40.6557791,19.562498 C40.3927859,19.5970324 40.1563612,19.6568027 39.946498,19.7418106 C39.7366348,19.8268185 39.5679498,19.9503437 39.4404379,20.11239 C39.3129261,20.2744363 39.2491711,20.4989069 39.2491711,20.7858086 C39.2491711,20.9930153 39.2850333,21.1723261 39.3567587,21.3237464 C39.4284841,21.4751667 39.526773,21.6000202 39.6516283,21.6983106 C39.7764837,21.796601 39.9225888,21.8683253 40.0899481,21.9134857 C40.2573074,21.9586462 40.4366182,21.9812261 40.627886,21.9812261 C40.8297797,21.9812261 41.0037777,21.9626309 41.149885,21.9254399 C41.2959923,21.888249 41.4261587,21.8351198 41.540388,21.7660509 C41.6546174,21.696982 41.7582192,21.6106472 41.8511966,21.5070438 C41.944174,21.4034404 42.0358217,21.2852281 42.1261426,21.1524033 L42.1420815,21.1524033 C42.1420815,21.2586631 42.1487226,21.3556238 42.1620051,21.4432882 C42.1752876,21.5309526 42.2031804,21.6066616 42.2456844,21.6704175 C42.2881883,21.7341734 42.3479586,21.7833179 42.424997,21.8178523 C42.5020354,21.8523868 42.604309,21.8696538 42.7318208,21.8696538 C42.8008897,21.8696538 42.8580035,21.8669973 42.903164,21.8616843 C42.9483244,21.8563713 43.0001253,21.848402 43.0585683,21.837776 L43.0585683,21.4153951 C43.0107513,21.4366471 42.9576222,21.4472729 42.8991793,21.4472729 C42.7025985,21.4472729 42.6043096,21.3463276 42.6043096,21.1444338 L42.6043096,18.9608045 C42.6043096,18.6845288 42.5591498,18.4600582 42.468829,18.2873859 C42.3785081,18.1147137 42.261624,17.9805626 42.1181732,17.8849287 C41.9747223,17.7892948 41.8126785,17.7242116 41.6320367,17.6896772 C41.4513949,17.6551427 41.2707559,17.6378758 41.0901141,17.6378758 C40.8510294,17.6378758 40.6331999,17.6644403 40.4366192,17.7175703 C40.2400384,17.7707002 40.068697,17.8530504 39.9225897,17.9646232 C39.7764823,18.0761961 39.6609265,18.2196447 39.5759186,18.3949735 C39.4909107,18.5703023 39.440438,18.7775059 39.424499,19.0165906 L39.424499,19.0165906 Z M42.1022343,19.6222688 L42.1022343,20.2757637 C42.1022343,20.4776575 42.0637156,20.6582966 41.9866772,20.8176864 C41.9096388,20.9770762 41.806037,21.1125555 41.6758687,21.2241283 C41.5457003,21.3357012 41.3929541,21.4207078 41.2176253,21.4791507 C41.0422965,21.5375936 40.859001,21.5668147 40.6677332,21.5668147 C40.5508474,21.5668147 40.4366197,21.5482195 40.3250469,21.5110285 C40.213474,21.4738376 40.1151851,21.4193802 40.0301772,21.3476548 C39.9451693,21.2759294 39.8774297,21.1909228 39.8269563,21.0926324 C39.7764828,20.994342 39.7512465,20.8814426 39.7512465,20.7539308 C39.7512465,20.552037 39.8110168,20.3966343 39.9305591,20.2877179 C40.0501015,20.1788016 40.2028477,20.0951232 40.3888025,20.0366802 C40.5747572,19.9782373 40.7806327,19.9344058 41.0064349,19.9051843 C41.2322371,19.8759629 41.4513948,19.8427571 41.6639145,19.8055662 C41.7329834,19.7949402 41.8126771,19.776345 41.902998,19.74978 C41.9933189,19.7232151 42.0544174,19.6807118 42.0862954,19.6222688 L42.1022343,19.6222688 Z M44.2386029,17.7574175 L44.2386029,16.5221527 L43.7365275,16.5221527 L43.7365275,17.7574175 L43.019277,17.7574175 L43.019277,18.1797984 L43.7365275,18.1797984 L43.7365275,20.9930143 C43.7312145,21.3436718 43.7949695,21.5840812 43.9277943,21.7142495 C44.0606192,21.8444178 44.2943874,21.909501 44.629106,21.909501 C44.7034879,21.909501 44.7778686,21.9068446 44.8522506,21.9015316 C44.9266325,21.8962186 45.0010133,21.8935621 45.0753952,21.8935621 L45.0753952,21.4711813 C44.9319443,21.4871202 44.7884957,21.4950896 44.6450449,21.4950896 C44.4644031,21.4844636 44.3515037,21.4326627 44.3063432,21.3396853 C44.2611828,21.246708 44.2386029,21.1178698 44.2386029,20.953167 L44.2386029,18.1797984 L45.0753952,18.1797984 L45.0753952,17.7574175 L44.2386029,17.7574175 Z M45.6417821,16.1794664 L45.6417821,16.9843809 L46.1438575,16.9843809 L46.1438575,16.1794664 L45.6417821,16.1794664 Z M45.6417821,17.7574175 L45.6417821,21.8696538 L46.1438575,21.8696538 L46.1438575,17.7574175 L45.6417821,17.7574175 Z M48.6786986,18.0602566 C48.9177833,18.0602566 49.1276434,18.1107293 49.3082852,18.2116762 C49.488927,18.312623 49.6390168,18.4454459 49.7585591,18.6101487 C49.8781015,18.7748515 49.968421,18.9621317 50.0295204,19.1719949 C50.0906198,19.3818581 50.1211691,19.5957029 50.1211691,19.8135356 C50.1211691,20.0313684 50.0906198,20.2452131 50.0295204,20.4550764 C49.968421,20.6649396 49.8781015,20.8522198 49.7585591,21.0169226 C49.6390168,21.1816254 49.488927,21.3144482 49.3082852,21.4153951 C49.1276434,21.516342 48.9177833,21.5668147 48.6786986,21.5668147 C48.4396139,21.5668147 48.2297538,21.516342 48.0491121,21.4153951 C47.8684703,21.3144482 47.7183805,21.1816254 47.5988381,21.0169226 C47.4792958,20.8522198 47.3889763,20.6649396 47.3278768,20.4550764 C47.2667774,20.2452131 47.2362282,20.0313684 47.2362282,19.8135356 C47.2362282,19.5957029 47.2667774,19.3818581 47.3278768,19.1719949 C47.3889763,18.9621317 47.4792958,18.7748515 47.5988381,18.6101487 C47.7183805,18.4454459 47.8684703,18.312623 48.0491121,18.2116762 C48.2297538,18.1107293 48.4396139,18.0602566 48.6786986,18.0602566 L48.6786986,18.0602566 Z M48.6786986,17.6378758 C48.365232,17.6378758 48.0876323,17.6963178 47.8458911,17.8132037 C47.6041499,17.9300895 47.400931,18.0868205 47.2362282,18.2834012 C47.0715254,18.479982 46.9466719,18.7097655 46.861664,18.9727587 C46.7766561,19.2357518 46.7341528,19.516008 46.7341528,19.8135356 C46.7341528,20.1110633 46.7766561,20.3913195 46.861664,20.6543126 C46.9466719,20.9173058 47.0715254,21.1470893 47.2362282,21.3436701 C47.400931,21.5402508 47.6041499,21.6956535 47.8458911,21.8098829 C48.0876323,21.9241122 48.365232,21.9812261 48.6786986,21.9812261 C48.9921652,21.9812261 49.269765,21.9241122 49.5115062,21.8098829 C49.7532474,21.6956535 49.9564663,21.5402508 50.1211691,21.3436701 C50.2858719,21.1470893 50.4107254,20.9173058 50.4957333,20.6543126 C50.5807411,20.3913195 50.6232445,20.1110633 50.6232445,19.8135356 C50.6232445,19.516008 50.5807411,19.2357518 50.4957333,18.9727587 C50.4107254,18.7097655 50.2858719,18.479982 50.1211691,18.2834012 C49.9564663,18.0868205 49.7532474,17.9300895 49.5115062,17.8132037 C49.269765,17.6963178 48.9921652,17.6378758 48.6786986,17.6378758 L48.6786986,17.6378758 Z M51.1976009,17.7574175 L51.1976009,21.8696538 L51.6996762,21.8696538 L51.6996762,19.4708493 C51.7049892,19.2689555 51.7381949,19.0816753 51.7992944,18.9090031 C51.8603938,18.7363308 51.9454004,18.5875692 52.0543168,18.4627138 C52.1632331,18.3378585 52.296056,18.2395696 52.4527893,18.1678442 C52.6095226,18.0961188 52.7888334,18.0602566 52.9907271,18.0602566 C53.1926209,18.0602566 53.3613059,18.0921341 53.4967872,18.15589 C53.6322686,18.2196459 53.7398551,18.307309 53.81955,18.4188819 C53.8992449,18.5304547 53.9550304,18.6619493 53.9869084,18.8133697 C54.0187864,18.96479 54.0347251,19.1281621 54.0347251,19.3034908 L54.0347251,21.8696538 L54.5368005,21.8696538 L54.5368005,19.2237963 C54.5368005,18.9793986 54.5128924,18.7589127 54.4650754,18.562332 C54.4172585,18.3657512 54.3349083,18.1997227 54.2180225,18.0642413 C54.1011366,17.92876 53.9457339,17.82383 53.7518096,17.7494481 C53.5578854,17.6750662 53.317476,17.6378758 53.0305744,17.6378758 C52.7383598,17.6378758 52.4700576,17.7135848 52.2256599,17.8650051 C51.9812622,18.0164254 51.811249,18.2169879 51.7156151,18.4666986 L51.6996762,18.4666986 L51.6996762,17.7574175 L51.1976009,17.7574175 Z" id="Transformation" fill="#ffffff"></path>
            <path d="M57.9625519,21.9623218 L59.8513116,16.2721344 L58.5602607,16.2721344 L57.2771792,20.2727984 L57.2612403,20.2727984 L55.9940978,16.2721344 L54.7110163,16.2721344 L56.5519593,21.9623218 L57.9625519,21.9623218 Z M61.0711935,17.2045601 L61.0711935,16.2721344 L59.9395316,16.2721344 L59.9395316,17.2045601 L61.0711935,17.2045601 Z M59.9395316,17.8421161 L59.9395316,21.9623218 L61.0711935,21.9623218 L61.0711935,17.8421161 L59.9395316,17.8421161 Z M62.673609,20.6234542 L61.5977332,20.6234542 C61.6083592,20.8997298 61.6707859,21.1295133 61.7850153,21.3128116 C61.8992446,21.4961099 62.0453498,21.6435432 62.223335,21.7551161 C62.4013203,21.8666889 62.6045393,21.9463827 62.832998,21.9941996 C63.0614567,22.0420165 63.2952249,22.0659246 63.5343096,22.0659246 C63.7680813,22.0659246 63.9978648,22.0433448 64.223667,21.9981843 C64.4494692,21.9530239 64.6500317,21.8746584 64.8253605,21.7630855 C65.0006893,21.6515127 65.1428097,21.5040793 65.2517261,21.3207811 C65.3606424,21.1374828 65.4150998,20.9103557 65.4150998,20.6393931 C65.4150998,20.4481253 65.3779094,20.2874097 65.3035275,20.1572413 C65.2291456,20.027073 65.1308567,19.9181583 65.0086578,19.8304939 C64.886459,19.7428295 64.746995,19.6724334 64.5902617,19.6193035 C64.4335284,19.5661735 64.2728128,19.5210138 64.10811,19.4838228 C63.9487202,19.4466319 63.7919892,19.4120979 63.6379124,19.38022 C63.4838356,19.348342 63.3470281,19.3124798 63.2274858,19.2726324 C63.1079434,19.2327849 63.0109827,19.180984 62.9366008,19.1172281 C62.8622189,19.0534722 62.8250285,18.971122 62.8250285,18.8701752 C62.8250285,18.7851673 62.8462802,18.7174276 62.8887841,18.6669542 C62.9312881,18.6164807 62.983089,18.5779621 63.0441884,18.5513971 C63.1052878,18.5248322 63.1730275,18.5075652 63.2474094,18.4995957 C63.3217913,18.4916262 63.3908592,18.4876415 63.4546151,18.4876415 C63.6565088,18.4876415 63.831835,18.5261602 63.9805988,18.6031986 C64.1293626,18.680237 64.2117128,18.8276703 64.2276517,19.0455031 L65.3035275,19.0455031 C65.2822755,18.7904794 65.2171923,18.5792911 65.108276,18.4119318 C64.9993596,18.2445725 64.8625521,18.1104214 64.6978493,18.0094745 C64.5331465,17.9085277 64.3458663,17.8368033 64.1360031,17.7942994 C63.9261398,17.7517954 63.7096386,17.7305438 63.4864929,17.7305438 C63.2633472,17.7305438 63.0455177,17.7504672 62.832998,17.7903147 C62.6204782,17.8301621 62.4292134,17.89923 62.2591976,17.9975204 C62.0891818,18.0958107 61.9523743,18.2299618 61.8487709,18.3999776 C61.7451675,18.5699934 61.6933666,18.7878228 61.6933666,19.0534725 C61.6933666,19.2341143 61.730557,19.3868605 61.8049389,19.5117159 C61.8793208,19.6365712 61.9776097,19.740173 62.0998086,19.8225244 C62.2220074,19.9048758 62.3614714,19.9712873 62.5182047,20.0217607 C62.674938,20.0722341 62.8356536,20.1160657 63.0003564,20.1532566 C63.4041439,20.2382645 63.718934,20.3232711 63.9447363,20.408279 C64.1705385,20.4932869 64.2834379,20.6207968 64.2834379,20.7908126 C64.2834379,20.8917595 64.2595298,20.9754379 64.2117128,21.0418503 C64.1638959,21.1082627 64.1041256,21.1613919 64.0324002,21.2012393 C63.9606748,21.2410868 63.8809811,21.2703078 63.7933167,21.2889033 C63.7056523,21.3074987 63.6219739,21.3167963 63.542279,21.3167963 C63.4307062,21.3167963 63.3231197,21.303514 63.2195163,21.2769491 C63.1159129,21.2503841 63.0242652,21.209209 62.9445703,21.1534226 C62.8648754,21.0976362 62.7997922,21.0259118 62.7493187,20.9382475 C62.6988453,20.8505831 62.673609,20.745653 62.673609,20.6234542 L62.673609,20.6234542 Z M67.0733014,17.2045601 L67.0733014,16.2721344 L65.9416395,16.2721344 L65.9416395,17.2045601 L67.0733014,17.2045601 Z M65.9416395,17.8421161 L65.9416395,21.9623218 L67.0733014,21.9623218 L67.0733014,17.8421161 L65.9416395,17.8421161 Z M68.8032281,19.9062037 C68.8032281,19.7415009 68.8191669,19.579457 68.8510448,19.4200672 C68.8829228,19.2606774 68.9373801,19.1198852 69.0144186,18.9976864 C69.091457,18.8754875 69.1937305,18.7758704 69.3212424,18.698832 C69.4487542,18.6217936 69.6081416,18.5832749 69.7994094,18.5832749 C69.9906771,18.5832749 70.1513928,18.6217936 70.2815611,18.698832 C70.4117295,18.7758704 70.5153313,18.8754875 70.5923697,18.9976864 C70.6694081,19.1198852 70.7238654,19.2606774 70.7557434,19.4200672 C70.7876214,19.579457 70.8035601,19.7415009 70.8035601,19.9062037 C70.8035601,20.0709065 70.7876214,20.2316221 70.7557434,20.3883554 C70.7238654,20.5450887 70.6694081,20.6858809 70.5923697,20.8107363 C70.5153313,20.9355916 70.4117295,21.0352087 70.2815611,21.1095906 C70.1513928,21.1839725 69.9906771,21.2211629 69.7994094,21.2211629 C69.6081416,21.2211629 69.4487542,21.1839725 69.3212424,21.1095906 C69.1937305,21.0352087 69.091457,20.9355916 69.0144186,20.8107363 C68.9373801,20.6858809 68.8829228,20.5450887 68.8510448,20.3883554 C68.8191669,20.2316221 68.8032281,20.0709065 68.8032281,19.9062037 L68.8032281,19.9062037 Z M67.6715662,19.9062037 C67.6715662,20.2356093 67.7220389,20.5331324 67.8229858,20.7987821 C67.9239326,21.0644317 68.0673813,21.2915588 68.2533361,21.4801701 C68.4392908,21.6687813 68.6624332,21.8135582 68.9227699,21.9145051 C69.1831065,22.015452 69.4753168,22.0659246 69.7994094,22.0659246 C70.123502,22.0659246 70.4170405,22.015452 70.6800336,21.9145051 C70.9430268,21.8135582 71.1674974,21.6687813 71.3534522,21.4801701 C71.5394069,21.2915588 71.6828556,21.0644317 71.7838025,20.7987821 C71.8847493,20.5331324 71.935222,20.2356093 71.935222,19.9062037 C71.935222,19.5767981 71.8847493,19.2779467 71.7838025,19.0096405 C71.6828556,18.7413344 71.5394069,18.5128791 71.3534522,18.3242678 C71.1674974,18.1356566 70.9430268,17.9895514 70.6800336,17.8859481 C70.4170405,17.7823447 70.123502,17.7305438 69.7994094,17.7305438 C69.4753168,17.7305438 69.1831065,17.7823447 68.9227699,17.8859481 C68.6624332,17.9895514 68.4392908,18.1356566 68.2533361,18.3242678 C68.0673813,18.5128791 67.9239326,18.7413344 67.8229858,19.0096405 C67.7220389,19.2779467 67.6715662,19.5767981 67.6715662,19.9062037 L67.6715662,19.9062037 Z M72.501609,17.8421161 L72.501609,21.9623218 L73.6332709,21.9623218 L73.6332709,19.8026008 C73.6332709,19.3828743 73.7023388,19.0813665 73.8404766,18.8980682 C73.9786144,18.71477 74.2017568,18.6231222 74.5099104,18.6231222 C74.7808731,18.6231222 74.9694815,18.7068006 75.0757414,18.8741599 C75.1820012,19.0415192 75.2351304,19.2952108 75.2351304,19.6352424 L75.2351304,21.9623218 L76.3667923,21.9623218 L76.3667923,19.4280367 C76.3667923,19.173013 76.3442124,18.940573 76.299052,18.7307098 C76.2538915,18.5208465 76.175526,18.3428639 76.0639532,18.1967566 C75.9523803,18.0506493 75.7996341,17.9364217 75.6057098,17.8540703 C75.4117855,17.7717189 75.1634068,17.7305438 74.8605662,17.7305438 C74.6214815,17.7305438 74.3877133,17.7850012 74.1592546,17.8939175 C73.9307959,18.0028339 73.7448439,18.1768318 73.6013931,18.4159165 L73.5774847,18.4159165 L73.5774847,17.8421161 L72.501609,17.8421161 Z M77.1085072,20.7350265 L77.1085072,21.9623218 L78.3597108,21.9623218 L78.3597108,20.7350265 L77.1085072,20.7350265 Z M80.1135459,19.9062037 C80.1135459,19.7415009 80.1294846,19.579457 80.1613626,19.4200672 C80.1932405,19.2606774 80.2476979,19.1198852 80.3247363,18.9976864 C80.4017747,18.8754875 80.5040483,18.7758704 80.6315601,18.698832 C80.759072,18.6217936 80.9184594,18.5832749 81.1097271,18.5832749 C81.3009949,18.5832749 81.4617105,18.6217936 81.5918788,18.698832 C81.7220472,18.7758704 81.825649,18.8754875 81.9026874,18.9976864 C81.9797258,19.1198852 82.0341832,19.2606774 82.0660611,19.4200672 C82.0979391,19.579457 82.1138778,19.7415009 82.1138778,19.9062037 C82.1138778,20.0709065 82.0979391,20.2316221 82.0660611,20.3883554 C82.0341832,20.5450887 81.9797258,20.6858809 81.9026874,20.8107363 C81.825649,20.9355916 81.7220472,21.0352087 81.5918788,21.1095906 C81.4617105,21.1839725 81.3009949,21.2211629 81.1097271,21.2211629 C80.9184594,21.2211629 80.759072,21.1839725 80.6315601,21.1095906 C80.5040483,21.0352087 80.4017747,20.9355916 80.3247363,20.8107363 C80.2476979,20.6858809 80.1932405,20.5450887 80.1613626,20.3883554 C80.1294846,20.2316221 80.1135459,20.0709065 80.1135459,19.9062037 L80.1135459,19.9062037 Z M78.9818839,19.9062037 C78.9818839,20.2356093 79.0323566,20.5331324 79.1333035,20.7987821 C79.2342504,21.0644317 79.377699,21.2915588 79.5636538,21.4801701 C79.7496086,21.6687813 79.9727509,21.8135582 80.2330876,21.9145051 C80.4934243,22.015452 80.7856345,22.0659246 81.1097271,22.0659246 C81.4338197,22.0659246 81.7273582,22.015452 81.9903514,21.9145051 C82.2533445,21.8135582 82.4778151,21.6687813 82.6637699,21.4801701 C82.8497247,21.2915588 82.9931733,21.0644317 83.0941202,20.7987821 C83.1950671,20.5331324 83.2455397,20.2356093 83.2455397,19.9062037 C83.2455397,19.5767981 83.1950671,19.2779467 83.0941202,19.0096405 C82.9931733,18.7413344 82.8497247,18.5128791 82.6637699,18.3242678 C82.4778151,18.1356566 82.2533445,17.9895514 81.9903514,17.8859481 C81.7273582,17.7823447 81.4338197,17.7305438 81.1097271,17.7305438 C80.7856345,17.7305438 80.4934243,17.7823447 80.2330876,17.8859481 C79.9727509,17.9895514 79.7496086,18.1356566 79.5636538,18.3242678 C79.377699,18.5128791 79.2342504,18.7413344 79.1333035,19.0096405 C79.0323566,19.2779467 78.9818839,19.5767981 78.9818839,19.9062037 L78.9818839,19.9062037 Z M83.8119267,17.8421161 L83.8119267,21.9623218 L84.9435886,21.9623218 L84.9435886,20.1054399 C84.9435886,19.9194852 84.9621838,19.7468155 84.9993748,19.5874257 C85.0365657,19.4280359 85.0989925,19.2885719 85.1866569,19.1690295 C85.2743212,19.0494872 85.3898771,18.955183 85.5333279,18.8861141 C85.6767788,18.8170451 85.8521049,18.7825112 86.0593116,18.7825112 C86.1283806,18.7825112 86.2001049,18.7864959 86.2744868,18.7944654 C86.3488687,18.8024349 86.4126237,18.8117325 86.4657536,18.8223585 L86.4657536,17.770391 C86.3754327,17.7438261 86.2930826,17.7305438 86.2187006,17.7305438 C86.0752498,17.7305438 85.9371141,17.7517954 85.8042892,17.7942994 C85.6714644,17.8368033 85.5466109,17.8965736 85.4297251,17.973612 C85.3128392,18.0506504 85.2092374,18.1436264 85.1189165,18.2525428 C85.0285956,18.3614591 84.9568713,18.4796715 84.9037414,18.6071833 L84.8878025,18.6071833 L84.8878025,17.8421161 L83.8119267,17.8421161 Z M88.4427332,20.9900489 C88.2674045,20.9900489 88.1212993,20.9528585 88.0044135,20.8784766 C87.8875276,20.8040947 87.7932234,20.7084622 87.721498,20.5915764 C87.6497726,20.4746905 87.5992999,20.3431959 87.5700785,20.1970886 C87.540857,20.0509813 87.5262465,19.9035479 87.5262465,19.7547841 C87.5262465,19.6007073 87.5435134,19.453274 87.5780479,19.3124796 C87.6125824,19.1716853 87.668368,19.0468318 87.7454064,18.9379155 C87.8224448,18.8289991 87.9180772,18.7426643 88.0323066,18.6789084 C88.1465359,18.6151524 88.2833434,18.5832749 88.4427332,18.5832749 C88.628688,18.5832749 88.7827625,18.6178089 88.9049613,18.6868778 C89.0271602,18.7559467 89.1254491,18.8489227 89.199831,18.9658086 C89.2742129,19.0826944 89.327342,19.2168455 89.35922,19.3682658 C89.391098,19.5196861 89.4070367,19.6804017 89.4070367,19.8504175 C89.4070367,19.9991813 89.3871133,20.1413018 89.3472658,20.2767831 C89.3074184,20.4122644 89.2476481,20.5331332 89.1679532,20.6393931 C89.0882583,20.7456529 88.9873129,20.8306596 88.8651141,20.8944155 C88.7429152,20.9581714 88.602123,20.9900489 88.4427332,20.9900489 L88.4427332,20.9900489 Z M90.4829125,21.6993299 L90.4829125,17.8421161 L89.4070367,17.8421161 L89.4070367,18.3920081 L89.3910978,18.3920081 C89.25296,18.1529234 89.0816185,17.9829102 88.8770683,17.8819633 C88.672518,17.7810165 88.4347651,17.7305438 88.1638025,17.7305438 C87.8769008,17.7305438 87.6232092,17.7863294 87.40272,17.8979022 C87.1822308,18.0094751 86.997607,18.1595649 86.8488432,18.3481762 C86.7000794,18.5367874 86.58718,18.7546169 86.5101416,19.0016711 C86.4331032,19.2487253 86.3945846,19.5050733 86.3945846,19.770723 C86.3945846,20.0523117 86.4277903,20.3192856 86.4942027,20.5716527 C86.5606151,20.8240199 86.6655451,21.0445058 86.808996,21.2331171 C86.9524468,21.4217284 87.1357423,21.57049 87.358888,21.6794063 C87.5820337,21.7883227 87.8476794,21.84278 88.155833,21.84278 C88.4055437,21.84278 88.6432966,21.7909791 88.8690988,21.6873758 C89.094901,21.5837724 89.268899,21.4230568 89.3910978,21.205224 L89.4070367,21.205224 L89.4070367,21.7471466 C89.4123497,22.0393613 89.3419536,22.2810988 89.1958463,22.4723666 C89.049739,22.6636344 88.817299,22.7592668 88.4985194,22.7592668 C88.2966256,22.7592668 88.118643,22.7180917 87.9645662,22.6357403 C87.8104894,22.5533889 87.7068876,22.4059556 87.6537577,22.1934358 L86.5300652,22.1934358 C86.5460042,22.4272076 86.6110874,22.62777 86.7253167,22.7951293 C86.8395461,22.9624886 86.9829948,23.0992961 87.155667,23.205556 C87.3283393,23.3118159 87.5196042,23.3901813 87.7294675,23.4406548 C87.9393307,23.4911282 88.1452061,23.5163646 88.3470998,23.5163646 C88.8199562,23.5163646 89.1971731,23.4526096 89.4787618,23.3250978 C89.7603504,23.1975859 89.9755234,23.0421832 90.1242872,22.8588849 C90.273051,22.6755867 90.3700117,22.4776806 90.4151721,22.2651609 C90.4603326,22.0526412 90.4829125,21.8640327 90.4829125,21.6993299 L90.4829125,21.6993299 Z" id="Vision.org" fill="#249C3A"></path>
            <path d="M11.0917309,24.4243048 L11.204561,24.4266094 C11.204561,24.4266094 11.2647483,24.4759609 11.3127494,24.5815456 C11.3607505,24.6871302 11.1823637,24.6494231 11.1823637,24.6494231 L11.0984507,24.556235 L11.0430101,24.4904438 L11.0917309,24.4243048 Z M19.6404282,16.2633617 L19.4398684,16.2672217 L19.3656971,16.3330296 L19.339642,16.4562015 L19.0136585,16.4458545 L18.6822066,16.4216758 L18.601602,16.4574882 L18.5932655,16.5994509 L17.927011,16.5939558 L17.5441191,16.6636505 L17.2924408,16.670754 L17.085796,16.7399662 L17.0210336,16.6840496 L16.6861238,16.6568954 L16.023086,16.6474867 L16.0198425,16.4876982 L15.8482863,16.493515 L15.6090995,16.485232 L15.3391934,16.4495805 L15.2213021,16.4274927 L14.9532992,16.1510996 L15.4196639,16.0919127 L15.6812603,16.1658427 L15.8986005,16.1756536 L16.0079676,16.0475226 L16.3000151,16.0710847 L16.5170337,16.0719693 L16.7193091,16.0666886 L16.9010247,16.051463 L17.053656,16.0128092 L17.211997,15.9809105 L17.353236,15.9144861 L17.5530453,15.92167 L17.6628145,15.9032009 L17.7466358,15.9503253 L18.0116632,15.9961093 L18.3783914,15.9749061 L18.4523481,15.9450714 L18.6623168,15.8651637 L19.0878833,15.5941854 L19.1967143,15.668169 L19.1980278,15.7638652 L19.2922764,15.7655271 L19.3488632,15.7003358 L19.7469539,15.5052978 L19.9215659,15.4874989 L20.6952843,15.0409167 L20.8375418,15.106671 L21.0230638,14.9652444 L21.4251753,14.7175333 L21.5427449,14.6747515 L21.8693182,14.3589809 L21.8689161,14.1907755 L21.8071559,14.0513325 L21.8869295,13.9449945 L22.3112362,13.7118657 L22.4695771,13.6297868 L22.6786612,13.5012001 L22.7844899,13.3092984 L22.9048741,13.2774265 L22.9484869,13.1823469 L22.9532047,12.8747788 L23.0999389,12.8688012 L23.1629589,12.6182219 L23.2035963,12.307464 L23.2983275,11.4951455 L23.3394742,10.8525872 L23.3671376,10.5607273 L23.3307087,10.3155092 L23.3556648,10.2333499 L23.3540564,10.1046023 L23.3088085,9.84742892 L23.2737735,9.59719816 L23.4330259,9.21797861 L23.4420862,8.62005174 L23.2449574,8.46583882 L23.1913729,7.74776902 L23.1038793,7.39749957 L22.905303,7.08368581 L22.7496694,6.88285786 L22.5539613,6.38636358 L22.3957276,6.29905757 L22.3772049,6.12361458 L22.194578,6.07764289 L21.8311201,5.57144496 L21.2086125,4.96038332 L21.1225395,4.93030738 L21.0324189,4.81126348 L20.8681271,4.58848171 L20.7822418,4.57140651 L20.5241838,4.5414646 L20.5229507,4.38001416 L20.4105814,4.30016012 L20.1590104,4.26536638 L20.0247945,4.20363297 L20.0068079,4.06057121 L19.8931519,4.05515646 L19.2297925,3.62500617 L18.8050301,3.52512831 L18.6774352,3.22120583 L18.293337,3.18378514 L17.6105971,2.81384034 L17.4303559,2.81260728 L17.0448102,2.63255372 L16.6915653,2.5489737 L15.5681136,2.31308396 L15.1222016,2.25156499 L14.6247959,2.24178093 L14.4308767,2.26295406 L14.1083271,2.14544182 L13.9117521,2.14667592 L13.699807,2.21038448 L13.3675929,2.20836504 L12.928124,2.14278129 L12.6252078,2.10210397 L11.9780571,2.13340531 L11.8110685,2.12965492 L11.3516937,2.44435117 L11.0713511,2.5236671 L10.7035205,2.52978267 L10.5907515,2.57891813 L10.4726577,2.53842883 L10.2921165,2.59536692 L10.0754354,2.74846711 L9.61384147,2.72961955 L9.37501781,2.66709309 L9.21864895,2.62011917 L9.04625306,2.79863063 L8.81981872,2.81407772 L8.66323897,2.8588901 L8.53452198,2.9519417 L8.43606653,3.04552051 L8.1294971,3.10778336 L7.83877015,3.41907128 L7.67246348,3.4019635 L7.38036581,3.40117269 L7.32290052,3.33864623 L7.04914956,3.33769726 L7.03554768,3.47911988 L6.7216501,3.58706501 L6.43875215,3.60725694 L6.37192898,3.73860995 L6.26108422,3.79702421 L6.1025011,3.79528444 L5.1403001,4.45842866 L5.03446379,4.46188185 L5.02107279,4.56023186 L4.83054107,4.53948636 L4.73886021,4.62942746 L4.58220138,4.63419866 L4.60336864,4.73721442 L4.60871977,4.8141072 L4.45902004,4.85425383 L4.34806984,5.0294439 L4.20269319,5.04354662 L3.62524606,5.54130678 L3.56680544,5.75922678 L3.56593555,6.05396047 L3.35602907,6.38103817 L3.15179003,6.38839267 L3.13544669,6.68088575 L2.28451221,7.56645756 L2.1280379,8.45100133 L1.95582654,9.10449772 L1.92300806,9.43199717 L1.72762606,9.64351163 L1.78084736,9.81168988 L1.76081358,10.0919255 L1.23690408,11.0005888 L1.35802932,11.2432084 L1.25662153,11.4922334 L1.48830156,11.6525036 L1.5435526,11.896652 L1.8692332,12.4477389 L1.82639783,12.6338158 L1.76632287,13.0842593 L1.9697711,13.4032708 L1.95466669,13.7555752 L1.89032138,14.1021595 C1.89032138,14.1021595 1.86828138,14.1502786 1.85689661,14.2494604 C1.85024922,14.3073712 1.77209854,14.433221 1.90234164,14.4437353 C2.25564776,14.4722571 2.16676976,14.7786096 2.26911784,15.1285476 C2.37146591,15.4784857 2.77333626,15.2620095 2.77333626,15.2620095 L3.03593683,15.1285476 L3.41222907,15.4953765 L3.49378761,15.6014501 L3.19444088,15.9000851 L3.17986367,16.2335683 L3.40384652,16.4354349 L3.4174484,16.6094388 L3.50140572,16.6297362 L3.60165366,16.7237895 L3.5923485,16.8985051 L3.79885452,16.995458 L3.80950405,17.192158 L3.72143453,17.2126926 L3.67962721,17.5180758 L3.85537084,17.5707436 L3.90730049,17.7383419 L3.84416775,17.908049 L3.89678276,17.9761638 L3.9171065,18.1493242 L3.99987761,18.2614869 L4.11146045,18.2875308 L4.20682329,18.4120375 L4.36140516,18.768297 L4.6652337,18.9321068 L4.65807376,19.1136254 L4.72463346,19.1691845 L4.86048129,19.17054 L4.80707712,19.2404364 L4.80433132,19.3408495 L4.94862511,19.3902218 L5.16547419,19.6965702 L5.35564726,19.8093915 L5.42973186,20.0658984 L5.56577085,20.3144285 L5.78314129,20.4579403 L5.78908474,20.5985151 L6.04976243,20.7711532 L6.11682612,20.8579589 L6.04993622,20.9069489 L6.10307971,20.9923643 L6.21767362,20.9774535 L6.44627058,20.9690597 L7.11996601,21.6489593 L7.53234073,21.8907291 L7.60027334,22.0225451 L7.535521,22.1132088 L7.73669467,22.4466156 L8.06756417,22.4878374 L8.12734625,22.6728838 L8.65389781,22.9425984 L8.67655939,23.2059176 L8.77073355,23.1272451 L9.45376124,23.2696098 L10.2194411,24.0531896 L10.2183984,24.1300374 L9.99823004,24.1251888 L9.7477883,23.9219818 L9.47883843,23.9122672 L9.32439559,23.7770798 L9.2415696,23.7618736 L9.15865671,23.8141308 L8.91428007,23.7065925 L8.85557545,23.58251 L8.73900039,23.4944704 L8.62807334,23.4107407 L8.5044426,23.4112621 L8.4390125,23.3489949 L8.19328033,23.3543648 L6.61435556,22.6858656 L6.48686679,22.4792525 L5.81226768,22.287133 L5.81129448,22.1470448 L5.62614381,22.0308868 L4.95418623,21.7380936 L4.38467499,21.2932906 L4.39788266,21.1242672 L4.19345922,21.1219559 L3.54494526,20.4963294 L2.93418636,19.7815758 L2.8137992,19.7349709 L2.72625689,19.6692548 L2.71734713,19.547207 L2.5854142,19.4531801 L2.41001325,19.2672087 L2.40729815,18.9745047 L2.15297468,18.893447 L1.78640936,18.333793 L1.65895767,18.2961506 L1.63278196,18.0883793 L1.20089601,17.533971 L1.12687649,17.3452582 L1.08404112,17.2096612 L0.964734736,17.0447516 L0.682601228,16.3034229 L0.497288834,16.2598231 L0.449075979,16.0491785 L0.480233767,15.9003487 L0.316747641,15.5729547 L0.461570727,15.0094521 L0.440798868,14.8374516 L0.250636192,14.793061 L0.258412459,14.5244239 L0.102017233,14.2136896 L0.0723092577,13.8989221 L0.240223902,13.635768 L0.0899442494,13.4102562 L0.0996711731,12.7956412 L0.147409544,12.5306682 L0.189875869,12.1627321 L0.210120523,12.0225748 L0.120522113,11.786229 L0.199892755,11.551623 L0.160009732,11.36407 L0.144958043,11.0713133 L0.234978217,10.7406243 L0.27478216,10.5078635 L0.305992668,10.0396531 L0.306414432,9.92472253 L0.502297277,9.44794511 L0.514976546,9.18236583 L0.413595114,9.04858768 L0.550905535,8.68539647 L0.581246156,8.42817338 L0.730655922,8.27072374 L0.674192316,8.08483142 L0.807891386,7.44440971 L0.789650109,7.24114601 L1.14350979,6.69393406 L1.30921018,6.66509597 L1.25688513,6.48508198 L1.29360492,6.34716527 L1.37513711,6.31677193 L1.40083833,6.14479781 L1.48967229,5.88348889 L1.68792756,5.76745117 L1.75108666,5.4648094 L1.96724052,5.33530161 L2.4466276,4.64487455 L2.81329836,4.5783677 L2.94792004,4.56052182 L3.02642079,4.34484245 L3.20050373,4.27598954 L3.62316361,3.55485281 L3.88613323,3.35873272 L3.99107329,3.35643938 L4.50857726,2.61305463 L4.53100982,2.4730291 L4.74133807,2.43362056 L5.40906897,1.95697494 L5.79524629,1.8077497 L6.08713309,1.77632831 L6.51625122,1.44118439 L6.55220657,1.5449646 L6.68250517,1.53405147 L6.7585017,1.43994546 L6.85308219,1.47453007 L6.93793576,1.49306131 L7.0121398,1.24938738 L7.47365465,1.26080135 L7.81248901,0.999386986 L7.97502617,1.01836635 L8.28064664,0.82090189 L8.69869347,0.698300475 L9.09475588,0.65926098 L9.14220429,0.549866038 L9.37398976,0.482067535 L9.59878978,0.514121571 L9.69508369,0.55932936 L9.78715996,0.51989446 L9.85281005,0.384857364 L10.0450691,0.353590956 L10.2345679,0.368409695 L10.3977098,0.337301654 L10.4488854,0.280854701 L10.763382,0.27237069 L11.1032854,0.242122363 L11.35129,0.313388055 L11.559318,0.29089977 L11.6429364,0.0837994049 L12.1191948,0.0950887956 L12.39238,0.168187035 L12.7376905,0.238660886 L13.0555129,0.22924929 L13.2842192,0.172757089 L13.3573853,0.315695706 L13.8153409,0.356554703 L14.4246739,0.777746259 L15.2648172,0.879577015 L15.468162,0.876477523 L15.6238153,0.784556092 L16.0540339,0.78190908 L16.3557932,0.989846534 L16.5525996,0.992448298 L16.8127081,0.880436728 L16.9255568,0.900617363 L17.0283151,1.10988963 L17.4314527,1.1322648 L18.5606406,1.61632853 L18.711837,1.61698463 L18.7124478,1.73399611 L19.0179627,1.89949088 L19.1700641,1.93973903 L19.3894719,2.08491743 L19.4572761,2.17045888 L19.8622236,2.22643073 L19.9855246,2.25618133 L20.1535759,2.32642894 L20.378866,2.35792159 L20.5639758,2.14656791 L20.7282036,2.33527494 L20.7459182,2.44538609 L20.9756879,2.47565704 L21.1032874,2.60803024 L21.5560621,3.03648411 L21.9493808,3.19915088 L22.3529709,3.20607383 L22.4217253,3.24301887 L22.4009791,3.32281382 L22.387563,3.42455408 L22.6462688,3.56452895 L22.9758104,3.60065953 L23.678244,4.22641777 L23.717139,4.30747806 L23.8286505,4.3303969 L24.1941456,4.72955986 L24.3102945,4.74567005 L24.3349288,4.9616968 L24.7257284,5.23028943 L24.8202184,5.38975625 L24.8834529,5.57047996 L25.2093024,5.906462 L25.2126531,6.04150887 L25.153493,6.13498018 L25.2440425,6.25657061 L25.2210701,6.45410146 L25.4753753,6.52079392 L25.5089628,6.68891897 L25.5376448,6.87358311 L25.5772904,6.99158159 L25.715688,6.9997305 L25.7235152,7.26092478 L25.5992174,7.33871478 L25.5675063,7.47357401 L25.4654304,7.46504981 L25.3228779,7.34321813 L25.1365251,7.32327472 L25.0996137,7.4132881 L25.0805012,7.49517937 L24.9756375,7.48834392 L24.8839354,7.45041393 L24.8014008,7.36190167 L24.7417046,7.30459118 L24.6411834,7.23945345 L24.5144731,7.21806254 L24.421109,7.21951004 L24.3743868,7.33809825 L24.3648708,7.80859105 L24.4683138,8.10940407 L24.7632832,8.45986116 L24.9805698,8.51604581 L24.9713218,8.60595196 L24.9425594,9.05164954 L24.7763643,9.15420796 L24.7191074,9.27512825 L24.739989,9.56210956 L24.9612429,10.1653708 L24.8278044,10.2615494 L24.7693412,10.3971592 L24.771164,10.5958963 L24.8992146,10.5891949 L24.8966681,11.0237413 L24.9605191,11.2321017 L25.0631312,11.2770011 L25.0539905,11.4608879 L24.809925,11.6645572 L24.78261,11.7891231 L24.5829883,11.8201104 L24.552832,11.9610278 L24.6102497,12.1095847 L24.1477718,12.5666478 L24.1354412,12.7953805 L24.0736542,13.1374474 L24.0279773,13.3532865 L23.9733206,13.4768874 L23.9008113,13.5045508 L23.7315068,13.4587131 L23.7311583,13.5536051 L23.8131568,13.6067876 L23.743623,13.6947369 L23.5269529,13.7376795 L23.3896811,13.7224271 L23.2923498,13.8227607 L23.2785717,14.0938194 L23.1621816,14.1796779 L22.944895,14.2271776 L22.7194058,14.3285565 L22.5937409,14.4170956 L22.4924692,14.4950196 L22.2759599,14.7581171 L22.2561506,14.8638386 L22.1599451,14.8598714 L22.150027,15.0400053 L22.035272,15.0858966 L21.9446689,15.1226472 L21.8206391,15.1643836 L21.7795997,15.2380723 L21.7038469,15.2658966 L21.4969341,15.5299054 L21.3913734,15.5337922 L21.3730652,15.461283 L21.2789237,15.5546738 L21.1814852,15.6065696 L20.7135925,15.7978815 L20.3675852,15.8974913 L20.2566634,16.0565829 L20.0647617,16.0846216 L19.8988883,16.1270817 L19.6404282,16.2633617 Z M17.395907,15.1989353 L17.5995976,15.2132928 L17.8072009,15.1289716 L17.9592974,15.0654737 L18.4848542,14.728222 L19.00494,14.0832295 L19.1562076,13.7350356 L19.2158923,13.5300518 L19.165094,13.4785572 L19.2030269,13.3467867 L19.2419214,13.2752645 L19.145597,13.2458532 L19.072019,13.2867041 L19.0905212,13.4550812 L18.9468469,13.4214588 L18.4201958,14.1284903 L17.9133402,14.5859735 L17.7193981,14.7536875 L17.6938663,14.8808822 L17.4298278,15.0996598 L17.395907,15.1989353 Z M19.5076178,12.6905203 L19.5796041,12.5234695 L19.5284743,12.4148765 L19.6044728,12.3521744 L19.5740336,12.2444767 L19.669728,12.1305121 L19.6215492,11.9935026 L19.7190342,11.9052687 L19.6163102,11.8115637 L19.5885569,11.7301604 L19.4663027,11.8080821 L19.5167363,11.9648207 L19.4979024,12.0624052 L19.4183892,12.075569 L19.431553,12.1788567 L19.4730338,12.2534626 L19.3628492,12.3774078 L19.3814178,12.6425073 L19.5076178,12.6905203 Z M19.414474,11.3220794 L19.5398695,11.1462789 L19.5913845,10.7846875 L19.5448854,10.7140548 L19.5378961,10.5757497 L19.6210683,10.5531374 L19.3697016,10.2232443 L19.3145276,10.0275861 L19.2761277,9.89343339 L19.2604636,9.7719847 L19.0656277,9.66825585 L19.0849098,9.53130745 L19.1623672,9.50840735 L19.1013962,9.24055421 L18.7849472,8.82074632 L18.7808358,8.70756141 L18.0896802,8.20725368 L17.888225,8.20519801 L17.6071745,7.99280671 L17.1434165,7.97767702 L16.9883782,7.87855286 L16.8102343,7.87345481 L16.8061641,7.98853093 L17.0355763,8.15360082 L17.20965,8.15869887 L17.3412948,8.36257972 L17.9637913,8.97800468 L18.048978,9.02105031 L18.0352051,9.16243894 L18.0574062,9.29132913 L18.1707145,9.32253412 L18.1906133,9.44250273 L18.2948355,9.59256627 L18.3503796,9.72199093 L18.4490926,9.97228869 L18.5868633,10.0785666 L18.7521799,10.10048 L18.863638,10.1829121 L18.9277748,10.3712521 L19.0602418,10.5835201 L19.1478954,10.8287609 L19.2650271,11.0154564 L19.414474,11.3220794 Z M16.1275168,8.53523585 L16.2569,8.49071998 L16.3048623,8.39328766 L16.3511492,8.30667318 L16.3875039,8.21950823 L16.4082301,8.14172513 L16.3280536,8.14024126 L16.3219746,8.1845896 L16.1979045,8.19227218 L16.0644766,8.32845245 L16.0571051,8.45872121 L16.1275168,8.53523585 Z M15.9623773,8.35882376 L15.9838933,8.46626019 L16.0030878,8.55000268 L15.9217865,8.7152858 L15.4945777,9.33774213 L15.2946153,9.51085143 L15.286837,9.57403525 L15.3699811,9.58937647 L15.3240293,9.83196404 L15.2454803,9.92970749 L15.1619771,9.92884589 L15.1006362,9.8211462 L15.1015935,9.75458779 L15.1981882,9.60153457 L15.1980206,9.52059227 L15.1169108,9.51470469 L15.1291886,9.31763819 L15.3219471,9.05420475 L15.3248669,8.95607837 L15.4744977,8.89100383 L15.6753217,8.55064888 L15.8418015,8.35958963 L15.9623773,8.35882376 Z M14.7571699,10.2638159 L14.799819,10.1506115 L14.7488411,10.1042767 L14.7310826,9.96400386 L14.6744326,9.86279008 L14.4854316,9.58073656 L14.4283269,9.46339177 L14.3475282,9.45659472 L14.3249591,9.3711051 L14.070716,9.08220667 L14.0720802,8.96301902 L13.7031729,8.66411648 L13.6013368,8.64480234 L13.5885086,8.55088821 L13.2994187,8.50479274 L13.0731536,8.28111246 L12.9487485,8.26426344 L12.8243674,8.31990828 L12.7116177,8.34455954 L12.3704491,8.3249582 L12.2999177,8.32742332 L12.200834,8.24626562 L12.1090021,8.27907813 L11.9731569,8.38529395 L11.9914898,8.49402277 L12.1562464,8.64317488 L12.2934079,8.64001568 L12.3019999,8.72904743 L12.7968441,8.73251775 L13.2184046,9.04092179 L13.2965707,9.07562502 L13.3395548,9.15321667 L13.8470357,9.51386702 L13.8680013,9.66895458 L13.9461912,9.69561623 L13.9474118,9.76928282 L14.0389087,9.7879029 L14.1451485,9.87674317 L14.1771712,9.96139513 L14.3075835,9.97020257 L14.30957,9.9035245 L14.4073852,9.94052532 L14.4497711,10.0718471 L14.5276738,10.1136825 L14.573506,10.2249722 L14.6640456,10.2862653 L14.7571699,10.2638159 Z M11.4946591,8.36976127 L11.4960473,8.52523175 L11.393589,8.56948436 L11.363074,8.69647425 L11.2692796,8.72538564 L11.2220832,8.77318037 L11.1832395,8.84179703 C11.1832395,8.84179703 11.1630877,8.89669994 11.1630877,8.89669994 C11.1630877,8.89669994 11.0407169,8.89533575 11.0407169,8.89533575 L11.0006048,8.967327 C11.0006048,8.967327 10.9430213,8.99444339 10.9430213,8.99444339 C10.9430213,8.99444339 10.8665067,8.97567971 10.8665067,8.97567971 L10.9371337,8.83990631 L10.9715498,8.69913085 L11.0858072,8.65332258 L11.1704831,8.69123287 L11.2437428,8.54114737 L11.2576002,8.42140925 L11.4354004,8.31744315 L11.4946591,8.36976127 Z M10.7592617,9.57099573 L10.7690265,9.75686145 L10.7658673,9.87466098 L10.7188145,10.0688555 L10.6521843,10.2864328 L10.6447171,10.8212694 L10.8101678,11.1158879 L10.8060991,11.4869732 L10.7615115,11.5309625 L10.7541639,11.9332089 L10.7933427,12.1016512 L10.727598,12.1489912 L10.7050768,12.3528069 L10.809378,12.4308293 L10.8121064,12.7004136 L10.8657169,12.740095 L10.8370688,13.1256598 L10.9021194,13.139589 L10.9032921,13.3376128 L10.9533605,13.3805491 L10.9726028,13.4795371 L11.1527964,13.6514976 L11.2003039,13.7352879 L11.2063351,13.8225247 L11.0579728,13.82207 L10.8867542,13.5917602 L10.7499756,13.4736495 L10.6352635,13.4283678 L10.4725173,13.2806517 L10.4530595,13.1648865 L10.4618431,13.0849972 L10.1887166,12.859498 L10.1099044,12.718555 L9.94076803,12.1166813 L9.90553826,11.8809865 L9.89338017,11.5491279 L9.93921237,11.3538085 L10.1132551,11.1424299 L10.101815,11.0111799 L10.0247259,10.9469909 L10.052297,10.8467344 L10.1275672,10.6985875 L10.1723224,10.2969156 L10.2044647,10.0839813 L10.2931375,9.92209671 L10.3106806,9.80350739 L10.6168588,9.54028935 L10.7592617,9.57099573 Z M13.5734661,16.4298291 L13.5823507,16.3447414 L13.4870284,16.2660025 L13.3152477,16.2593984 L13.1842777,16.0576801 L12.9734742,15.9884278 L12.5008036,15.7028625 L12.2904744,15.6578923 L12.2186132,15.5476468 L11.9011947,15.4187383 L11.8594536,15.3365514 L11.722591,15.3477712 L11.7567975,15.4443704 L11.8387655,15.4675214 L11.9428446,15.6632194 L12.7952535,16.1726688 L12.9231404,16.2550017 L12.9685484,16.3351271 L13.0530158,16.3015773 L13.1598497,16.3445225 L13.1812493,16.3851143 L13.3947711,16.3996544 L13.4166815,16.4694904 L13.537873,16.479798 L13.5734661,16.4298291 Z M14.2427286,15.9160559 L14.3512226,15.9056206 L14.3776392,15.9519956 L14.4149471,16.0300595 L14.3846082,16.0764892 L14.2893224,16.0760331 L14.2224236,16.0220871 L14.206351,15.9193762 L14.2427286,15.9160559 Z M10.3804484,24.1737992 L10.4809282,24.1734506 L10.5252671,24.1963325 L10.528598,24.2682531 L10.4058716,24.2734506 L10.3776008,24.2678574 L10.3804484,24.1737992 Z" id="Combined-Shape" fill="#249C3A"></path>
        </g>
    </g>
</svg>
